<?xml version="1.0" encoding="UTF-8"?>
<svg id="Layer_2" data-name="Layer 2" xmlns="http://www.w3.org/2000/svg" xmlns:xlink="http://www.w3.org/1999/xlink" viewBox="0 0 1903.53 471.53">
  <defs>
    <style>
      .cls-1, .cls-2, .cls-3, .cls-4, .cls-5, .cls-6, .cls-7, .cls-8, .cls-9, .cls-10, .cls-11 {
        fill: none;
      }

      .cls-2 {
        opacity: .3;
      }

      .cls-3, .cls-12, .cls-13 {
        opacity: .4;
      }

      .cls-4 {
        opacity: .5;
      }

      .cls-5, .cls-14, .cls-8, .cls-15, .cls-11 {
        stroke-linecap: round;
      }

      .cls-5, .cls-14, .cls-15, .cls-11 {
        stroke-linejoin: round;
      }

      .cls-5, .cls-9 {
        stroke: #e1edf9;
      }

      .cls-14 {
        fill: #f88578;
        stroke: #f88578;
      }

      .cls-14, .cls-15, .cls-11 {
        stroke-width: 1.5px;
      }

      .cls-6 {
        clip-path: url(#clippath-2);
      }

      .cls-7 {
        clip-path: url(#clippath-1);
      }

      .cls-16 {
        fill: #f9c722;
      }

      .cls-17 {
        fill: #fff;
      }

      .cls-18, .cls-12 {
        fill: #e1edf9;
      }

      .cls-19 {
        fill: #52d3dd;
      }

      .cls-20 {
        fill: #4fd0b1;
      }

      .cls-8 {
        stroke: #fff;
      }

      .cls-8, .cls-9 {
        stroke-miterlimit: 10;
      }

      .cls-15, .cls-11 {
        stroke: #000;
      }

      .cls-10 {
        clip-path: url(#clippath);
      }

      .cls-13 {
        fill: #cee3f4;
      }
    </style>
    <clipPath id="clippath">
      <path class="cls-1" d="m523.76,244.23c-.55-2.62-3.12-12.34-13-27.72-10.79-16.83-22.48-52-23-53.49-.17-.51-.68-.83-1.22-.75h0c-.6-.24-1.19-.51-1.76-.82-6.88-3.58-23.27-14.36-37.95-28-3.93-3.65-8.12-4.77-12.46-3.3h-.08c-.97.34-1.91.78-2.8,1.3-3.13,2.04-5.91,4.58-8.23,7.52-9.33,11-23.61,39.31-14.52,106.15,6.81,50.12,2.66,65.6,1.76,68.19-.06.16-.08.34-.06.51.7,5.35,5,7.91,13.64,8h1.86l1.56-.05,2.3-.14c.69,0,1.41-.1,2.17-.16l.79-.06c5.9-.48,13.06-1.28,18.1-1.87,2.88.92,32.49,10.48,47.89,19.62.17.1.37.16.57.16.15,0,.29-.03.43-.09.33-.14.56-.43.64-.78l.16-.72c.05-.36,5-36.18,18.64-58.91.18-.33.18-.72,0-1.05-.16-.34-.48-.57-.85-.61-6.07-.71-11.75-1.38-14.64-1.81-8.21-1.2-13.79-2.51-24.54-13.68-10.07-10.46-34.2-42.41-37.78-47.15,3.81-6.29,13.82-19.73,31.86-24l.26.36c1.25,1.87,30.68,46,35.44,51.75.17.2.4.34.66.38,3.89.67,8.19,1.52,12.78,2.53.33.06.67-.02.93-.22.26-.21.41-.53.41-.87.02-.07.04-.15.04-.22Z"/>
    </clipPath>
    <clipPath id="clippath-1">
      <path class="cls-1" d="m1535.35,284.78c0-.3-.11-.58-.32-.79-.22-.2-.5-.31-.79-.31-2.67.08-5.34.01-8-.2-1-.12-2.14-.27-3.32-.44-.1-.02-.2-.02-.3,0l-84.48-6.76c-1.21-.09-2.37-.47-3.4-1.11-.53-.32-1.21-.15-1.52.38-.09.15-.14.32-.16.49-.39,6.22-3.25,16.29-8.74,33.87-.11.34-.05.71.16,1,.11.14.25.26.41.34,1.42.75,24,12.43,59.35,12.43,18.42-.08,36.71-3.12,54.17-9,.25-.05.47-.19.62-.39.21-.26.29-.6.21-.93-2.18-9.39-3.48-18.95-3.89-28.58Z"/>
    </clipPath>
    <clipPath id="clippath-2">
      <path class="cls-1" d="m1579.28,239.28l-.41-1.37c-3.85-12.92-7.3-24.86-13.59-50.61-5.17-21.19-9.87-34.68-31.56-43.27-7.47-3-14.79-6-21.78-9-.55-.25-1.19,0-1.44.54-.11.24-.13.52-.05.78,1.59,5.34-1.32,21.58-10.83,32.07-6.73,7.44-15,10.26-24.73,8.4-21.53-4.15-17.49-38.73-17.21-40.9.17-.58-.17-1.19-.76-1.36-.23-.07-.49-.05-.71.04-4.49,1.67-9.07,3.1-13.71,4.27-2.57.71-5.52,1.53-9,2.52-15.06,4.32-20.27,13.1-23.37,21.11-2,5.12-6.86,18.28-9.41,25.17-.18-3.94-.39-8-.62-12.27l-.08-1.42c-.12-2.08-.23-4-.28-6,0-.37-.2-.7-.51-.9-.3-.19-.67-.22-1-.09-8.11,3.5-14,3.36-17.57,2.62-2.07-.36-4.03-1.19-5.74-2.41l-.6-.57c-.3-.28-.73-.36-1.12-.23-.39.14-.67.48-.72.89-1.8,13.11-4.46,27.56-6.77,36.81-4,16.13-5.49,44.79-2.69,52.87.55,1.87.92,3.78,1.12,5.72.74,5.21,1.66,11.7,6.59,15.17,3.65,2.57,8.86,3.11,15.91,1.65,20.55-4.25,32.72-30.58,35.89-38.33,1.91,2.3,4,4.44,6.24,6.42.6.51,1.16,1.06,1.68,1.64.11.47.52.82,1,.85.58.01,1.08-.42,1.14-1l3.15-39.38c.36-4.21,4.05-7.33,8.26-7l84.49,6.76c4.21.36,7.34,4.05,7,8.26l-1.7,21.21c-.01.15.01.31.06.45,2.06,5.85,4.5,11.57,7.31,17.1-.23.43-.45.88-.65,1.34-.13.33-.1.7.08,1,.19.3.51.5.87.52.17,0,4.27.4,6.46,7.1,2.72,8.3-.83,18.19-2.7,19.19-.37.19-.59.58-.58,1,0,.44.26.83.66,1,.45.2,11.11,4.75,18.34,5.36,1.06.09,2.08.13,3.07.13,6.6,0,11.55-2,14.73-5.9,8.91-10.99,1.97-34.13-2.16-47.95Z"/>
    </clipPath>
  </defs>
  <g id="Layer_1-2" data-name="Layer 1">
    <g>
      <g>
        <path d="m391.22,193.38c-2.38.01-4.75-.26-7.07-.81-.41-.11-.72-.44-.8-.86-.08-.42.09-.85.44-1.1,11.15-7.92,12-25.69,12.78-61.92.23-11,2.79-26,13.69-35.22,3.76-3.31,8.36-5.52,13.3-6.39.6-.07,1.15.37,1.22.97.07.6-.37,1.15-.97,1.22h0c-1,.12-24.28,3.27-25,39.46-.74,34.9-1.59,53-11.77,62.14,4.49.62,14.45,1,19.27-6.94.3-.53.97-.72,1.5-.42.53.3.72.97.42,1.5-.01.02-.03.04-.04.07-3,4.9-8.11,7.75-14.81,8.23-.77.06-1.48.08-2.16.08Z"/>
        <path d="m517.56,85.81l-.78.79c.25-2.77.66-5.53,1.25-8.25,2.4-14.61-.88-20.16-.88-20.16,0,0-10.5,22.12-37.27,22.12,0,0-2.52-10.93-10.19-7.87-8.21,3.26-4,19.59.62,21.74,0,0-14.27,25.93-24.96,25.43,0,0-.16-.21-.43-.64-1.44-2.36-2.66-4.85-3.64-7.44-2.65.27-5.33,0-7.87-.8,0,0-2,2.7,0,10.75,1.11,4.53-.59,8.55-2.15,10.15-3.03,1.98-5.71,4.44-7.95,7.28-5.91,6.93-13.51,20.84-16.17,46.41-6.88,11-22.68,6.85-22.68,6.85,11.31-8,12.44-25.12,13.24-62.81.76-36.39,24.3-40.3,25.92-40.52,2.63-9.69,13.28-11.14,13.28-11.14.07-1.06.18-2.14.3-3.24,3.3-29.18,22.99-44.75,38.11-43.36s36.67,1.56,48.73,23.73c8.52,15.63-6.48,30.98-6.48,30.98Z"/>
        <path d="m391.21,194.04c-2.38.01-4.75-.26-7.06-.81-.41-.11-.72-.44-.8-.86-.08-.42.09-.85.44-1.1,11.15-7.92,12-25.69,12.78-61.93.32-15.51,4.7-27.16,13-34.62,3.7-3.41,8.24-5.77,13.16-6.85,2.59-8.16,10.44-10.52,13.11-11.1.06-.8.15-1.61.24-2.44,3.56-31.51,24.48-45.69,39.3-44.33l2.42.22c15.73,1.38,35.45,2.54,47.18,24.07,8.79,16.16-6.46,32.12-6.61,32.28h0l-.78.79c-.32.32-.8.41-1.21.24-.4-.17-.67-.56-.67-1,.11-1.95.38-3.9.8-5.81.16-.86.33-1.74.47-2.6,1.6-9.75.6-15.36-.15-17.85-4.37,5-14.03,21.09-36.91,21.09-.51,0-.96-.35-1.08-.85,0-.05-1.28-5.38-4.5-7.07-1.33-.64-2.87-.64-4.2,0-3.13,1.24-3.88,4.65-3.95,7.29-.17,5.45,2.41,11.39,4.62,12.43.5.23.75.79.59,1.32-.34,1.1-14.49,26.22-25.72,26.22h-.34c-.33-.02-.63-.18-.83-.44,0,0-.18-.23-.48-.71-1.33-2.19-2.48-4.49-3.43-6.87-2.2.13-4.41-.08-6.54-.63-.37,1.17-.83,4,.43,9.16s-.77,9.48-2.43,11.18l-.23.17c-2.92,1.92-5.52,4.3-7.68,7.05-11,13-14.71,34.27-15.91,45.82-.01.17-.07.33-.16.47-3,4.8-8.12,7.59-14.78,8-.74.04-1.43.07-2.09.07Zm-4.21-2.52c4.42.62,14.14,1,19-6.57,2.74-25.94,10.42-39.74,16.4-46.76,2.29-2.89,5.02-5.4,8.1-7.43,1.94-2.57,2.59-5.89,1.77-9-2-8.3,0-11.34.21-11.66.28-.38.77-.54,1.22-.39,2.39.74,4.9.99,7.39.75.51-.07.99.21,1.18.69.96,2.52,2.14,4.95,3.54,7.26l.08.12c7.58-.4,20.64-16.48,23.09-23.86-2.89-2.21-5.22-8.44-5.05-14,.14-4.66,2-7.95,5.34-9.27,1.92-.86,4.12-.81,6,.14,3.25,1.7,4.83,5.85,5.39,7.66,25.43-.45,35.42-21.47,35.58-21.68.36-.48,1.04-.59,1.52-.23.12.09.22.2.3.33.14.24,3.46,6.07,1,20.89-.14.88-.31,1.78-.48,2.66-.14.73-.27,1.45-.39,2.13,1.88-2.35,3.48-4.92,4.75-7.65,3.36-7.33,3.37-14.16,0-20.31-11.16-20.5-30.18-21.6-45.45-22.94l-2.43-.22c-18-1.65-34.39,20.16-36.9,42.39-.13,1.08-.23,2.15-.31,3.2-.04.52-.44.93-.95,1-.4.06-10,1.48-12.36,10.33-.11.43-.47.74-.9.81-2.48.35-24.25,4.43-25,39.46s-1.46,53.05-11.64,62.15Z"/>
        <path class="cls-19" d="m439.48,213.29s27.3,36.41,38.31,47.84,16.77,12.78,25.18,14c2.79.41,8,1,14.66,1.81-13.89,23.2-18.79,59.33-18.79,59.33l-.14.63c-16.42-9.74-48.35-19.79-48.35-19.79-6.51.77-13.12,1.47-18.3,1.89l-2.94.22-1.12.07-1.16.07-1.53.05h-1.83c-8.87-.13-12-2.84-12.55-7.09.86-2.48,5.16-18.11-1.71-68.7-8.9-65.45,4.86-94.24,14.26-105.29,2.26-2.84,4.96-5.3,8-7.28.84-.5,1.73-.91,2.65-1.22h0c3.45-1.17,7.3-.71,11.36,3.07,15.25,14.2,32,25,38.2,28.21,1.58.82,2.47,1.15,2.47.92,1.36,4.13,12.66,37.47,23.08,53.75,9.79,15.28,12.3,24.85,12.83,27.34h0c-5.28-1.16-9.6-2-12.83-2.53-4.78-5.79-35.38-51.67-35.38-51.67l-.7-1c-19.7,4.41-30.23,19.5-33.67,25.37Z"/>
        <path class="cls-19" d="m498.7,338.01c-.2,0-.39-.05-.56-.15-15.41-9.14-45-18.7-47.89-19.62-5.06.59-12.22,1.39-18.11,1.87l-.81.06c-.75.06-1.47.12-2.15.16l-2.3.13-1.56.06h-1.86c-8.6-.13-12.94-2.69-13.64-8-.02-.17,0-.35.06-.51.9-2.59,5.05-18.06-1.76-68.19-9.09-66.85,5.19-95.2,14.52-106.16,2.32-2.93,5.1-5.47,8.23-7.51.89-.52,1.83-.96,2.8-1.3h.08c4.34-1.46,8.53-.34,12.46,3.31,14.68,13.68,31.07,24.46,38,28,.57.31,1.16.58,1.76.82h0c.53-.08,1.05.23,1.22.74.5,1.49,12.18,36.67,23,53.5,9.84,15.37,12.42,25.1,13,27.71,0,.08,0,.15,0,.23,0,.33-.15.65-.41.86-.26.21-.6.3-.93.23-4.58-1-8.88-1.86-12.78-2.53-.26-.04-.49-.18-.66-.38-4.76-5.76-34.19-49.88-35.44-51.76l-.25-.35c-18.05,4.3-28.06,17.74-31.86,24,3.52,4.7,27.7,36.7,37.7,47.14,10.75,11.17,16.33,12.48,24.54,13.68,2.88.43,8.33,1.07,14.64,1.81.37.04.7.27.86.61.14.32.12.69-.05,1-13.61,22.73-18.59,58.55-18.64,58.91l-.16.72c-.07.35-.31.63-.64.77-.13.07-.27.12-.41.14Zm-48.35-22c.11,0,.22.02.33.05.31.1,30.53,9.66,47.21,19.11.84-5.53,5.92-36.24,17.94-57.33-5.61-.66-10.38-1.23-13-1.62-8.7-1.28-14.78-2.88-25.81-14.34s-38.14-47.57-38.46-47.95c-.26-.36-.29-.83-.07-1.22,3.68-6.29,14.4-21.41,34.36-25.85.43-.09.87.08,1.13.43l.71,1c.32.48,29.64,44.45,35.07,51.29,3.33.58,6.93,1.28,10.75,2.1-1.07-3.91-4.12-12.59-12.26-25.31-10.24-16-21.2-48-23-53.3-.75-.27-1.47-.61-2.17-1-7-3.64-23.6-14.56-38.44-28.38-3.33-3.09-6.67-4-10.22-2.84h-.06c-.85.29-1.67.67-2.44,1.13-2.92,1.9-5.51,4.27-7.68,7-9.08,10.67-23,38.44-14,104.43,6.68,49.2,2.82,65.61,1.74,69,.45,2.87,2.28,5.74,11.45,5.88h1.81l1.47-.05,2.26-.13,2.13-.16.8-.06c4.71-.39,11-1,18.26-1.89h.19Z"/>
        <g class="cls-4">
          <g class="cls-10">
            <g>
              <rect class="cls-17" x="443.47" y="327.85" width="6.69" height="6.69" transform="translate(66.04 736.58) rotate(-83.34)"/>
              <rect class="cls-17" x="446.47" y="302.18" width="6.69" height="6.69" transform="translate(94.19 716.88) rotate(-83.34)"/>
              <rect class="cls-17" x="449.47" y="276.51" width="6.69" height="6.69" transform="translate(122.32 697.16) rotate(-83.34)"/>
              <rect class="cls-17" x="452.48" y="250.85" width="6.69" height="6.69" transform="translate(150.48 677.46) rotate(-83.34)"/>
              <rect class="cls-17" x="455.47" y="225.19" width="6.69" height="6.69" transform="translate(178.6 657.75) rotate(-83.34)"/>
              <rect class="cls-17" x="458.46" y="199.53" width="6.69" height="6.69" transform="translate(206.74 638.03) rotate(-83.34)"/>
              <rect class="cls-17" x="462.12" y="317.01" width="6.69" height="6.69" transform="translate(93.29 745.52) rotate(-83.34)"/>
              <rect class="cls-17" x="465.13" y="291.34" width="6.69" height="6.69" transform="translate(121.45 725.82) rotate(-83.34)"/>
              <rect class="cls-17" x="468.12" y="265.68" width="6.69" height="6.69" transform="translate(149.57 706.11) rotate(-83.34)"/>
              <rect class="cls-17" x="471.12" y="240.02" width="6.69" height="6.69" transform="translate(177.72 686.4) rotate(-83.34)"/>
              <rect class="cls-17" x="474.12" y="214.35" width="6.69" height="6.69" transform="translate(205.86 666.7) rotate(-83.34)"/>
              <rect class="cls-17" x="477.11" y="188.69" width="6.69" height="6.69" transform="translate(234 646.98) rotate(-83.34)"/>
              <rect class="cls-17" x="405.13" y="323.37" width="6.69" height="6.69" transform="translate(36.59 694.54) rotate(-83.34)"/>
              <rect class="cls-17" x="408.13" y="297.7" width="6.69" height="6.69" transform="translate(64.73 674.83) rotate(-83.34)"/>
              <rect class="cls-17" x="411.12" y="272.04" width="6.69" height="6.69" transform="translate(92.87 655.11) rotate(-83.34)"/>
              <rect class="cls-17" x="414.13" y="246.37" width="6.69" height="6.69" transform="translate(121.03 635.41) rotate(-83.34)"/>
              <rect class="cls-17" x="417.12" y="220.7" width="6.69" height="6.69" transform="translate(149.16 615.69) rotate(-83.34)"/>
              <rect class="cls-17" x="420.11" y="195.05" width="6.69" height="6.69" transform="translate(177.29 595.98) rotate(-83.34)"/>
              <rect class="cls-17" x="423.77" y="312.53" width="6.69" height="6.69" transform="translate(63.84 703.48) rotate(-83.34)"/>
              <rect class="cls-17" x="426.78" y="286.86" width="6.69" height="6.69" transform="translate(91.99 683.78) rotate(-83.34)"/>
              <rect class="cls-17" x="429.77" y="261.2" width="6.69" height="6.69" transform="translate(120.13 664.06) rotate(-83.34)"/>
              <rect class="cls-17" x="432.77" y="235.54" width="6.69" height="6.69" transform="translate(148.27 644.36) rotate(-83.34)"/>
              <rect class="cls-17" x="435.78" y="209.87" width="6.69" height="6.69" transform="translate(176.41 624.65) rotate(-83.34)"/>
              <rect class="cls-17" x="438.78" y="184.21" width="6.69" height="6.69" transform="translate(204.56 604.94) rotate(-83.34)"/>
              <rect class="cls-17" x="371.89" y="319.48" width="6.69" height="6.69" transform="translate(11.06 658.09) rotate(-83.34)"/>
              <rect class="cls-17" x="374.88" y="293.82" width="6.69" height="6.69" transform="translate(39.2 638.37) rotate(-83.34)"/>
              <rect class="cls-17" x="377.89" y="268.15" width="6.69" height="6.69" transform="translate(67.35 618.67) rotate(-83.34)"/>
              <rect class="cls-17" x="380.88" y="242.49" width="6.69" height="6.69" transform="translate(95.49 598.95) rotate(-83.34)"/>
              <rect class="cls-17" x="383.88" y="216.82" width="6.69" height="6.69" transform="translate(123.64 579.24) rotate(-83.34)"/>
              <rect class="cls-17" x="386.88" y="191.16" width="6.69" height="6.69" transform="translate(151.77 559.54) rotate(-83.34)"/>
              <rect class="cls-17" x="390.54" y="308.65" width="6.69" height="6.69" transform="translate(38.31 667.05) rotate(-83.34)"/>
              <rect class="cls-17" x="393.54" y="282.99" width="6.69" height="6.69" transform="translate(66.46 647.34) rotate(-83.34)"/>
              <rect class="cls-17" x="396.54" y="257.32" width="6.69" height="6.69" transform="translate(94.6 627.62) rotate(-83.34)"/>
              <rect class="cls-17" x="399.54" y="231.67" width="6.69" height="6.69" transform="translate(122.73 607.92) rotate(-83.34)"/>
              <rect class="cls-17" x="402.54" y="206" width="6.69" height="6.69" transform="translate(150.88 588.21) rotate(-83.34)"/>
              <rect class="cls-17" x="405.53" y="180.33" width="6.69" height="6.69" transform="translate(179.02 568.49) rotate(-83.34)"/>
              <rect class="cls-17" x="479.35" y="332.03" width="6.69" height="6.69" transform="translate(93.6 775.91) rotate(-83.34)"/>
              <rect class="cls-17" x="482.36" y="306.37" width="6.69" height="6.69" transform="translate(121.75 756.22) rotate(-83.34)"/>
              <rect class="cls-17" x="485.35" y="280.7" width="6.69" height="6.69" transform="translate(149.88 736.5) rotate(-83.34)"/>
              <rect class="cls-17" x="488.35" y="255.04" width="6.69" height="6.69" transform="translate(178.03 716.79) rotate(-83.34)"/>
              <rect class="cls-17" x="491.35" y="229.37" width="6.69" height="6.69" transform="translate(206.18 697.08) rotate(-83.34)"/>
              <rect class="cls-17" x="494.35" y="203.7" width="6.69" height="6.69" transform="translate(234.32 677.37) rotate(-83.34)"/>
              <rect class="cls-17" x="498.01" y="321.21" width="6.69" height="6.69" transform="translate(120.85 784.89) rotate(-83.34)"/>
              <rect class="cls-17" x="501" y="295.54" width="6.69" height="6.69" transform="translate(148.99 765.17) rotate(-83.34)"/>
              <rect class="cls-17" x="504.01" y="269.87" width="6.69" height="6.69" transform="translate(177.14 745.46) rotate(-83.34)"/>
              <rect class="cls-17" x="507.01" y="244.21" width="6.69" height="6.69" transform="translate(205.28 725.75) rotate(-83.34)"/>
              <rect class="cls-17" x="510" y="218.55" width="6.69" height="6.69" transform="translate(233.41 706.04) rotate(-83.34)"/>
              <rect class="cls-17" x="513.01" y="192.88" width="6.69" height="6.69" transform="translate(261.56 686.34) rotate(-83.34)"/>
              <rect class="cls-17" x="514.14" y="336.09" width="6.69" height="6.69" transform="translate(120.32 814.07) rotate(-83.34)"/>
              <rect class="cls-17" x="517.13" y="310.43" width="6.69" height="6.69" transform="translate(148.46 794.35) rotate(-83.34)"/>
              <rect class="cls-17" x="520.14" y="284.76" width="6.69" height="6.69" transform="translate(176.61 774.64) rotate(-83.34)"/>
              <rect class="cls-17" x="523.13" y="259.1" width="6.69" height="6.69" transform="translate(204.74 754.93) rotate(-83.34)"/>
              <rect class="cls-17" x="526.13" y="233.44" width="6.69" height="6.69" transform="translate(232.88 735.22) rotate(-83.34)"/>
              <rect class="cls-17" x="529.13" y="207.77" width="6.69" height="6.69" transform="translate(261.03 715.51) rotate(-83.34)"/>
              <rect class="cls-17" x="532.79" y="325.26" width="6.69" height="6.69" transform="translate(147.57 823.01) rotate(-83.34)"/>
              <rect class="cls-17" x="535.79" y="299.61" width="6.69" height="6.69" transform="translate(175.7 803.31) rotate(-83.34)"/>
              <rect class="cls-17" x="538.79" y="273.94" width="6.69" height="6.69" transform="translate(203.85 783.6) rotate(-83.34)"/>
              <rect class="cls-17" x="541.78" y="248.27" width="6.69" height="6.69" transform="translate(231.99 763.88) rotate(-83.34)"/>
              <rect class="cls-17" x="544.78" y="222.61" width="6.69" height="6.69" transform="translate(260.13 744.18) rotate(-83.34)"/>
              <rect class="cls-17" x="547.79" y="196.94" width="6.69" height="6.69" transform="translate(288.28 724.47) rotate(-83.34)"/>
              <rect class="cls-17" x="550.02" y="340.29" width="6.69" height="6.69" transform="translate(147.87 853.41) rotate(-83.34)"/>
              <rect class="cls-17" x="553.02" y="314.62" width="6.69" height="6.69" transform="translate(176.01 833.7) rotate(-83.34)"/>
              <rect class="cls-17" x="556.02" y="288.96" width="6.69" height="6.69" transform="translate(204.16 813.99) rotate(-83.34)"/>
              <rect class="cls-17" x="559.01" y="263.29" width="6.69" height="6.69" transform="translate(232.3 794.27) rotate(-83.34)"/>
              <rect class="cls-17" x="562.01" y="237.63" width="6.69" height="6.69" transform="translate(260.44 774.56) rotate(-83.34)"/>
              <rect class="cls-17" x="565.01" y="211.97" width="6.69" height="6.69" transform="translate(288.58 754.86) rotate(-83.34)"/>
              <rect class="cls-17" x="568.67" y="329.46" width="6.69" height="6.69" transform="translate(175.12 862.37) rotate(-83.34)"/>
              <rect class="cls-17" x="571.67" y="303.79" width="6.69" height="6.69" transform="translate(203.26 842.66) rotate(-83.34)"/>
              <rect class="cls-17" x="574.68" y="278.13" width="6.69" height="6.69" transform="translate(231.41 822.95) rotate(-83.34)"/>
              <rect class="cls-17" x="577.67" y="252.47" width="6.69" height="6.69" transform="translate(259.54 803.24) rotate(-83.34)"/>
              <rect class="cls-17" x="580.67" y="226.8" width="6.69" height="6.69" transform="translate(287.68 783.53) rotate(-83.34)"/>
              <rect class="cls-17" x="583.66" y="201.14" width="6.69" height="6.69" transform="translate(315.82 763.81) rotate(-83.34)"/>
              <rect class="cls-17" x="461.46" y="173.86" width="6.69" height="6.69" transform="translate(234.89 618.32) rotate(-83.34)"/>
              <rect class="cls-17" x="464.46" y="148.19" width="6.69" height="6.69" transform="translate(263.03 598.61) rotate(-83.34)"/>
              <rect class="cls-17" x="480.12" y="163.02" width="6.69" height="6.69" transform="translate(262.15 627.27) rotate(-83.34)"/>
              <rect class="cls-17" x="483.11" y="137.36" width="6.69" height="6.69" transform="translate(290.28 607.56) rotate(-83.34)"/>
              <rect class="cls-17" x="423.11" y="169.38" width="6.69" height="6.69" transform="translate(205.44 576.27) rotate(-83.34)"/>
              <rect class="cls-17" x="426.11" y="143.71" width="6.69" height="6.69" transform="translate(233.58 556.56) rotate(-83.34)"/>
              <rect class="cls-17" x="441.77" y="158.54" width="6.69" height="6.69" transform="translate(232.7 585.22) rotate(-83.34)"/>
              <rect class="cls-17" x="444.76" y="132.87" width="6.69" height="6.69" transform="translate(260.83 565.5) rotate(-83.34)"/>
              <rect class="cls-17" x="389.88" y="165.5" width="6.69" height="6.69" transform="translate(179.92 539.83) rotate(-83.34)"/>
              <rect class="cls-17" x="392.87" y="139.83" width="6.69" height="6.69" transform="translate(208.06 520.11) rotate(-83.34)"/>
              <rect class="cls-17" x="408.54" y="154.67" width="6.69" height="6.69" transform="translate(207.17 548.79) rotate(-83.34)"/>
              <rect class="cls-17" x="411.53" y="129" width="6.69" height="6.69" transform="translate(235.31 529.07) rotate(-83.34)"/>
              <rect class="cls-17" x="497.34" y="178.05" width="6.69" height="6.69" transform="translate(262.45 657.66) rotate(-83.34)"/>
              <rect class="cls-17" x="500.33" y="152.38" width="6.69" height="6.69" transform="translate(290.59 637.94) rotate(-83.34)"/>
              <rect class="cls-17" x="516" y="167.22" width="6.69" height="6.69" transform="translate(289.7 666.62) rotate(-83.34)"/>
              <rect class="cls-17" x="518.99" y="141.55" width="6.69" height="6.69" transform="translate(317.84 646.9) rotate(-83.34)"/>
              <rect class="cls-17" x="532.12" y="182.1" width="6.69" height="6.69" transform="translate(289.17 695.79) rotate(-83.34)"/>
              <rect class="cls-17" x="535.13" y="156.44" width="6.69" height="6.69" transform="translate(317.32 676.09) rotate(-83.34)"/>
              <rect class="cls-17" x="550.77" y="171.28" width="6.69" height="6.69" transform="translate(316.41 704.76) rotate(-83.34)"/>
              <rect class="cls-17" x="553.78" y="145.62" width="6.69" height="6.69" transform="translate(344.55 685.05) rotate(-83.34)"/>
              <rect class="cls-17" x="568" y="186.3" width="6.69" height="6.69" transform="translate(316.72 735.14) rotate(-83.34)"/>
              <rect class="cls-17" x="571" y="160.64" width="6.69" height="6.69" transform="translate(344.86 715.43) rotate(-83.34)"/>
              <rect class="cls-17" x="586.67" y="175.47" width="6.69" height="6.69" transform="translate(343.98 744.11) rotate(-83.34)"/>
              <rect class="cls-17" x="589.66" y="149.81" width="6.69" height="6.69" transform="translate(372.11 724.39) rotate(-83.34)"/>
            </g>
          </g>
        </g>
        <path d="m498.33,351.06c-.39,0-.74-.21-.94-.54l-.05-.09c-.31-.51-.15-1.18.36-1.5,0,0,.01,0,.02-.01.52-.31,1.19-.14,1.51.38l.05.09c.31.52.14,1.2-.38,1.51,0,0,0,0,0,0-.17.11-.37.16-.57.16Z"/>
        <path d="m500.31,337.93l-2,12.08h0c-.62-.39-21-12.76-51.19-23.34-14.34-5-23.76-7.27-23.76-7.27h1.81c5-.1,15.13-1.14,25.05-2.3.02-.06,34.34,10.73,50.09,20.83Z"/>
        <path d="m426.83,319.36c5.33-.11,14.83-2.42,23.27-3.41.15-.03.3-.03.45,0,1.41.44,34.6,10.95,50.33,21,.37.24.56.68.49,1.11l-1.95,12.07c-.08.53-.53.93-1.07.94-.21,0-.42-.07-.6-.18h0c-.2-.12-20.82-12.67-51-23.24-14.1-4.94-23.55-7.21-23.64-7.23-.08-.02-.16-.05-.24-.09l3.96-.97Zm3.73.79c4.16,1.2,10,3,16.94,5.43,17.32,6,34.06,13.56,50,22.61l1.58-9.76c-15.06-9.33-46-19.33-49-20.27-6.15.77-13.78,1.56-19.52,1.99Z"/>
        <path d="m498.35,351.07c-.46-.01-.85-.31-1-.74v-.1c-.19-.57.11-1.2.68-1.4.57-.2,1.19.09,1.39.66,0,0,0,.01,0,.02v.1c.19.57-.11,1.2-.68,1.4-.13.04-.26.06-.4.06Z"/>
        <path class="cls-17" d="m499.37,338.64l-1.73,9.85s-5.95-2.5-4.41-7.67,6.14-2.18,6.14-2.18Z"/>
        <path d="m447.5,325.58c17.31,6.03,34.04,13.6,50,22.62l1.58-9.76c-15.74-9.76-48.85-20.25-49.19-20.35-.58-.18-.9-.8-.72-1.38s.8-.9,1.38-.72c1.41.44,34.6,11,50.32,21,.37.23.57.67.5,1.1l-2,12.08c-.08.53-.54.92-1.08.92l.06-.02c-.2,0-.41-.05-.58-.16-.2-.13-20.81-12.68-51-23.26-14.12-4.94-23.56-7.21-23.66-7.23-.59-.15-.95-.74-.81-1.33l25.2,6.49Z"/>
        <path d="m473.43,31.47c-17,0-32.64,21.01-35.06,42.47-2.9,25.69,5.9,41.14,7.67,43.94,7.57-.42,20.63-16.49,23.09-23.86-2.89-2.21-5.22-8.45-5.05-14,.14-4.66,2-7.95,5.34-9.26,1.92-.86,4.12-.81,6,.13,3.24,1.71,4.83,5.85,5.38,7.66,25.43-.45,35.42-21.46,35.58-21.68.36-.48,1.04-.58,1.53-.22.14.1.25.24.32.39.18.35,4.32,8.74.3,22.76-.34,1.17-.59,2.36-.75,3.57,2.13-2.54,3.93-5.35,5.33-8.36,3.36-7.33,3.37-14.17,0-20.31-11.17-20.51-30.18-21.61-45.45-22.95l-2.42-.21c-.62-.06-1.21-.09-1.81-.09v.02Z"/>
        <path class="cls-19" d="m441.37,110.87c-2.65.27-5.33,0-7.87-.79-4.53-1.38-8.01-5.02-9.19-9.6-1.48-5.13-1.48-9.15-.63-12.3,2.62-9.68,13.28-11.13,13.28-11.13-1.21,15.4,1.68,26.82,4.41,33.82Z"/>
      </g>
      <g>
        <path class="cls-13" d="m344.15,396.16c-6-2.43-7.87-11.31-3.88-19.55s18.5-26.78,30.55-23.62c7.65,2,1,12-3.11,24.6-1.82,5.57-7.62,24.98-23.56,18.57Z"/>
        <path class="cls-13" d="m350.23,398.53c-2.23-.04-4.43-.5-6.49-1.37-2.67-1.12-4.74-3.33-5.69-6.06-1.68-4.34-1.22-9.94,1.23-15,4.11-8.5,19.12-27.54,31.82-24.2,1.59.31,2.95,1.31,3.73,2.73,1.65,3.25-.37,8.34-2.92,14.8-1.07,2.7-2.17,5.49-3.15,8.47l-.16.5c-1.49,4.56-5,15.24-12.79,18.89-1.75.82-3.65,1.24-5.58,1.24Zm17.75-44.82c-10.8,0-23.25,16.17-26.72,23.35-2.19,4.52-2.62,9.47-1.16,13.25.73,2.18,2.35,3.94,4.46,4.85h0c3.81,1.54,7.28,1.6,10.31.18,7-3.24,10.23-13.28,11.62-17.57l.17-.51c1-3,2.17-6,3.19-8.59,2.26-5.7,4.21-10.63,3-13-.51-.85-1.36-1.43-2.33-1.59-.83-.23-1.68-.36-2.54-.37Z"/>
      </g>
      <path d="m1538.71,147.07c-1.72-.88-3.55-1.71-5.55-2.5-9.16-3.62-16.3-7.58-21.44-9.79-4.87-2.1-8.74-3.61-8.74-3.61l.11.74c-1.15-7.3-2.46-19.37-.47-28.38.79-3.61,3.29-7.19,6-11,3-4.32,5-14.2-1.23-16.91-5.2-2.25-8.07,3.29-9.15,6.12,0,0-6.4-16.21-16.68-17.25-22.61-2.29-24.38-13.87-24.38-13.87,0,0-12.19,6.1-13.38,27-.31,7.99.6,15.98,2.69,23.7,4.21,12.15,9.69,18.81,15.3,22.14l.51.48s1.83,1.29,2.3,7.21c-9.82,3.29-12.93,5.77-30.9,10.92-1.36.4-2.65.83-3.85,1.3h0s9.61-17.13,6.68-49.73c-2.11-23.52-5.15-65.19,29.14-62.31,8.56-4.68,18.7-5.5,27.9-2.26,19.63,6.48,27,29.88,26.75,62.48-.22,29.98,15.29,49.32,18.39,55.52Z"/>
      <path d="m1538.71,148.16c-.17,0-.34-.04-.5-.12-1.69-.87-3.48-1.67-5.46-2.46-5.78-2.29-10.86-4.75-14.94-6.74-2.48-1.21-4.63-2.25-6.52-3.06-3.15-1.36-5.91-2.48-7.43-3.09-.16.16-.37.26-.6.29-.59.1-1.15-.3-1.25-.88,0,0,0-.02,0-.03-1.3-8.22-2.43-19.88-.47-28.78.84-3.81,3.39-7.48,6.09-11.38,2-2.83,3.39-8,2.36-11.67-.4-1.63-1.54-2.99-3.08-3.66-1.04-.53-2.27-.58-3.35-.14-2.26,1-3.69,3.94-4.34,5.64-.16.41-.56.69-1,.71h0c-.44-.01-.84-.29-1-.7-.06-.15-6.28-15.6-15.77-16.56-18.51-1.87-23.57-9.86-24.9-13.26-1.84,1.33-3.47,2.93-4.83,4.74-2.78,3.64-6.23,10.16-6.82,20.59-.3,7.88.6,15.75,2.66,23.36,3.66,10.56,8.65,17.82,14.79,21.46.07.04.14.09.19.15l.47.45c.52.41,2.23,2.19,2.69,7.95.04.5-.27.97-.75,1.13-3.54,1.19-6.21,2.27-9,3.42-7.14,2.95-14.46,5.46-21.91,7.52-1.33.38-2.59.81-3.77,1.26-.42.17-.9.05-1.21-.28-.3-.34-.37-.83-.17-1.24.14-.24,9.45-17.35,6.6-49.18-1.38-15.34-3.94-43.9,8.89-56.81,5.11-5.14,12.2-7.39,21.1-6.72,8.78-4.67,19.11-5.46,28.49-2.17,18.48,6.1,27.73,27.47,27.5,63.53-.16,24.87,10.67,42.5,15.87,51,1.07,1.74,1.91,3.11,2.44,4.17.27.55.03,1.22-.52,1.48-.15.07-.31.11-.48.11l-.07-.03Zm-34.74-17.79c1.27.5,4.45,1.78,8.19,3.39,1.93.83,4.1,1.88,6.61,3.1,4.26,2.07,9.08,4.42,14.79,6.68.84.33,1.65.67,2.44,1-.2-.31-.4-.65-.62-1-5.31-8.65-16.35-26.65-16.19-52.15.23-35-8.52-55.66-26-61.42-8.9-3.12-18.71-2.34-27,2.17-.19.1-.41.15-.63.13-8.37-.7-15,1.33-19.68,6.05-12.11,12.18-9.61,40.08-8.26,55.07,2.33,26-3.16,42.13-5.67,47.95l1.42-.43c7.38-2.04,14.62-4.53,21.69-7.45,2.64-1.07,5.13-2.08,8.34-3.18-.5-4.42-1.79-5.56-1.8-5.58-.03-.02-.06-.04-.09-.07l-.42-.4c-6.56-3.94-11.83-11.56-15.67-22.66-2.13-7.85-3.06-15.99-2.75-24.12,1.21-21.26,13.47-27.63,14-27.89.32-.16.68-.16,1,0,.31.16.53.46.58.81.59,2.17,1.82,4.12,3.53,5.59,2.87,2.73,8.65,6.22,19.87,7.35,8.51.86,14.35,11,16.58,15.68.95-1.99,2.53-3.61,4.5-4.61,1.64-.67,3.48-.61,5.08.15,2.15.94,3.74,2.81,4.32,5.08,1.27,4.45-.4,10.26-2.62,13.47-2.62,3.77-5,7.27-5.79,10.65-1.89,8.48-.75,19.83.25,26.65h0Z"/>
      <path d="m1538.72,148.16c-.42,0-.81-.23-1-.61-.49-1-1.31-2.3-2.35-4-5.31-8.64-16.36-26.64-16.19-52.14.22-35-8.52-55.66-26-61.42-18-5.94-30.29,4.28-30.41,4.39-.45.41-1.14.38-1.55-.07-.41-.45-.38-1.14.07-1.55.02-.02.04-.03.06-.05.54-.46,13.32-11.15,32.53-4.81,18.48,6.1,27.73,27.47,27.5,63.53-.16,24.86,10.66,42.5,15.87,51,1.06,1.74,1.91,3.11,2.43,4.17.28.53.07,1.19-.47,1.47,0,0-.01,0-.02.01-.15.06-.3.09-.46.08Z"/>
      <path d="m1429.82,144.33c-.19,0-.37-.05-.53-.14-.53-.3-.72-.97-.43-1.5,1.95-3.96,3.42-8.15,4.36-12.47,1.82-7.53,3.69-20,2.19-36.62-1.37-15.35-3.94-43.91,8.9-56.82,5.17-5.2,12.37-7.45,21.42-6.69.61.02,1.08.53,1.06,1.14s-.53,1.08-1.14,1.06c-.04,0-.07,0-.11,0-8.37-.7-15,1.33-19.68,6-12.11,12.18-9.61,40.08-8.26,55.07,2.92,32.56-6.43,49.66-6.83,50.37-.18.37-.55.6-.96.61Z"/>
      <path class="cls-16" d="m1538,313.16h0c-65.3,21.62-111.4-2.64-112.75-3.36h0c5.4-17.3,8.39-27.7,8.79-34.13,1.18.72,2.51,1.16,3.89,1.27l84.48,6.75h.23c1.19.18,3.23.15,4-.52,3.42-2.81,6.72-.71,7.47,1.17h0c.38,9.71,1.68,19.36,3.89,28.82Z"/>
      <path class="cls-16" d="m1484.07,323.16c-35.37,0-57.93-11.68-59.34-12.43-.17-.07-.31-.19-.42-.34-.21-.29-.27-.66-.16-1,5.49-17.58,8.35-27.65,8.75-33.87.02-.39.25-.73.59-.91.34-.19.74-.19,1.08,0,1.03.64,2.19,1.02,3.4,1.11l84.48,6.76h.3c1.07.21,2.17.11,3.19-.28,1.5-1.36,3.56-1.89,5.53-1.44,1.62.4,2.97,1.53,3.65,3.06.05.13.08.26.08.4.4,9.63,1.69,19.2,3.87,28.59.08.33,0,.68-.21.94-.16.2-.38.33-.62.39-17.46,5.89-35.75,8.93-54.17,9.02Zm-57.54-14c6.47,3.21,50,22.78,110.18,3.2-2.06-9.15-3.3-18.47-3.71-27.85-.45-.79-1.2-1.36-2.08-1.58-1.29-.28-2.63.1-3.59,1-1.34,1.1-4.05.86-4.74.78h0c-.12,0-.23,0-.35,0l-84.44-6.74c-.98-.08-1.94-.3-2.85-.66-.74,6.4-3.54,16.09-8.42,31.85Z"/>
      <path class="cls-16" d="m1563.62,291.35c-7.13-.6-18-5.27-18-5.27,2.67-1.43,6-12,3.23-20.51-2.48-7.59-7.43-7.85-7.43-7.85.25-.6.55-1.18.89-1.73-2.91-5.65-5.43-11.5-7.53-17.5l1.7-21.21c.38-4.81-3.19-9.03-8-9.44l-84.49-6.76c-4.83-.39-9.06,3.22-9.45,8.05l-3.15,39.38c0-.91-4.75-3.91-9.31-10-.27.73-12.87,34.7-35.79,39.44-23.17,4.79-19.65-14-22.36-21.81s-1.35-36,2.71-52.25c2.36-9.44,5-23.87,6.8-36.92l.61.56s8.11,7.07,24.49,0c.06,2.45.22,4.92.36,7.48.34,6.27.62,12.08.85,17.41l.29-.46s8.26-22.4,11-29.52,7.55-16.11,22.65-20.44c11.9-3.42,17.68-4.76,22.81-6.83h0c-.53,3.81-4.14,37.95,18.08,42.24,29.24,5.61,39.72-32.12,36.82-41.87,5.14,2.21,12.66,5.37,21.81,9,20.79,8.23,25.61,20.79,30.9,42.5,6.53,26.75,10.06,38.78,13.61,50.67,5.31,18.02,17.55,56.29-14.1,53.64Z"/>
      <path class="cls-16" d="m1566.6,292.58c-1,0-2-.05-3.07-.14h0c-7.23-.6-17.89-5.16-18.34-5.35-.56-.23-.83-.87-.6-1.43.1-.25.29-.45.52-.57,1.87-1,5.42-10.89,2.7-19.2-2.19-6.69-6.29-7.08-6.46-7.09-.36-.02-.68-.22-.86-.53-.19-.3-.22-.67-.09-1,.2-.46.42-.91.65-1.33-2.81-5.53-5.25-11.25-7.31-17.1-.04-.15-.04-.31,0-.46l1.67-21.22c.33-4.21-2.8-7.89-7-8.26l-84.56-6.74c-4.23-.33-7.92,2.83-8.26,7.05l-3.18,39.38c-.06.58-.56,1.01-1.14,1-.48-.03-.89-.38-1-.85-.53-.58-1.09-1.13-1.68-1.64-2.25-1.97-4.33-4.12-6.24-6.42-3.17,7.75-15.35,34.08-35.89,38.33-7.06,1.46-12.26.92-15.91-1.64-4.93-3.47-5.85-10-6.59-15.18-.2-1.93-.57-3.84-1.12-5.71-2.8-8.08-1.35-36.74,2.69-52.87,2.31-9.25,5-23.7,6.77-36.81.05-.41.33-.75.72-.89.39-.14.82-.05,1.12.23l.6.56h0c1.71,1.23,3.68,2.06,5.75,2.42,3.53.73,9.46.88,17.56-2.62.56-.24,1.21.01,1.45.57.06.14.09.28.09.43,0,2,.16,3.94.28,6l.08,1.43c.23,4.22.44,8.33.62,12.27,2.55-6.9,7.43-20.05,9.41-25.18,3.1-8,8.31-16.78,23.37-21.1,3.47-1,6.42-1.82,9-2.53,4.65-1.17,9.23-2.59,13.72-4.26.56-.23,1.2.05,1.43.61.09.23.1.48.04.71-.28,2.16-4.32,36.74,17.21,40.9,9.68,1.86,18-1,24.73-8.4,9.51-10.5,12.42-26.73,10.83-32.08-.12-.41,0-.85.32-1.13.32-.28.78-.36,1.17-.19,7,3,14.3,6,21.78,9,21.69,8.6,26.39,22.08,31.56,43.27,6.29,25.76,9.74,37.69,13.59,50.62l.41,1.36c4.14,13.82,11.07,37,2.21,47.88-3.2,3.92-8.15,5.9-14.75,5.9Zm-2.89-2.33c7.39.62,12.74-1,15.91-5,8.13-10,1.41-32.45-2.61-45.86l-.4-1.36c-3.87-13-7.32-24.92-13.62-50.72-5.47-22.4-10.24-33.82-30.24-41.75-6.82-2.7-13.52-5.46-19.95-8.2.8,7.55-2.92,22.34-11.71,32-7.18,7.92-16.44,11.06-26.78,9.08-9.67-1.87-16.05-9.54-18.44-22.17-1.11-6.44-1.35-13-.72-19.51-3.26,1.19-7,2.23-12.23,3.68-2.56.71-5.5,1.53-9,2.52-14.13,4.06-19,12.28-21.92,19.79-2.72,7-10.92,29.28-11,29.5-.03.07-.07.14-.11.21l-.29.46c-.26.4-.75.59-1.21.47-.46-.12-.79-.53-.81-1-.24-5.45-.53-11.3-.86-17.39l-.08-1.42c-.09-1.55-.17-3-.23-4.5-13,5.1-20.68,1.51-23.23-.12-1.8,12.66-4.33,26.26-6.55,35.13-4,15.84-5.45,43.82-2.74,51.62.6,2,1,4.05,1.22,6.12.72,5,1.53,10.77,5.68,13.69,3.12,2.19,7.77,2.62,14.2,1.29,22-4.55,34.46-37.35,35-38.74.21-.57.84-.87,1.41-.66.2.07.37.2.5.37,2.13,2.78,4.53,5.34,7.16,7.65l.38.35,3-36.8c.45-5.43,5.2-9.48,10.63-9.06l84.49,6.76c5.43.44,9.49,5.2,9.06,10.63l-1.68,21c2.07,5.87,4.53,11.6,7.38,17.14.19.33.19.75,0,1.08l-.24.41c1.89.68,5.06,2.63,6.9,8.26,2.44,7.44.51,16.77-2.29,20.47,3.22,1.28,10.8,4.11,16.1,4.55l-.08.03Z"/>
      <g class="cls-2">
        <g class="cls-7">
          <g>
            <path class="cls-17" d="m1523.47,300.43l-12.4,10.13,10.13,12.4,12.4-10.12-10.13-12.41Zm-9.63,10.41l9.35-7.64,7.64,9.36-9.35,7.64-7.64-9.36Z"/>
            <path class="cls-17" d="m1532.49,270.51l-12.41,10.13,10.13,12.4,12.4-10.13-10.12-12.4Zm-9.89,10.65l9.36-7.64,7.64,9.36-9.36,7.64-7.64-9.36Z"/>
            <polygon class="cls-17" points="1540.26 311.1 1537.32 310.98 1514.67 283.24 1517.71 283.48 1540.26 311.1"/>
            <polygon class="cls-17" points="1523.71 291.32 1525.1 293.02 1515.2 301.11 1512.29 300.64 1523.71 291.32"/>
            <polygon class="cls-17" points="1531 300.97 1529.6 299.27 1539.51 291.18 1542.42 291.65 1531 300.97"/>
            <rect class="cls-17" x="1536.55" y="297.24" width="13.81" height="2.2" transform="translate(159.19 1043.38) rotate(-39.23)"/>
            <rect class="cls-17" x="1546.99" y="306.55" width="13.81" height="2.2" transform="translate(155.66 1052.08) rotate(-39.23)"/>
            <rect class="cls-17" x="1541.53" y="299.61" width="2.2" height="13.81" transform="translate(153.84 1044.7) rotate(-39.23)"/>
            <rect class="cls-17" x="1553.62" y="292.57" width="2.2" height="13.81" transform="translate(161.01 1050.76) rotate(-39.23)"/>
            <rect class="cls-17" x="1493.18" y="285.09" width="13.81" height="2.2" transform="translate(157.1 1013.21) rotate(-39.23)"/>
            <rect class="cls-17" x="1503.62" y="294.39" width="13.81" height="2.2" transform="translate(153.57 1021.91) rotate(-39.23)"/>
            <rect class="cls-17" x="1498.16" y="287.45" width="2.2" height="13.81" transform="translate(151.75 1014.53) rotate(-39.23)"/>
            <rect class="cls-17" x="1510.25" y="280.42" width="2.2" height="13.81" transform="translate(158.92 1020.59) rotate(-39.23)"/>
            <path class="cls-17" d="m1437.24,315.39l-12.4,10.13,10.13,12.41,12.4-10.13-10.13-12.41Zm-9.63,10.41l9.35-7.64,7.64,9.36-9.35,7.64-7.64-9.36Z"/>
            <path class="cls-17" d="m1446.26,285.47l-12.41,10.13,10.13,12.4,12.4-10.13-10.12-12.4Zm-9.64,10.41l9.36-7.64,7.64,9.36-9.36,7.63-7.64-9.35Z"/>
            <polygon class="cls-17" points="1454.03 326.07 1451.09 325.94 1428.44 298.2 1431.48 298.44 1454.03 326.07"/>
            <polygon class="cls-17" points="1437.48 306.28 1438.87 307.99 1428.97 316.07 1426.06 315.6 1437.48 306.28"/>
            <polygon class="cls-17" points="1444.77 315.94 1443.37 314.23 1453.28 306.14 1456.19 306.61 1444.77 315.94"/>
            <rect class="cls-17" x="1450.32" y="312.2" width="13.81" height="2.2" transform="translate(130.3 992.21) rotate(-39.23)"/>
            <rect class="cls-17" x="1452.66" y="322.88" width="13.74" height="2.19" transform="translate(124.76 997.46) rotate(-39.29)"/>
            <rect class="cls-17" x="1455.3" y="314.56" width="2.2" height="13.81" transform="translate(124.95 993.53) rotate(-39.23)"/>
            <rect class="cls-17" x="1467.38" y="307.54" width="2.2" height="13.81" transform="translate(132.11 999.59) rotate(-39.23)"/>
            <rect class="cls-17" x="1406.95" y="300.05" width="13.81" height="2.2" transform="translate(128.2 962.05) rotate(-39.23)"/>
            <rect class="cls-17" x="1417.39" y="309.35" width="13.81" height="2.2" transform="translate(124.68 970.75) rotate(-39.23)"/>
            <rect class="cls-17" x="1411.93" y="302.42" width="2.2" height="13.81" transform="translate(122.85 963.36) rotate(-39.23)"/>
            <rect class="cls-17" x="1424.02" y="295.38" width="2.2" height="13.81" transform="translate(130.02 969.43) rotate(-39.23)"/>
          </g>
        </g>
        <g class="cls-6">
          <g>
            <path class="cls-17" d="m1473.41,209.84l-12.41,10.13,10.13,12.41,12.4-10.13-10.12-12.41Zm-9.64,10.76l9.36-7.64,7.64,9.36-9.36,7.64-7.64-9.36Z"/>
            <path class="cls-17" d="m1482.41,179.92l-12.4,10.13,10.12,12.4,12.41-10.12-10.13-12.41Zm-9.64,10.41l9.36-7.64,7.64,9.36-9.36,7.64-7.64-9.36Z"/>
            <polygon class="cls-17" points="1490.2 220.52 1487.25 220.39 1464.6 192.66 1467.64 192.89 1490.2 220.52"/>
            <polygon class="cls-17" points="1473.64 200.73 1475.04 202.44 1465.13 210.52 1462.22 210.05 1473.64 200.73"/>
            <polygon class="cls-17" points="1480.93 210.39 1479.54 208.68 1489.44 200.59 1492.35 201.06 1480.93 210.39"/>
            <rect class="cls-17" x="1486.48" y="206.66" width="13.81" height="2.2" transform="translate(205.2 991.3) rotate(-39.23)"/>
            <rect class="cls-17" x="1496.91" y="215.96" width="13.81" height="2.2" transform="translate(201.66 999.99) rotate(-39.23)"/>
            <rect class="cls-17" x="1491.45" y="209.01" width="2.2" height="13.81" transform="translate(199.85 992.61) rotate(-39.23)"/>
            <rect class="cls-17" x="1503.54" y="201.99" width="2.2" height="13.81" transform="translate(207.01 998.67) rotate(-39.23)"/>
            <rect class="cls-17" x="1443.12" y="194.5" width="13.81" height="2.2" transform="translate(203.11 961.13) rotate(-39.23)"/>
            <rect class="cls-17" x="1453.56" y="203.8" width="13.81" height="2.2" transform="translate(199.58 969.83) rotate(-39.23)"/>
            <rect class="cls-17" x="1448.1" y="196.86" width="2.2" height="13.81" transform="translate(197.76 962.45) rotate(-39.23)"/>
            <rect class="cls-17" x="1460.19" y="189.83" width="2.2" height="13.81" transform="translate(204.93 968.51) rotate(-39.23)"/>
            <path class="cls-17" d="m1376.62,263.41l-2.21,15.87,15.86,2.17,2.18-15.86-15.83-2.18Zm12,16.22l-12-1.64,1.65-12,12,1.65-1.65,11.99Z"/>
            <path class="cls-17" d="m1362.83,235.37l-2.18,15.87,15.87,2.17,2.17-15.86-15.86-2.18Zm11.93,15.79l-12-1.65,1.64-12,12,1.64-1.64,12.01Z"/>
            <polygon class="cls-17" points="1396.19 259.78 1393.95 261.7 1358.47 256.83 1360.85 254.94 1396.19 259.78"/>
            <polygon class="cls-17" points="1370.59 256.58 1372.77 256.88 1371.03 269.55 1368.58 271.19 1370.59 256.58"/>
            <polygon class="cls-17" points="1382.5 258.68 1380.32 258.39 1382.06 245.72 1384.51 244.08 1382.5 258.68"/>
            <rect class="cls-17" x="1382.86" y="247.15" width="13.81" height="2.2" transform="translate(954.97 1591.39) rotate(-82.19)"/>
            <rect class="cls-17" x="1396.85" y="246.85" width="13.81" height="2.2" transform="translate(967.35 1604.99) rotate(-82.19)"/>
            <rect class="cls-17" x="1393.64" y="247.88" width="2.2" height="13.81" transform="translate(952.79 1601.96) rotate(-82.19)"/>
            <rect class="cls-17" x="1397.69" y="234.5" width="2.2" height="13.81" transform="translate(969.55 1594.41) rotate(-82.19)"/>
            <rect class="cls-17" x="1342.84" y="267.81" width="13.81" height="2.2" transform="translate(899.92 1569.59) rotate(-82.19)"/>
            <rect class="cls-17" x="1356.83" y="267.5" width="13.81" height="2.2" transform="translate(912.31 1583.18) rotate(-82.19)"/>
            <rect class="cls-17" x="1353.62" y="268.54" width="2.2" height="13.81" transform="translate(897.74 1580.17) rotate(-82.19)"/>
            <rect class="cls-17" x="1357.67" y="255.16" width="2.2" height="13.81" transform="translate(914.5 1572.62) rotate(-82.19)"/>
            <path class="cls-17" d="m1364.9,200.62l-1.21,16,16,1.22,1.22-16-16.01-1.22Zm12.94,15.08l-12-.92.91-12,12,.91-.91,12.01Z"/>
            <path class="cls-17" d="m1349.41,173.47l-1.22,16,16,1.22,1.21-16-15.99-1.22Zm13,15.07l-12-.92.92-12,12,.91-.92,12.01Z"/>
            <polygon class="cls-17" points="1384.21 195.82 1382.09 197.87 1346.38 195.15 1348.65 193.12 1384.21 195.82"/>
            <polygon class="cls-17" points="1358.46 194.17 1360.66 194.34 1359.69 207.09 1357.34 208.87 1358.46 194.17"/>
            <polygon class="cls-17" points="1370.48 195.55 1368.29 195.38 1369.26 182.63 1371.6 180.85 1370.48 195.55"/>
            <rect class="cls-17" x="1370.29" y="183.62" width="13.81" height="2.2" transform="translate(1088.55 1543.93) rotate(-85.65)"/>
            <rect class="cls-17" x="1384.23" y="182.47" width="13.81" height="2.2" transform="translate(1102.57 1556.77) rotate(-85.65)"/>
            <rect class="cls-17" x="1381.43" y="184.05" width="2.2" height="13.81" transform="translate(1087.27 1555.02) rotate(-85.65)"/>
            <rect class="cls-17" x="1391.57" y="167.78" width="2.21" height="13.85" transform="translate(1107.47 1549.01) rotate(-85.43)"/>
            <rect class="cls-17" x="1331.58" y="206.66" width="13.81" height="2.2" transform="translate(1029.8 1526.64) rotate(-85.65)"/>
            <rect class="cls-17" x="1345.53" y="205.52" width="13.81" height="2.2" transform="translate(1043.83 1539.48) rotate(-85.65)"/>
            <rect class="cls-17" x="1342.74" y="207.09" width="2.2" height="13.81" transform="translate(1028.53 1537.74) rotate(-85.65)"/>
            <rect class="cls-17" x="1345.98" y="193.48" width="2.2" height="13.81" transform="translate(1045.1 1528.38) rotate(-85.65)"/>
            <path class="cls-17" d="m1576.57,227.4l-9.27,13.06,13.06,9.26,9.27-13.05-13.06-9.27Zm3.32,19.58l-9.85-7,7-9.85,9.85,7-7,9.85Z"/>
            <path class="cls-17" d="m1577.32,196.16l-9.27,13.05,13,9.27,9.27-13.05-13-9.27Zm3.32,19.58l-9.85-7,7-9.85,9.85,7-7,9.85Z"/>
            <polygon class="cls-17" points="1595.59 233.23 1592.72 233.89 1563.52 213.16 1566.51 212.59 1595.59 233.23"/>
            <polygon class="cls-17" points="1574.38 218.55 1576.18 219.82 1568.77 230.25 1565.84 230.57 1574.38 218.55"/>
            <polygon class="cls-17" points="1583.97 225.92 1582.17 224.65 1589.58 214.22 1592.51 213.9 1583.97 225.92"/>
            <rect class="cls-17" x="1588.34" y="218.94" width="13.81" height="2.2" transform="translate(492.4 1393.48) rotate(-54.63)"/>
            <rect class="cls-17" x="1600.87" y="225.13" width="13.81" height="2.2" transform="translate(492.63 1406.31) rotate(-54.63)"/>
            <rect class="cls-17" x="1599.2" y="214.2" width="2.21" height="13.87" transform="translate(495.64 1399.95) rotate(-54.73)"/>
            <rect class="cls-17" x="1608.96" y="204.17" width="2.21" height="13.87" transform="translate(507.96 1403.68) rotate(-54.73)"/>
            <rect class="cls-17" x="1543.3" y="218.73" width="13.81" height="2.2" transform="translate(473.61 1356.67) rotate(-54.63)"/>
            <rect class="cls-17" x="1555.84" y="224.94" width="13.81" height="2.2" transform="translate(473.82 1369.51) rotate(-54.63)"/>
            <rect class="cls-17" x="1550.48" y="221.03" width="2.2" height="13.81" transform="translate(467.58 1361.2) rotate(-54.63)"/>
            <rect class="cls-17" x="1560.28" y="211.04" width="2.2" height="13.81" transform="translate(479.85 1364.99) rotate(-54.63)"/>
            <path class="cls-17" d="m1562.92,299.72l-.09,16,16,.1.1-16-16.01-.1Zm14,14.09h-12.08v-12.07h12.08v12.07Z"/>
            <path class="cls-17" d="m1588.93,282.4l-.09,16,16,.1.1-16-16.01-.1Zm14,14.09h-12.08v-12.08h12.08v12.08Z"/>
            <polygon class="cls-17" points="1585.08 318.74 1582.89 316.77 1583.1 280.96 1585.29 283.08 1585.08 318.74"/>
            <polygon class="cls-17" points="1584.93 292.94 1584.91 295.14 1572.12 295.06 1570.18 292.85 1584.93 292.94"/>
            <polygon class="cls-17" points="1584.39 305.03 1584.4 302.82 1597.19 302.9 1599.13 305.12 1584.39 305.03"/>
            <rect class="cls-17" x="1594.67" y="304.04" width="2.2" height="13.81" transform="translate(1275.08 1904.79) rotate(-89.65)"/>
            <rect class="cls-17" x="1596.79" y="317.86" width="2.2" height="13.81" transform="translate(1263.37 1920.65) rotate(-89.65)"/>
            <rect class="cls-17" x="1583.02" y="315.61" width="13.81" height="2.2" transform="translate(1263.5 1904.67) rotate(-89.65)"/>
            <rect class="cls-17" x="1596.82" y="317.91" width="13.81" height="2.2" transform="translate(1274.93 1920.75) rotate(-89.65)"/>
            <rect class="cls-17" x="1568.99" y="267.04" width="2.2" height="13.81" transform="translate(1286.55 1842.33) rotate(-89.65)"/>
            <rect class="cls-17" x="1571.11" y="280.87" width="2.2" height="13.81" transform="translate(1274.84 1858.19) rotate(-89.65)"/>
            <rect class="cls-17" x="1557.34" y="278.63" width="13.81" height="2.2" transform="translate(1274.97 1842.23) rotate(-89.65)"/>
            <rect class="cls-17" x="1571.14" y="280.9" width="13.81" height="2.2" transform="translate(1286.41 1858.3) rotate(-89.65)"/>
            <path class="cls-17" d="m1521.11,165.92l-12.41,10.13,10.13,12.4,12.4-10.13-10.12-12.4Zm-9.64,10.41l9.36-7.64,7.64,9.35-9.36,7.64-7.64-9.35Z"/>
            <path class="cls-17" d="m1530.12,136l-12.4,10.16,10.12,12.41,12.41-10.13-10.13-12.44Zm-9.64,10.4l9.36-7.63,7.64,9.35-9.36,7.64-7.64-9.36Z"/>
            <polygon class="cls-17" points="1537.9 176.59 1534.95 176.47 1512.31 148.73 1515.34 148.97 1537.9 176.59"/>
            <polygon class="cls-17" points="1521.34 156.81 1522.74 158.51 1512.83 166.6 1509.92 166.13 1521.34 156.81"/>
            <polygon class="cls-17" points="1528.63 166.46 1527.24 164.76 1537.14 156.67 1540.05 157.14 1528.63 166.46"/>
            <rect class="cls-17" x="1534.18" y="162.72" width="13.81" height="2.2" transform="translate(243.73 1011.56) rotate(-39.23)"/>
            <rect class="cls-17" x="1544.61" y="172.03" width="13.81" height="2.2" transform="translate(240.2 1020.26) rotate(-39.23)"/>
            <rect class="cls-17" x="1539.16" y="165.09" width="2.2" height="13.81" transform="translate(238.38 1012.88) rotate(-39.23)"/>
            <rect class="cls-17" x="1551.25" y="158.06" width="2.2" height="13.81" transform="translate(245.55 1018.94) rotate(-39.23)"/>
            <rect class="cls-17" x="1490.82" y="150.57" width="13.81" height="2.2" transform="translate(241.64 981.4) rotate(-39.23)"/>
            <rect class="cls-17" x="1493.38" y="162.11" width="13.74" height="2.19" transform="translate(235.77 986.9) rotate(-39.29)"/>
            <rect class="cls-17" x="1495.8" y="152.94" width="2.2" height="13.81" transform="translate(236.29 982.72) rotate(-39.23)"/>
            <rect class="cls-17" x="1507.89" y="145.91" width="2.2" height="13.81" transform="translate(243.46 988.78) rotate(-39.23)"/>
            <path class="cls-17" d="m1414.74,150.96l-12.41,10.13,10.13,12.4,12.4-10.13-10.12-12.4Zm-9.64,10.75l9.36-7.63,7.63,9.35-9.35,7.64-7.64-9.36Z"/>
            <path class="cls-17" d="m1423.75,121.04l-12.41,10.12,10.13,12.41,12.41-10.13-10.13-12.4Zm-9.64,10.4l9.36-7.64,7.64,9.36-9.36,7.64-7.64-9.36Z"/>
            <polygon class="cls-17" points="1431.53 161.63 1428.58 161.51 1405.93 133.77 1408.97 134.01 1431.53 161.63"/>
            <polygon class="cls-17" points="1414.97 141.84 1416.36 143.55 1406.46 151.64 1403.55 151.17 1414.97 141.84"/>
            <polygon class="cls-17" points="1422.26 151.5 1420.87 149.8 1430.77 141.71 1433.68 142.18 1422.26 151.5"/>
            <rect class="cls-17" x="1427.8" y="147.77" width="13.81" height="2.2" transform="translate(229.22 940.91) rotate(-39.23)"/>
            <rect class="cls-17" x="1438.25" y="157.08" width="13.81" height="2.2" transform="translate(225.68 949.62) rotate(-39.23)"/>
            <rect class="cls-17" x="1432.79" y="150.14" width="2.2" height="13.81" transform="translate(223.86 942.24) rotate(-39.23)"/>
            <rect class="cls-17" x="1444.88" y="143.1" width="2.2" height="13.81" transform="translate(231.03 948.3) rotate(-39.23)"/>
            <rect class="cls-17" x="1384.44" y="135.61" width="13.81" height="2.2" transform="translate(227.13 910.75) rotate(-39.23)"/>
            <rect class="cls-17" x="1394.89" y="144.92" width="13.81" height="2.2" transform="translate(223.6 919.45) rotate(-39.23)"/>
            <rect class="cls-17" x="1389.42" y="137.97" width="2.2" height="13.81" transform="translate(221.78 912.07) rotate(-39.23)"/>
            <rect class="cls-17" x="1401.52" y="130.94" width="2.2" height="13.81" transform="translate(228.95 918.13) rotate(-39.23)"/>
          </g>
        </g>
      </g>
      <path class="cls-18" d="m1591.9,461.68c.01,2.7.9,5.33,2.52,7.49h-66c-5.07,0-9.22-3.37-9.22-7.5.05-2.08,1.05-4.02,2.71-5.28,1.85-1.46,4.15-2.24,6.51-2.21h66c-1.62,2.16-2.51,4.79-2.52,7.5Z"/>
      <path class="cls-18" d="m1594.41,470.88h-66c-5.69,0-10.32-3.86-10.32-8.6.05-2.42,1.2-4.68,3.12-6.14,2.05-1.62,4.59-2.48,7.2-2.45h66c.42,0,.81.23,1,.6.19.37.15.82-.1,1.15-3.07,4.04-3.07,9.64,0,13.68.36.49.27,1.18-.22,1.54-.19.14-.42.22-.66.22h-.02Zm-66-15c-2.11-.02-4.16.69-5.81,2-1.41,1.05-2.26,2.68-2.31,4.43,0,3.53,3.64,6.4,8.12,6.4h64c-2.17-3.99-2.17-8.8,0-12.79l-64-.04Z"/>
      <path class="cls-18" d="m1583.9,441.63c0,2.72.88,5.36,2.51,7.53h-66c-5.07,0-9.22-3.38-9.22-7.5.05-2.08,1.05-4.03,2.71-5.29,1.86-1.45,4.15-2.23,6.51-2.21h66c-1.62,2.16-2.5,4.78-2.51,7.47Z"/>
      <path class="cls-18" d="m1586.41,450.23h-66c-5.69,0-10.32-3.86-10.32-8.6.04-2.42,1.19-4.68,3.12-6.14,2.05-1.62,4.59-2.48,7.2-2.45h66c.6,0,1.1.48,1.1,1.08,0,.24-.08.48-.22.67-3.07,4.04-3.07,9.64,0,13.68.36.49.27,1.18-.22,1.54-.19.14-.42.22-.66.22Zm-66-15c-2.11-.02-4.16.68-5.81,2-1.41,1.05-2.26,2.68-2.31,4.43,0,3.53,3.64,6.4,8.12,6.4h64c-2.17-3.99-2.17-8.8,0-12.79l-64-.04Z"/>
      <path class="cls-18" d="m1598.62,422.27c.02,2.7.9,5.33,2.52,7.49h-66c-5.07,0-9.22-3.37-9.22-7.5.06-2.08,1.05-4.02,2.71-5.28,1.85-1.46,4.15-2.24,6.51-2.21h66c-1.62,2.17-2.5,4.79-2.52,7.5Z"/>
      <path class="cls-18" d="m1601.14,430.87h-66c-5.69,0-10.32-3.86-10.32-8.6.05-2.42,1.2-4.68,3.12-6.14,2.05-1.62,4.59-2.48,7.2-2.45h66c.42,0,.81.23,1,.6.19.37.15.81-.09,1.15-3.08,4.04-3.08,9.64,0,13.68.13.19.21.42.21.65,0,.61-.5,1.11-1.11,1.11,0,0,0,0-.01,0Zm-66-15c-2.11-.02-4.16.69-5.81,2-1.41,1.05-2.26,2.68-2.31,4.43,0,3.53,3.65,6.4,8.12,6.4h64c-2.17-3.99-2.17-8.8,0-12.79l-64-.04Z"/>
      <path class="cls-20" d="m1042.24,354.16c-.56.05-1.15.13-1.77.24-9.56,1.75-24.65,10.22-24.65,10.22-3-5.87-28.4-70.93-28.8-71.95,2.08,14.79,6.51,35.75,8.38,43.89,2.17,9.4-2.16,12.88-2.16,12.88h-140.29s-.64-1.57.88-8.35.24-14.45-2.77-26.64c-1.49-6-13.36-91.75-16.28-127.86h0c-5.38-14.73-8.64-25.6-9-28.22-3.48-25.08,17.36-36.2,36.52-43s31-16.81,31-16.81l.25-.15c1.87-11.61,14.2-12.72,14.64-12.76h0l-3.84,9.75c7.25,17.45,26.8,30.37,26.8,30.37,0,1.72-.89,11.84,3,15.58,3.7,3.55,5.77,5.81,7.79,11.34,0,0,1.76-15.07,5.85-24.22-.21-.62,9.68-9.37,10.12-14.12,2.55,1.39,5.35,2.27,8.24,2.58,1.19.16,2.4.07,3.56-.25,4.75,3.34,22.35,16.3,26.36,27.37,4.63,12.82,4.89,51.53,6.73,68h0c1.8,6.21,5,16.4,8.45,23.24.67,1.35,1.43,2.65,2.27,3.9l-6.09,3.38s11,31.31,24.64,86.4c1.6-.55,2.6-.87,2.6-.87l7.57,26.06Z"/>
      <path class="cls-20" d="m1015.82,365.67c-.11.02-.21.02-.32,0-.28-.08-.52-.28-.66-.54-2.35-4.57-17.9-44.09-25.14-62.59,2.14,12.42,5.07,26.37,6.77,33.78,2.3,9.95-2.35,13.82-2.55,14-.19.15-.43.24-.68.24h-140.29c-.44,0-.84-.28-1-.69-.18-.44-.65-2.4.82-9s.17-14.3-2.76-26.14c-1.58-6.4-13.42-92.5-16.29-127.9-5.13-14-8.61-25.39-9-28.3-3.68-26.48,19.49-37.88,37.24-44.15,11.02-3.83,21.34-9.44,30.56-16.59,2.27-12,15-13.15,15.56-13.19.39-.05.77.12,1,.44.22.31.28.71.14,1.06l-3.67,9.33c7.17,16.72,26,29.33,26.22,29.46.31.2.49.55.49.92v.92c-.1,2.69-.4,10.89,2.69,13.86,2.74,2.64,4.73,4.67,6.48,8.1.8-5.08,2.49-14,5.29-20.4.1-.58.75-1.28,2.41-3.07,2.6-2.8,7.44-8,7.71-10.93.04-.36.25-.68.57-.86.31-.16.69-.16,1,0,2.43,1.32,5.09,2.15,7.83,2.46,1.05.14,2.11.07,3.13-.21.34-.12.71-.06,1,.15,5.25,3.69,22.68,16.61,26.76,27.89,3.18,8.79,4.3,28.95,5.29,46.74.47,8.29.9,16.11,1.5,21.45,1.64,5.67,4.89,16.09,8.34,22.94.64,1.31,1.38,2.57,2.2,3.78.17.26.23.57.16.87-.07.31-.26.57-.54.72l-5.28,2.92c1.86,5.43,12,35.66,24.08,84.46l1.49-.49c.28-.09.59-.06.85.08.26.14.45.38.54.66l7.63,26c.09.31.03.65-.15.92-.18.28-.48.45-.81.48-.56.05-1.12.13-1.67.23-9.27,1.69-24.16,10-24.31,10.1-.2.09-.42.12-.63.09Zm-28.8-74.15c.44.01.84.29,1,.7.24.63,23.66,60.7,28.26,70.83,3.6-2,15.68-8.27,24-9.78l.55-.09-7-23.7-1.5.51c-.57.2-1.19-.1-1.39-.67-.01-.03-.02-.07-.03-.1-13.42-54.42-24.51-86-24.62-86.31-.17-.51.04-1.07.51-1.33l5-2.79c-.55-.89-1.12-1.91-1.68-3-3.38-6.7-6.5-16.43-8.53-23.42-.01-.1-.01-.21,0-.31-.6-5.31-1-13.18-1.5-21.53-1-17.63-2.1-37.62-5.17-46.11-3.82-10.58-21.09-23.38-25.53-26.55-1.14.24-2.31.29-3.46.16-2.56-.27-5.06-.97-7.38-2.08-1.09,3.15-4.49,7-8,10.73-.75.82-1.6,1.73-1.86,2.08,0,.05,0,.11,0,.16-4,8.89-5.75,23.75-5.76,23.9-.05.53-.47.95-1,1-.51.06-.99-.23-1.16-.71-2-5.45-4.05-7.6-7.52-10.93-3.8-3.66-3.48-12.29-3.35-15.53,0-.09,0-.18,0-.27-3.21-2.21-20-14.33-26.7-30.51-.11-.27-.11-.56,0-.83l3.13-8c-3.35.72-10.49,3.23-11.84,11.56-.05.33-.25.62-.54.78l-.16.09c-9.41,7.33-19.96,13.07-31.22,17-18.41,6.43-39.13,17.08-35.71,41.69.32,2.3,3.39,12.78,9,28,.04.12.06.25.06.38,2.81,35.17,14.63,121.22,16.24,127.62,3,12.16,4.35,20.09,2.78,27.15-.6,2.29-.94,4.64-1,7h138.87c.81-.88,3.22-4.23,1.54-11.53-2.2-9.54-6.42-29.92-8.4-44-.08-.55.27-1.08.81-1.22.08-.02.17-.04.26-.04h0Z"/>
      <path d="m997.8,45.04s-16.43-12.82-32.51-11.75c-9,.6-5.57,10.21-7.2,15.94s-7.93,4.61-9.82,8.29c-2.43,4.74-2.1,12-4.07,14.36-1.75,2-4.32.64-5.27-6s-2.65-15.56-7.85-17.88c-3.26-1.46-9.86.08-9.46,9.52.07,1.5.3,2.98.69,4.43,0,0-9.81,20-14.2,23.6,0,0,8.48-28.86,8.14-42.22s1.69-28.76,3.38-31.12c0,0,19.72-15.41,58-10,20.75,2.93,29.72,12.48,30.3,17.4,0,0,.87,11.43-1.59,17.51,0,0,6.51-1.16,7.52-9.26.02.06.58,15-16.06,17.18Z"/>
      <path d="m908.16,86.69c-.21,0-.42-.06-.6-.18-.4-.26-.58-.75-.46-1.21.09-.31,8.43-28.86,8.1-41.91-.32-12.55,1.52-28.89,3.59-31.78.06-.09.13-.17.22-.23.82-.64,20.53-15.63,58.84-10.2,11.79,1.66,19.12,5.34,23.19,8.13,4.67,3.21,7.68,7,8.05,10.23,0,.46.7,9.43-.94,15.81,1.75-1,4.13-3.08,4.69-7.57.08-.6.63-1.03,1.23-.95.53.07.94.51.96,1.05.21,5.52-3.09,16.43-17,18.25-.29.04-.59-.04-.82-.22-.16-.13-16.29-12.56-31.75-11.52-5,.33-5.47,4.56-5.61,11,.05,2.15-.15,2.06-.61,4.16-1.07,3.79-4,5-6.29,6-1.6.67-3,1.26-3.61,2.49-1.07,2.49-1.78,5.13-2.11,7.82-.5,2.88-.93,5.37-2.11,6.75-.72,1-1.98,1.45-3.17,1.15-2-.57-3.39-3.29-4-7.66-1-6.87-2.69-15-7.22-17-1.66-.66-3.53-.45-5,.56-1.44,1-3.11,3.14-2.91,7.91.06,1.42.28,2.82.65,4.19.07.26.04.53-.07.77-.41.83-10,20.29-14.49,24-.22.14-.49.2-.75.16Zm12.34-73.68c-1.44,2.45-3.43,17.21-3.1,30.33.26,10.31-4.54,28.36-6.91,37.68,3.92-6.18,7.48-12.57,10.67-19.15-.34-1.4-.55-2.82-.62-4.26-.24-5.79,2-8.54,3.88-9.83,2.09-1.45,4.78-1.73,7.13-.75,5.48,2.45,7.37,10.85,8.49,18.73.61,4.25,1.83,5.68,2.45,5.86.32.1.67-.19.89-.46.78-.92,1.19-3.24,1.61-5.69.36-2.92,1.14-5.77,2.32-8.46,1-1.93,2.89-2.74,4.72-3.51,2.18-.92,4.24-1.8,5-4.57.39-1.92.57-1.65.52-3.61.12-5.63.27-12.64,7.66-13.13,15.18-1,30.26,9.74,32.88,11.7,6.74-1,10.39-4.22,12.37-7.5-1.16.9-2.49,1.53-3.92,1.87-.39.07-.79-.08-1.05-.39-.25-.31-.31-.73-.16-1.1,2.34-5.78,1.52-16.91,1.52-17-.46-3.87-8.5-13.45-29.36-16.4-35.69-5.07-55.23,8.32-57.04,9.64h.05Z"/>
      <path d="m932.04,63.75c-.05.13-.1.27-.13.41-.03.14-.06.28-.08.42.05-.13.1-.27.13-.41.03-.14.06-.28.08-.42Z"/>
      <path class="cls-19" d="m1345.66,459.22c-.43,7.25-8.26,10.65-8.26,10.65h-130.24c.79-9.7-5.26-21.38-5.26-21.38,0,0,2.34-1.37,10.43-2.14l3.39-.33c1.71-7.69-1.77-56.94-3.77-82.87,0,0-29.82,20.71-61.35,19.08-16.92-.87-61.65-87.57-66.37-101.48,0,0,16.93-2.82,26.58-13,.27-.28.54-.57.79-.87,0,0,45.37,57.1,48.93,66.76,0,0,25.76-9,42.12-18.92,8.58-5.2,22.67-18.84,45.88-15.93,2.23,3.05,3.2,6.84,2.7,10.59-8.81,4.72-14.92,31.23-8.8,45.08,8.47,1.89,14.71-18,25.93-32.7,7.54-10.04,17.1-18.39,28.06-24.51,1.11-.59,1.74-.87,1.74-.87,0,0,25.23,15.3,31,22.57,22.09,27.54,16.86,134.08,16.5,140.27Z"/>
      <path class="cls-19" d="m1214.78,445.01c1-7-.41-35.83-3.78-79.92-6.34,4-30.77,18.33-56.88,18.33-1.19,0-2.38,0-3.58-.09-18.45-.95-63.53-90.94-67.35-102.23-.1-.31-.07-.64.1-.92.17-.27.44-.46.76-.52.17,0,16.68-2.88,26-12.69.27-.28.52-.55.76-.83.37-.47,1.05-.54,1.52-.17.06.05.12.11.17.17,1.8,2.26,42.92,54.07,48.67,66.05,4.82-1.74,26.65-9.82,41-18.48,1.41-.85,3-1.92,4.74-3.17,8.81-6.12,22.12-15.38,41.85-12.9.3.04.56.19.74.43,2.4,3.28,3.44,7.36,2.91,11.39-.05.35-.26.66-.57.83-3.84,2.06-7.55,9.27-9.44,18.37-2,9.4-1.62,18.58.89,24.75,4.53.37,8.91-7.27,13.95-16.06,3.08-5.64,6.52-11.09,10.29-16.29,7.63-10.17,17.32-18.63,28.43-24.81,1.15-.61,1.79-.9,1.79-.9.32-.14.7-.12,1,.06,1,.63,25.47,15.48,31.34,22.82,23,28.73,16.75,139.93,16.68,141.05h0c-.46,7.84-8.56,11.45-8.91,11.6-.15.06-.3.09-.46.09h-130.24c-.3,0-.6-.12-.8-.35-.21-.23-.32-.53-.29-.84l8.71-24.77Zm-6.46,23.76h128.83c1.16-.56,7.06-3.75,7.41-9.62.07-1.18,5.86-111.92-16.21-139.54-5.18-6.48-26.67-19.81-30.26-22l-1.15.59c-10.83,6.04-20.27,14.28-27.71,24.2-3.73,5.14-7.13,10.51-10.17,16.08-5.9,10.3-10.56,18.44-16.87,17-.34-.07-.63-.31-.77-.63-6.42-14.53-.12-40.57,8.77-46.19.3-3.14-.5-6.28-2.27-8.89-18.63-2.16-31.38,6.7-39.84,12.59-1.74,1.21-3.39,2.36-4.86,3.25-16.27,9.84-42.07,18.92-42.33,19-.57.19-1.18-.1-1.4-.66-3.19-8.69-41.86-57.74-48-65.44-8.34,8.77-21.63,12.15-25.83,13,3.14,8.2,14.85,31.84,28.08,54.24,16.8,28.46,30.24,45,36.87,45.31,30.83,1.6,60.37-18.68,60.66-18.88.51-.34,1.2-.21,1.54.29.11.16.17.34.19.53,2.14,27.75,5.47,75.46,3.74,83.19-.11.48-.51.82-1,.86l-2.53.24-.87.08c-3.05.21-6.07.76-9,1.62,1.48,3.09,5.19,11.81,4.98,19.78Z"/>
      <g class="cls-2">
        <path class="cls-17" d="m1218.23,446.84c2,2.84,7.33,14,5.94,24h-17.53s-1.92-21.19-4.38-22.38l14.71-2.49c.56-.07.93.4,1.26.87Z"/>
      </g>
      <g class="cls-3">
        <path class="cls-17" d="m1092.53,299.16s19.34-4.6,31.37-18.4l-12.19-15.43c-7.66,7.77-16.76,13.96-27.52,15.75l8.34,18.08Z"/>
      </g>
      <g class="cls-3">
        <path class="cls-17" d="m1214.28,388.31s9.07,5.87,81.64,5.18l1.83,31.88s-69.85.88-82.27-8.87l-1.2-28.19Z"/>
      </g>
      <path d="m1310.46,258.16c-6.76,6.38-13.14,11.49-17.14,25.29-.13,1.64-.49,3.25-1.07,4.78-.16.41-.47.75-.86.95-1.59.54-3.16-.91-4.4-4.33-2.47-6.77-3-17.59-3-17.59v-.86c1.47-1.57,2.59-3.44,3.26-5.48,2.79-8-3-11.42-6.73-11.59-4.33-.19-8.58,2.34-12.8,7.47,0,0-4.69,5-6.84,1.21-1-1.7,2.2-9.12,2.93-13.81.56-3.58,0-7.75-4.08-12.15-6.81-7.33-7.1-11.53-8.43-14.42,0,0-8.2-2.49-14.09-8.15-2.4-2.21-4.2-5-5.21-8.1-3.44-11.44,8.39-15.69,18.35-15.63,8.87.29,17.48,3.1,24.82,8.1,0,0,24.42-6.35,42.22,19.38,15.96,23.03-1.56,39.93-6.93,44.93Z"/>
      <path d="m1290.73,290.4c-1.37,0-3.24-.95-4.77-5.16-2.5-6.85-3-17.46-3.07-17.91v-1c0-.27.11-.53.3-.72,1.35-1.46,2.38-3.19,3-5.08,1-2.9.89-5.32-.37-7.18-1.24-1.76-3.21-2.86-5.36-3-3.91-.17-7.91,2.2-11.9,7.07-.37.39-3.22,3.31-5.94,3-1.17-.16-2.19-.89-2.72-1.94-.76-1.36-.08-3.89,1.21-8.25.65-2.06,1.18-4.15,1.59-6.27.66-4.18-.55-7.75-3.79-11.23-5.5-5.92-6.88-9.86-7.88-12.74-.19-.57-.37-1.07-.56-1.54-5.18-1.77-9.94-4.57-14-8.24-2.54-2.34-4.44-5.3-5.5-8.59-1.22-4-.75-7.53,1.38-10.39,3.67-4.91,11.58-6.65,17.83-6.65h.2c8.93.29,17.61,3.06,25.05,8,3.7-.73,26.29-4,42.89,19.93,11,15.93,8.63,31.53-7.11,46.36-.52.5-1,1-1.56,1.46-6,5.58-11.64,10.86-15.25,23.24-.14,1.73-.54,3.44-1.17,5.06-.28.68-.82,1.22-1.5,1.5-.32.15-.65.24-1,.27Zm-5.62-23.54v.46s.55,10.64,2.94,17.17c.93,2.56,2.07,4,3,3.66,0,0,.08-.1.24-.41.54-1.4.87-2.87,1-4.37-.01-.07-.01-.14,0-.21,3.77-13,9.66-18.53,15.89-24.34l1.55-1.45h0c14.83-14,17.12-28.61,6.81-43.5-9-12.95-19.62-17.41-27-18.87-4.61-.97-9.38-1-14-.07-.32.08-.65.01-.92-.18-7.15-4.88-15.54-7.62-24.19-7.89h-.18c-5.72,0-12.89,1.51-16.07,5.77-1.69,2.26-2,5.1-1,8.44.96,2.93,2.66,5.55,4.93,7.63,5.63,5.41,13.56,7.86,13.64,7.89.3.09.55.31.68.59.31.67.56,1.4.83,2.17.94,2.69,2.22,6.38,7.41,12,3.69,4,5.11,8.24,4.35,13.07-.42,2.21-.97,4.4-1.65,6.55-.68,2.31-1.71,5.81-1.4,6.56.19.44.59.75,1.06.82,1.25.15,3.12-1.3,4-2.25,4.4-5.38,9-8,13.65-7.82,2.83.16,5.44,1.6,7.09,3.91,1.14,1.7,2.18,4.67.62,9.15-.72,2.04-1.83,3.92-3.28,5.52h0Z"/>
      <path d="m1275.07,260.68c-.11.15-.19.32-.25.5-.06.17-.09.36-.09.54.1-.15.19-.32.25-.49h0c.05-.2.07-.4.06-.6l.03.05Z"/>
      <g>
        <g>
          <rect class="cls-9" x="11.57" y="22.29" width="257.57" height="314.67"/>
          <rect class="cls-9" x=".5" y="12.22" width="279.71" height="334.8"/>
          <line class="cls-9" x1="140.36" y1="22.29" x2="140.36" y2="336.96"/>
          <g>
            <line class="cls-9" x1="269.14" y1="124.05" x2="11.57" y2="124.05"/>
            <line class="cls-9" x1="269.14" y1="235.2" x2="11.57" y2="235.2"/>
          </g>
        </g>
        <g>
          <line class="cls-5" x1="1884.82" y1="402.7" x2="1647.93" y2="402.7"/>
          <line class="cls-5" x1="1884.82" y1="349.91" x2="1884.82" y2="471.03"/>
          <polyline class="cls-5" points="1636.92 471.03 1636.92 334.36 1884.82 334.36"/>
          <polyline class="cls-5" points="1903.03 323.68 1903.03 334.36 1619.96 334.36"/>
          <line class="cls-5" x1="1633.27" y1="323.68" x2="1903.03" y2="323.68"/>
          <line class="cls-5" x1="1619.96" y1="334.36" x2="1620.05" y2="323.68"/>
          <circle class="cls-5" cx="1663.24" cy="358.67" r="6.38"/>
          <circle class="cls-5" cx="1663.24" cy="429.76" r="6.38"/>
        </g>
        <g>
          <path class="cls-5" d="m1701.19,175.88V23.76c0-1.25,1.01-2.26,2.26-2.26h116.1c1.25,0,2.26,1.01,2.26,2.26v149.86c0,1.25-1.01,2.26-2.26,2.26h-100.81"/>
          <path class="cls-5" d="m1836.9,55.85v132.21c0,1.91-1.55,3.46-3.46,3.46h-143.88c-1.91,0-3.46-1.55-3.46-3.46V9.32c0-1.91,1.55-3.46,3.46-3.46h143.88c1.91,0,3.46,1.55,3.46,3.46v6.27"/>
          <path class="cls-5" d="m1727.77,135.6s3.24-30.19,36.44-37.29c34.39-7.35,31.31-37.65,31.31-43.73"/>
        </g>
      </g>
      <path class="cls-14" d="m818.11,460.17h-15.9c-9.07-2.08-21.51-5.51-27.31-9.66-8.35-5.98-15.26-22.57-15.26-22.57-.8,9.04-1.44,15.75-1.74,17.8-1.55-.73-2.73-1.2-3.31-1.28-2.86-.39-30.77-.09-35.91-.03l-3.44,17.88h9.02s6.23,4.73,13.71,4.41c5.97-.25,11.04-2.21,12.84-2.99-.11.39-.16.79-.16,1.2v.18c0,2.63,2.13,4.76,4.76,4.76h-116.26l1.02-7.15c-4.09-.45-7.56-1-10.11-1.66-18.42-4.8-19.97-19.82-19.51-25.4.47-5.57,14.48-95.22,14.48-95.22,4.11-23.41,10.83-27.36,18.61-32.43,8.91-5.81,45.66-22.19,45.66-22.19,0,0,2.01-5.52,6.86-6.63,0,0,26.49,32.5,36.46,42.48l.09-1.11v-.03l2.34-30.92h0s.07-.93.07-.93c0,0,3.88,2.49,6.65,6.93h.01s.01.01.01.01c.72.3,19.03,8.09,21.88,9.85,2.91,1.8,15.39,7.35,19.96,39.36,4.52,31.66,10.81,68.95,10.95,69.78h0s22.5,11.99,29.78,16.43l-6.81,23.54c-.57,1.97-.31,3.95.56,5.59Z"/>
      <path d="m766.37,207.06l-1.09.6c-2.05,2-3.61.9-6.11,2.3-14.99,8.52-37.16-.17-37.16-.17-.36.43-.66.9-.89,1.41-.76,1.87-1.27,3.83-1.55,5.84-10.63,9.3-8.08,20.22-9.35,22.92-.91,1.91-1.23,1.57-2.33,5.13-.25,1.14-1.33,1.91-2.49,1.78.01-3.97-1.36-7.34-4.42-13.6-2.75-5.62-11.76-7.98-13.42-.54-.26-1.11-.54-2.26-.8-3.46-8.34-34.39,4.66-36.73,4.66-36.73-4.28-14.84,11.54-15.4,16.41-15.1,8.47.52,35.94,4.41,45.81.98,5.93-4.8,7.89-3.87,9.8-2.71,15.77,9.58,7.02,27.34,2.93,31.36Z"/>
      <path d="m766.89,205.6l-.07.08c-2.11,2.06-4.49,3.84-7.06,5.28-8.06,4.55-17.97,4.26-24.9,3.23-4.22-.63-8.38-1.65-12.41-3.04-.1.17-.2.36-.3.58-.7,1.77-1.2,3.63-1.46,5.52-.03.26-.16.5-.36.67-7.65,6.7-8.17,14.24-8.48,18.81,0,1.28-.2,2.55-.61,3.76-.24.51-.52,1.02-.81,1.5-.66,1.08-1.15,2.26-1.45,3.48-.42,1.55-1.87,2.59-3.48,2.49h-.25c-.52-.08-.91-.52-.92-1.04,0-3.69-1.27-6.91-4.32-13.13-1.41-2.87-4.85-4.93-7.67-4.6-1.97.23-3.23,1.55-3.73,3.81-.11.48-.53.83-1.02.85-.5.01-.94-.34-1.05-.83l-.8-3.46c-4.89-20.12-2.5-29.57.36-33.96.98-1.6,2.41-2.89,4.11-3.7-1.09-5.41.62-7.46,3.4-10.54l73.31,24.23Zm-72.6-25.13c-2.44,2.7-3.06,6.69-1.84,11.78.06.29,0,.59-.15.83-.16.25-.42.42-.71.47-.07,0-2.04.45-3.81,3.25-2.57,4.06-4.66,12.94.01,32.16l.1.41c1.01-1.36,2.53-2.23,4.21-2.4.42-.03.84-.03,1.25,0h0c3.67.34,6.91,2.53,8.59,5.82,2.86,5.82,4.23,9.16,4.49,12.72.21-.21.36-.47.44-.75.35-1.4.92-2.73,1.66-3.96.26-.42.5-.86.71-1.3.26-.98.4-1.99.4-3,.33-4.8.88-12.8,8.92-20.01.29-1.99.82-3.93,1.58-5.79.28-.6.64-1.17,1.07-1.68.3-.33.78-.45,1.2-.29.21.09,21.87,8.4,36.24.25,2.38-1.34,4.59-2.98,6.55-4.88l.07-.08-70.99-23.56Z"/>
      <path d="m696.58,273.99c-2.24-2.41-3.04-6.44-3.85-12.6h0c-.08-.59-.15-1.21-.25-1.86-.67-4.65-1.2-8.87-2.36-14.92,1.59,2.22,3.77,3.95,6.3,4.98,0,0,.75,13.3.16,24.4Z"/>
      <path d="m696.52,275.06c-.28-.01-.54-.13-.74-.33-2.16-2.32-3.23-6.02-3.81-10.73l-.29-2.34s0-.09,0-.14c-.07-.58-.14-1.19-.25-1.83l-.33-2.34c-.54-3.87-1.05-7.53-2.02-12.55-.11-.58.26-1.15.85-1.26.42-.08.84.09,1.08.43,1.46,2.04,3.46,3.62,5.78,4.59.43.15.73.56.73,1.02,0,.13.74,13.46.16,24.47-.03.42-.31.79-.7.94-.15.06-.31.08-.46.06Zm-2.75-13.94s0,.08,0,.13l.31,2.49c.17,1.8,1.19,4.46,1.58,6.23.33-8.25-.36-17.26-.35-19.67-1.26-.59-2.45-1.35-3.51-2.26.59,3.38.99,6.22,1.38,9.01l.33,2.33c.13.61.2,1.19.27,1.75Z"/>
      <path d="m690.06,245.65c-.32-.01-.62-.18-.81-.44-1.98-2.8-3.04-6.14-3.03-9.57-.03-1.07.07-2.14.29-3.18.13-.58.71-.94,1.28-.81.58.13.94.71.81,1.28h0c-.19.88-.26,1.78-.24,2.68-.01,2.98.9,5.89,2.62,8.33.34.48.23,1.15-.24,1.5-.2.15-.44.22-.69.21Z"/>
      <path d="m760.59,235.43l-1.34-.07c.01-7.84.63-13.84-3.52-23.36,2.5-1.39,8.83-5.11,10.88-7.1.08.42,3.67,17.72-6.03,30.54Z"/>
      <ellipse cx="1041.03" cy="441.07" rx="21.54" ry="3.49"/>
      <path d="m1041.03,445.67c-3.78,0-22.64-.22-22.64-4.6s18.86-4.59,22.64-4.59,22.63.22,22.63,4.59-18.85,4.6-22.63,4.6Zm-20.23-4.6c1.66,1.06,9.15,2.4,20.23,2.4s18.56-1.34,20.22-2.4c-1.66-1-9.15-2.39-20.22-2.39s-18.57,1.34-20.23,2.39h0Z"/>
      <path class="cls-11" d="m578.04,469.87s-.87-95.8,0-114.82c.72-16.09,5.22-28.02,19.81-31.89,6.22-1.65,21.9-2.41,31.58-3.15"/>
      <path class="cls-11" d="m526.5,469.87c-1.39-7.46-8.62-45.09-17.94-68.76-11.52-29.28-10.83-45.88-10.38-50.05h0v-.02c.07-.69.13-1.03.13-1.03"/>
      <path class="cls-11" d="m794.58,414.62s22.5,11.98,29.78,16.42"/>
      <path class="cls-11" d="m689.3,285.82s2.01-5.52,6.86-6.63c0,0,26.49,32.5,36.46,42.48l2.5-32.99s3.88,2.49,6.65,6.93"/>
      <path class="cls-11" d="m633.93,421.72c6.2-3.56,17.66-1.08,21.84.31,4.18,1.4,63.39,19.88,63.39,19.88l-4.34,22.61s-66.33,1.34-84.76-3.46c-6.55-1.71-10.97-4.71-13.92-8.12"/>
      <line class="cls-11" x1="672.24" y1="361.59" x2="658.37" y2="422.97"/>
      <path class="cls-11" d="m719.02,444.46s32.42-.43,35.57,0c3.16.44,29.53,12.81,29.85,13.68.12.34.6,1.7,0,2.7"/>
      <path class="cls-11" d="m715.6,462.31h8.66s6.23,4.73,13.71,4.41c5.97-.25,11.04-2.21,12.84-2.99"/>
      <path class="cls-15" d="m971.35,464.93v.18c0,2.63-2.13,4.76-4.76,4.76h-211.18c-2.63,0-4.76-2.13-4.76-4.76v-.18c0-2.63,2.13-4.76,4.76-4.76h62.7c1.24,2.37,3.72,4.05,6.69,4.05h141.87c1.55.01,3.04-.32,4.39-.92.19.51.29,1.06.29,1.63Z"/>
      <path class="cls-11" d="m766.43,346.4s-7.28,90.75-8.53,99.34"/>
      <path class="cls-11" d="m645.78,313.08c4.5.32,6.16.91,11.48,3.35,9.64,4.43,15.44,12.59,19.37,25.27"/>
      <line class="cls-11" x1="655.3" y1="315.36" x2="677.16" y2="300.66"/>
      <line class="cls-11" x1="732.62" y1="319.75" x2="735.18" y2="346.4"/>
      <path class="cls-11" d="m736.87,309.63s.34-.98,5.78-1.23,7.91,2.59,7.91,2.59l-8.79-15.37"/>
      <path class="cls-11" d="m689.3,285.82l2.34,29.68s11.73-10.91,22.19-8.3"/>
      <path class="cls-11" d="m774.3,420.43s11.44-8.04,20.28-5.82"/>
      <path class="cls-12" d="m1000.86,363.17l-23.94,93.3c-.81,3.15-3.02,5.64-5.87,6.88-1.29.57-2.71.88-4.19.88h-135.33c-2.83,0-5.2-1.6-6.38-3.85-.83-1.55-1.08-3.43-.53-5.3l26.81-92.05c1.2-4.11,5-6.95,9.31-6.95h134.57c3.73,0,6.47,3.5,5.54,7.09Z"/>
      <path class="cls-11" d="m1002.31,357.55l-25.1,98.49c-.85,3.32-3.17,5.95-6.15,7.26-1.35.6-2.84.93-4.39.93h-141.87c-2.97-.01-5.45-1.69-6.69-4.06-.87-1.64-1.13-3.62-.56-5.59l28.11-97.17c1.26-4.34,5.24-7.34,9.76-7.34h141.08c3.91,0,6.78,3.69,5.81,7.48Z"/>
      <path class="cls-11" d="m916.84,402.19c3.09,1.99,3.25,7.27.34,11.79s-7.77,6.57-10.86,4.59c-1.35-.87-2.14-2.36-2.36-4.14"/>
      <line class="cls-11" x1="735.14" y1="284.36" x2="735.05" y2="289.61"/>
      <path class="cls-11" d="m723.22,281.87s6.64,3.24,17.17,2.39c10.53-.85,16.54-18.71,17.97-28.92,1.43-10.21,3.43-31.28.48-37.82"/>
      <path class="cls-11" d="m696.42,249.59s1.27,22.84.34,30.15"/>
      <path class="cls-8" d="m702.35,199.21s12.32,10.35,20.19,12.45"/>
      <path class="cls-11" d="m997.1,377.3s2.63,65.23-1.23,92.37"/>
      <path class="cls-11" d="m1608.18,429.77h-77.84c-5.46,0-9.89-4.43-9.89-9.89v-.21c0-5.46,4.43-9.89,9.89-9.89h77.84"/>
      <path class="cls-11" d="m1603.09,409.77s-6.42,9.09-.31,19.98"/>
      <path class="cls-11" d="m1594.27,449.77h-77.84c-5.46,0-9.89-4.43-9.89-9.89v-.21c0-5.46,4.43-9.89,9.89-9.89h77.84"/>
      <path class="cls-11" d="m1589.18,429.77s-6.42,9.09-.31,19.98"/>
      <path class="cls-11" d="m1601.38,469.76h-77.84c-5.46,0-9.89-4.43-9.89-9.89v-.21c0-5.46,4.43-9.89,9.89-9.89h77.84"/>
      <path class="cls-11" d="m1596.29,449.76s-6.42,9.09-.31,19.98"/>
      <path class="cls-11" d="m1539.96,320.95s13.57,36.93,10.44,88.82"/>
      <path class="cls-11" d="m1412.85,469.76s.08-18.13-1.51-38.88c-1.2-15.6-7.39-51.19,5.27-94,10.02-33.87,15.74-50.09,16.81-61.58"/>
      <path class="cls-11" d="m1488.52,235.02c1.07,1.65,1.6,3.83,1.34,6.14-.52,4.62-4.02,8.02-7.8,7.59-2.78-.31-4.95-2.61-5.7-5.64"/>
      <path class="cls-11" d="m1533.51,254.18l2.34-37.41c.32-4.35-2.63-8.22-6.98-8.54l-84.86-6.64c-4.35-.32-8.53,2.63-8.85,6.98l-5.16,59.49c-.32,4.35,3.13,7.83,7.47,8.15l86.39,6.68c2.53.19,3.92-.9,5.49-2.65"/>
      <path class="cls-11" d="m1538.04,180.93s-4.62,20.74-5.22,27.76"/>
      <path class="cls-11" d="m1425.25,176.74s0,5.34-8.05,24.23c-6.24,14.63-.08,32.95,6.25,39.85,6.32,6.9,7.99,7.97,7.99,7.97"/>
      <path class="cls-11" d="m1545.04,286.08s3.81-2.09,4.4-13.91c.57-11.4-8.63-14.47-8.63-14.47,0,0,1.74-5.81,10.05-6.96s15.13,3.1,15.13,3.1"/>
      <path class="cls-11" d="m1540.81,257.7s-14.36-6.91-14.72-7.15-17.62-4.79-26.1-5.29c-2.91-.17-3.28.99-3.32,1.88-.05,1.04,1.2,1.8,2.7,2.48s22.2,7.4,22.2,7.4l-18.4-3.54s-8.56-2.33-9.39.19c-1.14,3.46,5.18,4.6,5.18,4.6l22.25,6.89-19.75-5.55s-3.75-1-4.11,1.28c-.38,2.42,3.14,3.91,8.64,6.04s16.39,5.86,16.39,5.86l-15.33-3.03s-3.15-.6-3.63,1.33,2.3,2.89,4.02,3.44,11.21,4.09,19.51,5.47c1.59.26,9.49.69,13.32.9,1.79.1,6.49,2.86,6.49,2.86"/>
      <path class="cls-11" d="m1476.95,322.21s28.19,2.6,61.52-8.87c0,0-3.78-15.79-3.83-32.79"/>
      <path class="cls-11" d="m1463.47,124.24s2.9,7.78,1.29,15.76"/>
      <path class="cls-11" d="m1399.73,248.79s2.57-34.51-.89-81.38c0,0-.09-7.61,2.34-11.78,2.66-4.57,6.99-13.94,6.03-23.42l2.93-2.6"/>
      <path class="cls-11" d="m1401.58,124.28s5.33-4.6,7.87-4.6,4.6,2.04,5.76,4.6c0,0-.26,11.57-4.43,16.61-1.94,1.85-4,0-4,0"/>
      <path class="cls-11" d="m1409.45,119.67s-1.81-4.93-6.2-4.63c-3.58.25-8.58,5.51-8.58,5.51"/>
      <path class="cls-11" d="m1402.25,115.24s-1.81-4.93-6.2-4.63c-3.58.25-8.34,6.01-8.34,6.01"/>
      <path class="cls-11" d="m1394.25,111.12s-1.86-3.37-5.02-2.63-9.43,5.65-11.92,8.87c-2.49,3.23-1.64,27.7-1.61,31.63.04,5.26-2.93,19.04-3.51,23.59"/>
      <path class="cls-11" d="m1373.2,166.4s3.8,3.5,10.3,3.85c7.71.41,15.11-3.33,15.11-3.33"/>
      <path class="cls-11" d="m1460.41,107.56s6.17.93,14.16-4.2c0,0,1.45,7.27-4.72,8.98s-9.44-4.78-9.44-4.78Z"/>
      <path class="cls-11" d="m1457.87,78.4s2.31,4.36,1.34,9.5-2.34,6.43-.55,9.13c1.36,2.04,4.24,2.05,5.58.86"/>
      <path class="cls-11" d="m1467.88,81.25s3.36-3.59,11.42-.51"/>
      <ellipse class="cls-15" cx="1471.79" cy="82.03" rx="1.09" ry="2.09"/>
      <path class="cls-11" d="m1232.57,235.77s3.74-.28,8.46,4.96"/>
      <ellipse class="cls-15" cx="1234.81" cy="238.8" rx="2.3" ry="1.35" transform="translate(620.55 1336.28) rotate(-71.71)"/>
      <ellipse class="cls-15" cx="1274.9" cy="261.2" rx="1.97" ry=".99" transform="translate(626.8 1389.71) rotate(-71.71)"/>
      <ellipse class="cls-15" cx="1503.11" cy="86.67" rx=".99" ry="1.72"/>
      <path class="cls-11" d="m1447.39,85.28s2.01-3.43,8.25-1.92"/>
      <path class="cls-11" d="m1444.19,77.32s3.2-3.03,9.04-2.35"/>
      <ellipse class="cls-15" cx="1451.95" cy="85.47" rx="1.14" ry="2.04"/>
      <path class="cls-11" d="m1465.09,73.11s5.81-5.41,13.7-2.62"/>
      <path class="cls-15" d="m1502.12,86.67s.28-3.83,3.35-5.41"/>
      <path class="cls-11" d="m1498.18,83.34s.75-4.41,3.37-6.82c2.87-2.63,7.21-1.02,8.49,1.88s1.23,9.42-3.36,15.34c-4.35,5.6-4.67,5.5-5.11,7.83s-1.21,17.07,2.52,36.72"/>
      <path class="cls-11" d="m1487.72,120.55s-6.77,5.73-14.87,5.75c-5.28,0-15.45-2.05-22.04-17.49-5.87-13.76-13.08-43.94,5.87-57.9"/>
      <path class="cls-11" d="m1297.75,332.51s-6.53,8.92-2.63,52.64c3.1,34.74,2.35,45.19,2.35,45.19"/>
      <path class="cls-11" d="m1210.65,347.94s5.41,74,5.02,84.23"/>
      <path class="cls-11" d="m1315.99,431.89s-20.09-4.25-40.68,1.35c-15.03,4.09-46.89,12.72-72.58,14.9,0,0,4.69,17.68,4.05,22.11"/>
      <path class="cls-11" d="m1204.34,454.41s-21.52-3.55-25.18-4.34-8.82-.66-13.57,1.85c-2.54,1.34-24.14,11.68-24.14,11.68,0,0-2.93,2.72-.42,6.27"/>
      <path class="cls-11" d="m1156.82,354.01c-1.51-14.6,4.38-21.14,4.38-21.14,0,0,16.34-6.23,22.28-9.02"/>
      <path class="cls-11" d="m1242.43,353.73s3.95,3.58,13.56-12.88c9.9-16.96,20.51-34.68,42.17-44.92,0,0-14.14-2.8-14.17-29.53"/>
      <path class="cls-11" d="m1241.32,286.14s13.72,13.32,10.32,30.45"/>
      <path class="cls-11" d="m1234.65,225.32s7.88.4,12.06,9.39"/>
      <path class="cls-11" d="m985.39,69.86s-2.57-3.6-9.59-2.92"/>
      <path class="cls-11" d="m933.04,64.17s1.23-5.31-4.18-7.93"/>
      <ellipse class="cls-15" cx="981.27" cy="69.73" rx="2.11" ry="1.32" transform="translate(516.25 936.63) rotate(-65.86)"/>
      <path class="cls-11" d="m510.72,88.39s-2.95-2.67-10.11-.21"/>
      <ellipse class="cls-15" cx="507.23" cy="89.77" rx="2.05" ry="1.18" transform="translate(358.66 582.99) rotate(-83.27)"/>
      <ellipse class="cls-15" cx="932.04" cy="64.48" rx="1.97" ry=".99" transform="translate(491.95 888.61) rotate(-65.86)"/>
      <path class="cls-11" d="m973.79,56.74s8.76-1.26,14.95,5.45"/>
      <path class="cls-11" d="m474.85,84.59s.39-5.21-4.52-6.02"/>
      <ellipse class="cls-15" cx="473.83" cy="84.88" rx="1.97" ry=".99" transform="translate(308.2 536.86) rotate(-80.03)"/>
      <path class="cls-11" d="m498.12,80.85s6.58-3.76,13.67-.26"/>
      <path class="cls-11" d="m734.42,236.24s-2.95-2.67-10.11-.21"/>
      <ellipse class="cls-15" cx="730.14" cy="237.88" rx="2.12" ry="1.25" transform="translate(408.36 935.13) rotate(-83.27)"/>
      <path class="cls-11" d="m698.62,240.55s-.79-3.29-4.85-4.34"/>
      <ellipse class="cls-15" cx="697.83" cy="242.01" rx="1.97" ry=".99" transform="translate(375.73 906.68) rotate(-83.27)"/>
      <path class="cls-11" d="m722.71,226.63s6.91-2.09,13.81,2.14"/>
      <path class="cls-11" d="m747.58,236.72s4.8-2.76,9.44.18"/>
      <path class="cls-15" d="m753.42,238.42c0,1.22-.53,2.21-1.18,2.21s-1.18-.99-1.18-2.21.53-2.21,1.18-2.21,1.18.99,1.18,2.21Z"/>
      <path class="cls-11" d="m756.88,226.69s-5.7-2.55-11.4,2.57"/>
      <path class="cls-11" d="m1273.87,261.18s1.37-4.39,7.96-4.06"/>
      <path class="cls-11" d="m1111.93,266.05s-14.5,12.3-28.28,14.47c0,0,10.19,24.08,21.45,42.99"/>
      <path class="cls-11" d="m1109.65,256.74s-1.69,3.13-1.73,6.22l2.24,4.5"/>
      <path class="cls-11" d="m1102.12,262.17s5.5-5.2,13.34-8.32c4.27-1.7,12.3-9.72,12.3-9.72,0,0-4.57-5.84-12.03.22,0,0-6.89-.44-8.59-.7"/>
      <path class="cls-11" d="m1114.5,244.27s4.25-8.94,6.18-16.96,3.5-17.35,3.56-20.43-1.07-5.15-2.7-5.22-2.89,2.2-3.26,3.26-1.63,10.55-2.38,12.42c-.52,1.3-4.58,12.36-4.58,12.36"/>
      <path class="cls-11" d="m1119.91,202.37s.46-6.38-2.8-6.86-4.54,5.38-4.54,5.38c0,0-2.39,12.07-2.98,12.94s-4.58,11.93-5.1,12.31"/>
      <path class="cls-11" d="m1112.47,201.34s-.48-3.92-3.17-3.88-3.64,4.02-3.64,4.02c0,0-2.36,9.64-3.09,11s-5.2,10.86-5.2,10.86c0,0,3.19-13.22,3.95-17.31s-.28-6.35-2.25-6.28-3.18,3.5-3.57,5.65c-.16.9-4.17,16.36-4.68,17.19-.3.48-3.37,8.47-7.73,16.36-4.67,8.45-4.32,21.26-.96,27.94,1.15,2.29,4.33,9.54,5.95,12.62"/>
      <path class="cls-11" d="m1237.21,209.48s-4.88,4.65-7.81,14.82c-.78,2.72-.19,4.63-.92,6.59s-2.68,8.1-11.19,12.35c0,0-3.16,4.81,3.82,8.52,0,0-.81,3.83-2.35,6.46,0,0,6.6,3.1,12.62,2.96,0,0-2.34,5.46-12.46,3.59,0,0,1.11,2.53.78,6.01-.23,2.46-2.52,8.53,1.01,12.76,3.05,3.67,18.22,4.81,37.81-.79"/>
      <path class="cls-11" d="m1269.09,270.25s10,2.62,15.82-4.93"/>
      <path class="cls-11" d="m984.79,267.06s2.04,23.05,4.57,37.37c2.13,12.02,7.6,34.55,7.18,37.8-.36,2.79-1.17,6.83-3.15,7.58"/>
      <path class="cls-11" d="m943.87,271.04s5.39,44.72,7.34,54.51"/>
      <path class="cls-11" d="m999.49,325.86l16.01,39.81s20.4-11.03,27.49-11.07l-8.04-27s-9.85,2.82-23.32,11.02"/>
      <path class="cls-11" d="m966.38,121.27s0,15.69-6.76,24.41c0,0-4.28-15.19-11.9-17.05,0,0-3.54,6.24-5.93,23.65"/>
      <path class="cls-11" d="m986.43,167.47s-.07,38.61-1.63,44.15"/>
      <path class="cls-11" d="m914.84,237.79c-3.11-9.82-28.61-58.16-28.61-58.16"/>
      <path class="cls-11" d="m904.63,257.85s3.79-14,10.2-20.06c0,0,34.88-15.2,59.38-21.19,0,0,24.9-9.48,27.84-10.06,0,0,6.52,25.96,12.11,32.87l-23.7,12.48s-9.55-14.1-14.34-26.84"/>
      <path class="cls-11" d="m829.76,136.36s-6.92,9.95-4.02,23.98c3.29,15.92,36.48,99,57.24,121.38,4.53,5.65,18.5,5.65,26.78,2.92,31.05-10.25,79.12-35.2,79.12-35.2"/>
      <path class="cls-11" d="m947.11,225.05s-.45-7.49,2.6-20.97-7.23-50.02-9.37-55.09c-2.15-5.07-6.55-6.69-7.57-9.57s-1.48-12.43-1.62-13.64c0,0-6.91-.23-15.47,19.89,0,0-14.05-13.51-20.89-35.89"/>
      <path class="cls-11" d="m1002.99,210.08s10.9-2.64,16.1-8.31c4.16-4.53,15.74-21.96,20.64-25.12,3.69-2.37,19.24-13.64,22.24-15.05,3.44-1.61,4.87,1.11,4.54,2.42"/>
      <path class="cls-11" d="m1045.19,180.99s23.32-20.59,26.83-19.38,1.83,5.86.18,7.15"/>
      <path class="cls-11" d="m1048.83,186.97s19.39-16.85,22.1-17.93c3.95-1.57,7.26,2.63,0,9.07"/>
      <path class="cls-11" d="m1052.38,193.28s13.52-12.38,16.55-13.95,6.1,1.65,2.99,5.36c-.88,1.05-12.38,12.28-14.2,14.62-4.72,6.05-7.45,18.54-24.95,27.73-5.43,2.85-8.88,1.49-14.29,4.16-2.7,1.34-7.16,3.34-7.16,3.34"/>
      <path class="cls-11" d="m1019.09,441.07s-.48,15.65,6.74,24.61c2.35,2.91,7.34,4.27,15.21,4.19,5.34-.06,13.56.21,16.69-6.39,1.8-3.8,5.61-12.05,5.22-22.41"/>
      <path class="cls-11" d="m1062.96,446.78s3.23-5.63,7.17-4.39,3.72,6.48.07,11.82c-4.57,6.67-10.34,8.67-12.48,9.27"/>
      <path class="cls-11" d="m1018.19,364.41s1.75,9.35,2.29,19.15c.33,5.91,5.26,18.18,11.11,22.71,0,0,5.02.2.76-10.73-3.11-7.97-2.02-10.79-.7-11.31,0,0,7.39-4.15,10.47,9.56.8,3.58,2.53,13.69,1.49,23.47-.88,8.18,3.42,5.94,4.33,4.52s5.78-14.03,4.27-37.27c-.43-6.62-5.04-11.98-11.52-29.63"/>
      <path class="cls-11" d="m1043.61,417.27s-2.25,1.43-3.29-.84c-.98-2.15-.45-8.18.15-11.43.6-3.24,1.22-14.48-2.13-19.48"/>
      <path class="cls-11" d="m930.34,73.58s-7.3-5.27-8.39-15.71"/>
      <path class="cls-11" d="m997.8,45.04s2.23,5.59-.97,11.68-5.31,10.05-5,16.12c.31,6.06,2.97,12.71,2.97,12.71,0,0-1.25,5.61-10.31,3.97,0,0-1.53,4.21-1.38,6.63,0,0-6.03,0-11.7-4.66,0,0-1.62,6.15,8.28,9.99,0,0-2.47,1.89-4.13,6.36-1.66,4.47-3.2,9.51-9.82,8.39-5.5-.92-16.6-4.54-28.26-23.18"/>
      <path class="cls-11" d="m357.1,369.98s-18.44,22.52-17.86,61.99"/>
      <line class="cls-11" x1="335.2" y1="442.25" x2="340.82" y2="442.25"/>
      <line class="cls-11" x1="352.31" y1="442.25" x2="373.54" y2="442.25"/>
      <path class="cls-11" d="m357.2,469.87h-39.06c-4.8,0-9.03-3.13-10.43-7.72l-6.86-22.47c-1.17-3.84,1.7-7.72,5.71-7.72h62.27c4.02,0,6.89,3.89,5.71,7.73l-6.92,22.48c-1.41,4.58-5.64,7.7-10.42,7.7Z"/>
      <path class="cls-11" d="m316.89,399.65s19.24,8.85,18.82,32.31"/>
      <path class="cls-11" d="m329.86,411.31c2.79-3.71,1.03-14.09-10.22-18.23-10.03-3.69-22.14-2.38-24.17,4.62s11.28,4.3,17.72,8.11c6.45,3.81,9.92,14.49,16.67,5.5Z"/>
      <path class="cls-11" d="m412.51,296.83s.08,8.73-1.93,15.08c-.36,3.19,2.92,8.66,13.66,7.87s48.04-6.07,51.11-7.87"/>
      <path class="cls-11" d="m410.9,311.92s-18.02,25.52-19.26,60.77c-1.26,35.69,18.16,73.76,22.6,97.18"/>
      <path class="cls-11" d="m419.55,188.76l18.22,26.4s13.15-25,38.9-27.83l-11.23-17.24"/>
      <path class="cls-11" d="m473.15,187.92s24.01,37.53,35.53,51.97"/>
      <path class="cls-11" d="m502.46,239.5s45.54,7.79,84.13,22.24c8.1,2.8,24.66-3.36,33.84-2.74,7.15.48,28.41,3.34,40.9,16.5,0,0-.91,2.41-4,2s-13.77-7.77-27.69-5.77"/>
      <path class="cls-11" d="m624.05,266.37s9.55,8.77,10.86,13.41-2.93,10.83-5.62,11.85c-1.75.67-4.68-.33-4.68-.33"/>
      <path class="cls-11" d="m617.98,272.57s9.36,9.86,9.58,13.26-3.74,7.17-6.71,7.51c-1.86.22-3.52-1.48-3.52-1.48"/>
      <path class="cls-11" d="m612.29,279.37s6.93,5.96,6.93,9.19c0,2.67-3.79,5.56-5.87,5.28-.91-.12-4.31-2.74-5.44-5.3"/>
      <path class="cls-11" d="m611.6,288.18s-13.59,1.47-16.7.84-5.93-1.3-13.47-5.38c-2.77-1.5-38.43-3.22-68.07-7.06-24.35-3.16-28.17-6.33-41.84-22.48-14.71-17.37-32.35-41.29-32.35-41.29"/>
      <path class="cls-11" d="m492.32,178.19l-5.75-16.43s-17.06-7.96-33.83-23.04c-8.94-8.04-11.38-10.48-17.23-9.61-4.64.69-10.54,4.82-10.54,4.82"/>
      <path class="cls-11" d="m486.57,128.09s-5,11.1-3.08,32.04"/>
      <path class="cls-11" d="m435.51,129.11s6.97-4.49,8.52-9.49"/>
      <path class="cls-11" d="m436.96,77.05s-11.68,1.48-13.38,11.52,1.8,17.66,7.91,20.72c5.59,2.79,10.69,1.68,10.69,1.68"/>
      <path class="cls-11" d="m479.42,122.83s8.7,8.64,22.84,10.08c3.44.35,7.7-.69,8.43-6.9.16-1.35-.42-6.77,2.16-8.84,0,0-7.75-2.6-8.73-7.45,0,0,6.77,2.7,10.65,1.57v-5.89s4.95.83,6.23-1.52-1.18-5.64-2.06-7.51-3.22-6.4-2.4-13.2c.52-4.35,4.18-16.33.88-23.29"/>
      <path class="cls-11" d="m742.06,234.47s-.26,5.53,1.89,9.51c1.73,3.19,2.97,4.7,1.91,7.4-.54,1.36-2.82,2.93-5.25,1.63"/>
      <path class="cls-11" d="m731.18,259.96s3,5.9,11.69,4.65"/>
      <line class="cls-11" x1="451.22" y1="469.87" x2="267.98" y2="469.87"/>
      <line class="cls-11" x1="1246.75" y1="469.87" x2="959.16" y2="469.87"/>
      <line class="cls-11" x1="1644.06" y1="469.87" x2="1498.18" y2="469.87"/>
    </g>
  </g>
</svg>