<svg width="135" height="24" viewBox="0 0 135 24" fill="none" xmlns="http://www.w3.org/2000/svg">
<g clip-path="url(#clip0_647_6706)">
<path fill-rule="evenodd" clip-rule="evenodd" d="M4.53795 15.6748C4.70326 18.344 6.01906 19.6786 8.48541 19.6786C9.4067 19.7269 10.3122 19.4163 11.0249 18.8073C11.3373 18.5296 11.5859 18.1826 11.7521 17.7917C11.9183 17.4009 11.9981 16.9762 11.9854 16.549C11.9854 15.6243 11.7231 14.922 11.1987 14.4418C10.6743 13.9618 9.65395 13.534 8.13766 13.1586C7.19355 12.9191 6.26377 12.6223 5.35309 12.2695C4.72739 12.0035 4.14926 11.6299 3.643 11.1641C2.33195 10.0655 1.67737 8.53932 1.67927 6.5853C1.68117 4.63129 2.28065 3.05068 3.4777 1.8435C4.67855 0.622488 6.24898 0.011982 8.18898 0.011982C9.54573 -0.00443154 10.8795 0.377708 12.0366 1.11445C13.1064 1.75313 13.9265 2.76217 14.3538 3.96546C14.5087 4.40527 14.6167 4.86143 14.6759 5.32576C14.7323 5.9166 14.757 6.51024 14.7499 7.10394L10.4577 5.91848C10.0606 4.65006 9.32045 4.01584 8.23738 4.01584C7.96127 4.00918 7.68686 4.06299 7.43202 4.17379C7.17718 4.28458 6.9476 4.44988 6.7582 4.65895C6.56372 4.86769 6.41114 5.11462 6.30936 5.3853C6.20758 5.65599 6.15863 5.94504 6.16537 6.23559C6.1442 6.55678 6.19822 6.87852 6.32281 7.17324C6.44741 7.46796 6.63886 7.72688 6.88075 7.92782C7.35577 8.30717 8.30578 8.68453 9.73085 9.05992C10.3893 9.23178 10.9422 9.38589 11.3839 9.52223C11.8257 9.65857 12.2048 9.78603 12.524 9.90753C12.8194 10.0166 13.1008 10.1629 13.3619 10.3432C13.6099 10.5151 13.8636 10.7018 14.1286 10.9093C14.8872 11.5268 15.4881 12.3288 15.8786 13.2445C16.2812 14.1874 16.4844 15.2092 16.4743 16.2408C16.4827 17.2934 16.2727 18.3357 15.8587 19.2963C15.4514 20.2271 14.8701 21.0642 14.1486 21.7591C13.4166 22.467 12.5628 23.025 11.632 23.4039C10.6422 23.8057 9.5877 24.0069 8.52531 23.9966C7.38039 24.0043 6.24369 23.7954 5.17068 23.3802C4.17066 23.0018 3.25032 22.4262 2.46021 21.6849C1.70778 20.9764 1.09588 20.1216 0.658926 19.1689C0.212598 18.1895 -0.012594 17.117 0.0005435 16.0333C0.00476934 15.8103 0.0209449 15.5877 0.0489957 15.3666C0.0803471 15.0939 0.131649 14.7738 0.197202 14.4418L4.53795 15.6748Z" fill="black"/>
<path fill-rule="evenodd" clip-rule="evenodd" d="M30.4967 4.53159C29.5623 4.52916 28.6379 4.73111 27.7834 5.12431C26.9424 5.50831 26.1807 6.05778 25.5403 6.74245C24.8976 7.43093 24.3792 8.23402 24.0098 9.11332C23.6282 10.0205 23.4339 11.0009 23.4398 11.991C23.4286 13.0065 23.6127 14.0142 23.9813 14.9546C24.3268 15.8409 24.8383 16.6468 25.4862 17.3255C26.1272 17.9919 26.8796 18.5312 27.7065 18.917C28.5678 19.3172 29.502 19.5194 30.4454 19.5097C31.3959 19.517 32.3371 19.315 33.2072 18.917C34.0434 18.5359 34.8041 17.9962 35.4502 17.3255C36.0981 16.6468 36.6097 15.8409 36.9551 14.9546C37.319 14.0344 37.5031 13.0482 37.4966 12.0533C37.5016 11.0499 37.3177 10.0551 36.9551 9.12523C36.6132 8.23179 36.1013 7.41935 35.4502 6.73652C34.8103 6.07031 34.0589 5.53101 33.2329 5.14506C32.3708 4.74705 31.437 4.54497 30.4939 4.55233M30.4967 0.012059C32.0478 -0.000291486 33.5845 0.323708 35.0085 0.963385C36.3696 1.57131 37.6076 2.44221 38.6567 3.52988C39.7055 4.62523 40.5357 5.92554 41.0992 7.35592C41.6966 8.85285 41.9991 10.4592 41.9884 12.0799C41.9966 13.6778 41.6861 15.2601 41.0764 16.7269C40.4925 18.1445 39.655 19.4338 38.6082 20.5263C36.9727 22.2027 34.8956 23.3369 32.64 23.7853C30.3843 24.2337 28.0514 23.9763 25.9365 23.0453C24.5652 22.4411 23.318 21.5689 22.2627 20.4759C21.2156 19.379 20.3858 18.0791 19.8202 16.6499C19.2277 15.1517 18.9292 13.5456 18.9423 11.9258C18.9323 10.3364 19.2429 8.76238 19.8543 7.30553C20.4418 5.89771 21.278 4.617 22.3197 3.52988C23.3762 2.43779 24.6243 1.56655 25.9964 0.963385C27.4173 0.326723 28.9495 0.00281867 30.4967 0.012059Z" fill="black"/>
<path fill-rule="evenodd" clip-rule="evenodd" d="M44.9357 11.3597C44.9091 10.1121 45.0047 8.86492 45.2208 7.6374C45.4316 6.6113 45.7628 5.61599 46.2068 4.67377C46.949 3.21572 48.0894 2.01856 49.4845 1.23301C50.9787 0.435876 52.6316 0.0137091 54.311 0.00032833C55.9902 -0.0130524 57.6492 0.382725 59.155 1.15596C60.5396 1.90839 61.6834 3.06383 62.4469 4.48114C62.7091 4.99286 62.9304 5.47198 63.111 5.9185C63.2991 6.38903 63.4396 6.87871 63.53 7.37957C63.6355 7.95761 63.7098 8.54138 63.7523 9.12806C63.8007 9.75931 63.8263 10.5062 63.8263 11.3597V23.2142H59.4856V11.1049C59.4856 9.5242 59.3213 8.32594 58.9925 7.50996C58.6292 6.61575 58.0091 5.86013 57.2169 5.34652C56.393 4.79864 55.433 4.51328 54.4551 4.52559C53.482 4.52278 52.5268 4.79749 51.6933 5.31985C50.8894 5.80267 50.2538 6.53842 49.8779 7.42106C49.6896 7.96282 49.5494 8.52131 49.4589 9.0896C49.3448 9.75975 49.2876 10.4391 49.2878 11.1197V23.2231H44.9357V11.3597Z" fill="black"/>
<path fill-rule="evenodd" clip-rule="evenodd" d="M78.1796 4.53156C77.2556 4.52419 76.3403 4.71697 75.492 5.09762C74.6679 5.46446 73.9213 5.99614 73.2945 6.66241C72.6683 7.33849 72.1694 8.1306 71.8238 8.99777C71.4584 9.90916 71.2742 10.8881 71.2822 11.8754C71.2738 12.9183 71.4496 13.9541 71.801 14.9309C72.1146 15.8229 72.603 16.6374 73.2355 17.3226C73.868 18.0079 74.6306 18.5488 75.4748 18.9111C76.3663 19.2944 77.3232 19.4859 78.2879 19.4742C79.2303 19.4834 80.1636 19.2812 81.024 18.8814C82.6957 18.1095 84.0133 16.6917 84.6978 14.928C85.0673 13.9876 85.2524 12.9801 85.2422 11.9643C85.2476 10.9683 85.0626 9.98102 84.6978 9.05994C84.3524 8.17373 83.8408 7.3678 83.193 6.68908C82.5436 6.02563 81.781 5.49394 80.9442 5.12132C80.0737 4.72475 79.1329 4.52282 78.1825 4.52859L78.1796 4.53156ZM87.7477 17.8323C86.8697 19.6948 85.512 21.2675 83.8257 22.3755C82.1469 23.4601 80.2043 24.0216 78.228 23.9937C76.6931 24.0025 75.1732 23.6796 73.7647 23.0453C71.6759 22.0981 69.9007 20.5336 68.6598 18.5462C67.4188 16.5588 66.7668 14.2361 66.7848 11.8665C66.778 10.2937 67.0887 8.7368 67.6968 7.29663C68.8807 4.46449 71.0472 2.20007 73.7647 0.954467C75.1383 0.321457 76.6259 0.000173934 78.1283 0.0120356C80.1866 0.0149708 82.2053 0.599425 83.9689 1.70293C85.7326 2.80643 87.1744 4.38749 88.1407 6.27714C88.7441 7.49014 89.2719 8.74241 89.7199 10.0261L94.3594 23.2231H89.6229L87.7477 17.8323Z" fill="black"/>
<path fill-rule="evenodd" clip-rule="evenodd" d="M96.335 11.3093C96.335 7.85371 97.0739 5.23485 98.5526 3.45273C99.4245 2.37699 100.517 1.51738 101.75 0.936615C102.999 0.327924 104.361 0.0122509 105.74 0.0119629C105.937 0.0119629 106.134 0.0119629 106.333 0.0386355L107.171 0.11569V4.78636C106.936 4.70323 106.698 4.63493 106.456 4.58187C106.235 4.5457 106.012 4.52885 105.789 4.53149C104.93 4.53245 104.086 4.77186 103.347 5.22498C102.587 5.6748 101.951 6.31969 101.5 7.09799C100.929 8.0908 100.661 9.49555 100.661 11.3093V23.2231H96.335V11.3093Z" fill="black"/>
<path fill-rule="evenodd" clip-rule="evenodd" d="M118.825 4.5316C117.9 4.5239 116.984 4.71668 116.135 5.09764C115.311 5.46353 114.565 5.99536 113.94 6.66244C113.31 7.33777 112.809 8.12994 112.461 8.99777C112.095 9.90916 111.912 10.8881 111.919 11.8755C111.91 12.9182 112.085 13.9539 112.435 14.9309C112.75 15.8222 113.239 16.6361 113.871 17.3212C114.503 18.0062 115.265 18.5475 116.109 18.9111C117.001 19.2944 117.958 19.4859 118.922 19.4742C119.865 19.483 120.799 19.2809 121.661 18.8815C123.333 18.1095 124.65 16.6917 125.335 14.928C125.704 13.9875 125.888 12.9799 125.876 11.9644C125.883 10.9685 125.699 9.98128 125.335 9.06003C124.99 8.17377 124.477 7.36783 123.83 6.68911C123.184 6.01843 122.423 5.47874 121.587 5.09764C120.717 4.70133 119.775 4.49941 118.825 4.50492V4.5316ZM128.39 17.8323C127.513 19.6954 126.155 21.2684 124.468 22.3756C122.789 23.4601 120.847 24.0216 118.871 23.9937C117.336 24.0026 115.816 23.6797 114.407 23.0453C112.318 22.0981 110.544 20.5336 109.303 18.5463C108.062 16.5588 107.409 14.2361 107.427 11.8666C107.42 10.2937 107.731 8.73683 108.34 7.29665C109.523 4.46453 111.69 2.2001 114.407 0.954503C115.782 0.320903 117.27 -0.000397628 118.774 0.0120681C120.316 0.0176249 121.84 0.348261 123.255 0.983983C124.671 1.6197 125.948 2.54729 127.008 3.71067C127.71 4.47881 128.308 5.34215 128.787 6.27717C129.387 7.49088 129.914 8.74306 130.362 10.0261L135 23.2231H130.265L128.39 17.8323Z" fill="black"/>
</g>
<defs>
<clipPath id="clip0_647_6706">
<rect width="135" height="24" fill="white"/>
</clipPath>
</defs>
</svg>
