<?xml version="1.0" encoding="UTF-8"?>
<svg version="1.1" xmlns="http://www.w3.org/2000/svg" width="300" height="300">
<path d="M0 0 C4.39705596 3.62401518 8.63036613 7.38228461 12.77734375 11.2890625 C13.44121094 11.88847656 14.10507813 12.48789062 14.7890625 13.10546875 C36.66676799 33.6518737 49.45537127 65.17586623 50.90380859 94.8828125 C51.93435819 132.58648672 40.73944137 165.42517143 14.77734375 193.2890625 C-8.70525519 217.75547912 -42.27255247 231.56641416 -75.95751953 232.50634766 C-111.14836759 233.0442867 -143.95986354 219.60172599 -169.19140625 195.28515625 C-186.2464176 178.52623885 -198.32722163 158.52233051 -204.22265625 135.2890625 C-204.7021875 133.44248047 -204.7021875 133.44248047 -205.19140625 131.55859375 C-209.6476924 110.98953223 -208.82848302 88.52656823 -203.22265625 68.2890625 C-202.89523438 67.0309375 -202.5678125 65.7728125 -202.23046875 64.4765625 C-197.34644775 47.93506073 -188.49808868 32.28476484 -177.22265625 19.2890625 C-176.7627832 18.74846191 -176.30291016 18.20786133 -175.82910156 17.65087891 C-155.92584766 -5.61450218 -129.1812507 -19.36173161 -99.22265625 -24.7109375 C-98.16691406 -24.90300781 -97.11117187 -25.09507813 -96.0234375 -25.29296875 C-61.77501492 -29.05923927 -27.3650175 -21.37777206 0 0 Z " fill="#202022" transform="translate(228.22265625,46.7109375)"/>
<path d="M0 0 C12.21 0 24.42 0 37 0 C37 1.32 37 2.64 37 4 C33.04 4 29.08 4 25 4 C25 4.99 25 5.98 25 7 C28.96 7 32.92 7 37 7 C37 7.99 37 8.98 37 10 C33.04 10 29.08 10 25 10 C25 10.99 25 11.98 25 13 C29.95 13 34.9 13 40 13 C39.9175 11.7625 39.835 10.525 39.75 9.25 C39.73846468 5.99127351 39.80576484 5.25250571 41.875 2.5625 C45.12988362 0.16920322 46.88116258 -0.11583017 50.875 -0.0625 C51.73867187 -0.05347656 52.60234375 -0.04445312 53.4921875 -0.03515625 C54.31976563 -0.02355469 55.14734375 -0.01195312 56 0 C57.32 0 58.64 0 60 0 C61.66666667 0 63.33333333 0 65 0 C65 1.98 65 3.96 65 6 C67.97 6 70.94 6 74 6 C74 4.02 74 2.04 74 0 C75.65 0 77.3 0 79 0 C79 5.61 79 11.22 79 17 C77.35 17 75.7 17 74 17 C74 15.02 74 13.04 74 11 C71.03 11 68.06 11 65 11 C65 13.31 65 15.62 65 18 C65.969375 18.144375 66.93875 18.28875 67.9375 18.4375 C71 19 71 19 72 20 C72.04080783 21.99958364 72.04254356 24.00045254 72 26 C72.66 26 73.32 26 74 26 C74 25.34 74 24.68 74 24 C76.58340384 23.97296438 79.16652308 23.95314389 81.75 23.9375 C82.47960937 23.92912109 83.20921875 23.92074219 83.9609375 23.91210938 C87.48670558 23.89608316 90.61034916 24.04707287 94 25 C94 23.35 94 21.7 94 20 C95.98 20.495 95.98 20.495 98 21 C98 22.65 98 24.3 98 26 C98.99 25.505 98.99 25.505 100 25 C102.5132797 24.87606534 104.98670114 24.81484888 107.5 24.8125 C108.18964844 24.80025391 108.87929687 24.78800781 109.58984375 24.77539062 C111.39477494 24.77011305 113.19917842 24.87815542 115 25 C117.66315194 27.66315194 117.94426493 29.65344068 118.09765625 33.359375 C118.08605469 34.14828125 118.07445312 34.9371875 118.0625 35.75 C118.05347656 36.54921875 118.04445313 37.3484375 118.03515625 38.171875 C118.02355469 38.77515625 118.01195312 39.3784375 118 40 C118.66 40 119.32 40 120 40 C120 35.05 120 30.1 120 25 C133.625 24.875 133.625 24.875 137 26 C138.50156874 29.00313748 138.09281204 31.79067522 138.0625 35.125 C138.05347656 36.40632813 138.04445312 37.68765625 138.03515625 39.0078125 C138.01775391 40.48894531 138.01775391 40.48894531 138 42 C136.68 42 135.36 42 134 42 C134 38.04 134 34.08 134 30 C129.99745544 29.90818866 129.99745544 29.90818866 126 30 C124.12175109 31.87824891 124.60897603 35.03935276 124.4375 37.5625 C124.35371094 38.76003906 124.26992187 39.95757812 124.18359375 41.19140625 C124.12300781 42.11824219 124.06242188 43.04507813 124 44 C123.05898437 43.979375 122.11796875 43.95875 121.1484375 43.9375 C118.04924313 43.99902247 116.59083055 44.40564274 114 46 C113.67 45.67 113.34 45.34 113 45 C110.98405418 44.76572222 108.961526 44.58663876 106.9375 44.4375 C105.83277344 44.35371094 104.72804688 44.26992187 103.58984375 44.18359375 C102.73519531 44.12300781 101.88054687 44.06242187 101 44 C100.67 43.01 100.34 42.02 100 41 C98.51965236 41.47550561 97.04074979 41.95551216 95.5625 42.4375 C94.73878906 42.70433594 93.91507812 42.97117188 93.06640625 43.24609375 C91.03780412 43.82155494 91.03780412 43.82155494 90 45 C84.59347171 45.39446773 79.32596226 44.90654677 74 44 C74 43.34 74 42.68 74 42 C73.34 42 72.68 42 72 42 C72 42.66 72 43.32 72 44 C70.39602723 44.16852247 68.7918131 44.33474886 67.1875 44.5 C66.29417969 44.5928125 65.40085937 44.685625 64.48046875 44.78125 C62 45 62 45 59 45 C57.7109375 45.02320313 56.421875 45.04640625 55.09375 45.0703125 C53.56250418 45.08888914 52.03125395 45.10710555 50.5 45.125 C49.72785156 45.14175781 48.95570313 45.15851563 48.16015625 45.17578125 C44.23984116 45.20975278 42.33717439 45.22478293 39 43 C38.70703125 39.9609375 38.70703125 39.9609375 38.8125 36.375 C38.85310547 34.59222656 38.85310547 34.59222656 38.89453125 32.7734375 C38.92933594 31.85820312 38.96414062 30.94296875 39 30 C37.68 30 36.36 30 35 30 C35 34.29 35 38.58 35 43 C33.35 43.66 31.7 44.32 30 45 C29.01 41.04 28.02 37.08 27 33 C26.67 35.31 26.34 37.62 26 40 C24.515 40.495 24.515 40.495 23 41 C23 41.66 23 42.32 23 43 C21.02 42.67 19.04 42.34 17 42 C16.34 42.99 15.68 43.98 15 45 C12.44421589 45.44126516 10.13367714 45.69397913 7.5625 45.8125 C6.88123047 45.86341797 6.19996094 45.91433594 5.49804688 45.96679688 C1.70888041 46.18575948 0.24504457 46.16336304 -3 44 C-4.3125 41.0625 -4.3125 41.0625 -5 38 C-4.34 37.01 -3.68 36.02 -3 35 C-2.79536567 32.38927165 -2.79536567 32.38927165 -2.9375 29.5625 C-3.05015756 25.9623563 -2.89004451 23.56017805 -2 20 C1.96 20 5.92 20 10 20 C10 19.34 10 18.68 10 18 C9.01 18 8.02 18 7 18 C7 13.38 7 8.76 7 4 C4.69 4 2.38 4 0 4 C0 2.68 0 1.36 0 0 Z " fill="#44161D" transform="translate(110,129)"/>
<path d="M0 0 C0.86367187 0.00902344 1.72734375 0.01804688 2.6171875 0.02734375 C3.44476563 0.03894531 4.27234375 0.05054688 5.125 0.0625 C6.445 0.0625 7.765 0.0625 9.125 0.0625 C10.79166667 0.0625 12.45833333 0.0625 14.125 0.0625 C14.125 2.0425 14.125 4.0225 14.125 6.0625 C17.095 6.0625 20.065 6.0625 23.125 6.0625 C23.125 4.0825 23.125 2.1025 23.125 0.0625 C24.775 0.0625 26.425 0.0625 28.125 0.0625 C28.125 5.6725 28.125 11.2825 28.125 17.0625 C26.475 17.0625 24.825 17.0625 23.125 17.0625 C23.125 15.0825 23.125 13.1025 23.125 11.0625 C20.155 11.0625 17.185 11.0625 14.125 11.0625 C14.125 13.3725 14.125 15.6825 14.125 18.0625 C16.105 18.3925 18.085 18.7225 20.125 19.0625 C19.1659375 19.495625 19.1659375 19.495625 18.1875 19.9375 C15.97293921 20.89073451 15.97293921 20.89073451 15.125 23.0625 C13.145 23.0625 11.165 23.0625 9.125 23.0625 C9.125 28.0125 9.125 32.9625 9.125 38.0625 C6.485 38.0625 3.845 38.0625 1.125 38.0625 C0.465 34.1025 -0.195 30.1425 -0.875 26.0625 C-2.855 26.0625 -4.835 26.0625 -6.875 26.0625 C-7.37 25.0725 -7.37 25.0725 -7.875 24.0625 C-15.465 24.0625 -23.055 24.0625 -30.875 24.0625 C-30.875 24.7225 -30.875 25.3825 -30.875 26.0625 C-31.535 26.0625 -32.195 26.0625 -32.875 26.0625 C-32.86339844 26.84496094 -32.85179687 27.62742188 -32.83984375 28.43359375 C-32.83082031 29.44550781 -32.82179687 30.45742187 -32.8125 31.5 C-32.80089844 32.50933594 -32.78929687 33.51867187 -32.77734375 34.55859375 C-32.875 37.0625 -32.875 37.0625 -33.875 38.0625 C-35.89464199 38.13494053 -37.91667124 38.14627188 -39.9375 38.125 C-41.04222656 38.11597656 -42.14695312 38.10695312 -43.28515625 38.09765625 C-44.56712891 38.08025391 -44.56712891 38.08025391 -45.875 38.0625 C-45.875 36.7425 -45.875 35.4225 -45.875 34.0625 C-43.235 33.7325 -40.595 33.4025 -37.875 33.0625 C-37.545 32.0725 -37.215 31.0825 -36.875 30.0625 C-39.845 29.7325 -42.815 29.4025 -45.875 29.0625 C-45.38 27.5775 -45.38 27.5775 -44.875 26.0625 C-41.575 25.7325 -38.275 25.4025 -34.875 25.0625 C-34.875 23.4125 -34.875 21.7625 -34.875 20.0625 C-36.195 19.4025 -37.515 18.7425 -38.875 18.0625 C-38.545 17.0725 -38.215 16.0825 -37.875 15.0625 C-34.9375 15.4375 -34.9375 15.4375 -31.875 16.0625 C-31.545 16.7225 -31.215 17.3825 -30.875 18.0625 C-22.46 17.5675 -22.46 17.5675 -13.875 17.0625 C-13.215 15.7425 -12.555 14.4225 -11.875 13.0625 C-11.545 13.0625 -11.215 13.0625 -10.875 13.0625 C-10.9575 11.825 -11.04 10.5875 -11.125 9.3125 C-11.13653532 6.05377351 -11.06923516 5.31500571 -9 2.625 C-5.74511638 0.23170322 -3.99383742 -0.05333017 0 0 Z " fill="#23201F" transform="translate(160.875,128.9375)"/>
<path d="M0 0 C0 0.66 0 1.32 0 2 C0.825 2.061875 1.65 2.12375 2.5 2.1875 C7.00352937 3.23296217 10.22657353 5.40457215 14 8 C10.38671875 12.6875 10.38671875 12.6875 9 14 C8.01 14 7.02 14 6 14 C5.90912109 14.92232422 5.90912109 14.92232422 5.81640625 15.86328125 C5.73261719 16.67152344 5.64882812 17.47976562 5.5625 18.3125 C5.48128906 19.11300781 5.40007812 19.91351563 5.31640625 20.73828125 C5 23 5 23 4 26 C4.763125 26.12375 5.52625 26.2475 6.3125 26.375 C9 27 9 27 12 29 C12 29.66 12 30.32 12 31 C10.02 31.66 8.04 32.32 6 33 C6 34.65 6 36.3 6 38 C6.61488281 37.71125 7.22976562 37.4225 7.86328125 37.125 C8.67152344 36.75375 9.47976562 36.3825 10.3125 36 C11.11300781 35.62875 11.91351563 35.2575 12.73828125 34.875 C15 34 15 34 18 34 C18 36.31 18 38.62 18 41 C12.97067506 44.01759496 9.71276096 44.46070653 4 44 C1.7578125 42.98046875 1.7578125 42.98046875 0 42 C-0.04898438 42.71027344 -0.09796875 43.42054688 -0.1484375 44.15234375 C-0.22320312 45.07144531 -0.29796875 45.99054688 -0.375 46.9375 C-0.44460937 47.85402344 -0.51421875 48.77054688 -0.5859375 49.71484375 C-0.72257812 50.46894531 -0.85921875 51.22304687 -1 52 C-1.99 52.495 -1.99 52.495 -3 53 C-3.02505615 52.3201001 -3.0501123 51.6402002 -3.07592773 50.93969727 C-3.19305822 47.81382721 -3.31524656 44.68817372 -3.4375 41.5625 C-3.47681641 40.49322266 -3.51613281 39.42394531 -3.55664062 38.32226562 C-3.80126504 32.16902064 -4.23534 26.11085425 -5 20 C-5.66 20 -6.32 20 -7 20 C-7.28875 18.948125 -7.5775 17.89625 -7.875 16.8125 C-8.85466334 13.149628 -8.85466334 13.149628 -10.1875 10.4375 C-11.27475683 7.1757295 -11.06260783 5.25866401 -10 2 C-6.5113485 -1.00411657 -4.35447859 -1.36855042 0 0 Z " fill="#139083" transform="translate(78,124)"/>
<path d="M0 0 C1.32 0.33 2.64 0.66 4 1 C4 2.65 4 4.3 4 6 C4.66 5.67 5.32 5.34 6 5 C8.5132797 4.87606534 10.98670114 4.81484888 13.5 4.8125 C14.18964844 4.80025391 14.87929687 4.78800781 15.58984375 4.77539062 C17.39477494 4.77011305 19.19917842 4.87815542 21 5 C23.66315194 7.66315194 23.94426493 9.65344068 24.09765625 13.359375 C24.08605469 14.14828125 24.07445312 14.9371875 24.0625 15.75 C24.05347656 16.54921875 24.04445312 17.3484375 24.03515625 18.171875 C24.02355469 18.77515625 24.01195312 19.3784375 24 20 C24.66 20 25.32 20 26 20 C26 15.05 26 10.1 26 5 C39.625 4.875 39.625 4.875 43 6 C44.50156874 9.00313748 44.09281204 11.79067522 44.0625 15.125 C44.05347656 16.40632813 44.04445312 17.68765625 44.03515625 19.0078125 C44.02355469 19.99523437 44.01195312 20.98265625 44 22 C42.68 22 41.36 22 40 22 C40 18.04 40 14.08 40 10 C35.99745544 9.90818866 35.99745544 9.90818866 32 10 C30.12175109 11.87824891 30.60897603 15.03935276 30.4375 17.5625 C30.35371094 18.76003906 30.26992187 19.95757812 30.18359375 21.19140625 C30.09271484 22.58166016 30.09271484 22.58166016 30 24 C29.05898437 23.979375 28.11796875 23.95875 27.1484375 23.9375 C24.04924313 23.99902247 22.59083055 24.40564274 20 26 C19.67 25.67 19.34 25.34 19 25 C16.98405418 24.76572222 14.961526 24.58663876 12.9375 24.4375 C11.83277344 24.35371094 10.72804687 24.26992187 9.58984375 24.18359375 C8.73519531 24.12300781 7.88054687 24.06242187 7 24 C6.67 23.01 6.34 22.02 6 21 C4.02 21.33 2.04 21.66 0 22 C0 14.74 0 7.48 0 0 Z " fill="#681D29" transform="translate(204,149)"/>
<path d="M0 0 C0.86367187 0.00902344 1.72734375 0.01804688 2.6171875 0.02734375 C3.44476563 0.03894531 4.27234375 0.05054688 5.125 0.0625 C6.445 0.0625 7.765 0.0625 9.125 0.0625 C10.79166667 0.0625 12.45833333 0.0625 14.125 0.0625 C14.125 2.0425 14.125 4.0225 14.125 6.0625 C17.095 6.0625 20.065 6.0625 23.125 6.0625 C23.125 4.0825 23.125 2.1025 23.125 0.0625 C24.775 0.0625 26.425 0.0625 28.125 0.0625 C28.125 5.6725 28.125 11.2825 28.125 17.0625 C26.475 17.0625 24.825 17.0625 23.125 17.0625 C23.125 15.0825 23.125 13.1025 23.125 11.0625 C20.155 11.0625 17.185 11.0625 14.125 11.0625 C14.125 13.3725 14.125 15.6825 14.125 18.0625 C11.7989143 18.44313221 9.46444736 18.77519945 7.125 19.0625 C6.795 18.7325 6.465 18.4025 6.125 18.0625 C4.21006033 17.93033392 2.29274908 17.83185514 0.375 17.75 C-3.37349565 17.44655035 -5.70758678 17.14298712 -9.125 15.5 C-11.27904989 12.49971623 -11.53192468 10.59904699 -11.30859375 6.96484375 C-10.65157726 4.08225787 -9.20962725 2.77913768 -6.875 1.0625 C-4.40432381 -0.17283809 -2.7537635 -0.03677132 0 0 Z " fill="#28282A" transform="translate(160.875,128.9375)"/>
<path d="M0 0 C0.495 1.485 0.495 1.485 1 3 C1.99 3.33 2.98 3.66 4 4 C4 4.66 4 5.32 4 6 C0.58978257 5.21302675 -2.68885166 4.12880057 -6 3 C-6 2.34 -6 1.68 -6 1 C-9.85645121 0.77963136 -12.49223216 1.39644899 -16 3 C-15.88557539 4.60495567 -15.75805306 6.20898119 -15.625 7.8125 C-15.55539063 8.70582031 -15.48578125 9.59914062 -15.4140625 10.51953125 C-15.13354964 13.24398499 -15.13354964 13.24398499 -13 16 C-12.875 18.6875 -12.875 18.6875 -13 21 C-12.34 21 -11.68 21 -11 21 C-9.61470179 26.45461169 -8.7603057 31.36718401 -9 37 C-9.33 37 -9.66 37 -10 37 C-10 35.35 -10 33.7 -10 32 C-10.66 32 -11.32 32 -12 32 C-11.87431641 33.15628906 -11.87431641 33.15628906 -11.74609375 34.3359375 C-11.64425781 35.33882812 -11.54242188 36.34171875 -11.4375 37.375 C-11.33308594 38.37273437 -11.22867188 39.37046875 -11.12109375 40.3984375 C-11 43 -11 43 -12 45 C-14.31 45 -16.62 45 -19 45 C-21.18965942 41.50496669 -21.13177878 38.99138781 -20.75 34.9375 C-20.66234375 33.89464844 -20.5746875 32.85179687 -20.484375 31.77734375 C-20 29 -20 29 -18 26 C-17.01 26 -16.02 26 -15 26 C-15.34786708 24.02463255 -15.34786708 24.02463255 -16 22 C-16.66 21.67 -17.32 21.34 -18 21 C-18 19.35 -18 17.7 -18 16 C-19.94999129 16.19471111 -19.94999129 16.19471111 -22 17 C-22.66 18.32 -23.32 19.64 -24 21 C-26.97 21 -29.94 21 -33 21 C-34.28317892 17.15046324 -34.06643637 14.05261865 -34 10 C-33.39671875 9.81824219 -32.7934375 9.63648438 -32.171875 9.44921875 C-27.89789693 8.10498371 -24.47560649 6.91950945 -21 4 C-20.34 4 -19.68 4 -19 4 C-19.33 3.01 -19.66 2.02 -20 1 C-12.78224731 -2.46452129 -7.72813263 -2.87910824 0 0 Z " fill="#102D2C" transform="translate(84,123)"/>
<path d="M0 0 C12.21 0 24.42 0 37 0 C37 1.32 37 2.64 37 4 C33.04 4 29.08 4 25 4 C25 4.99 25 5.98 25 7 C28.96 7 32.92 7 37 7 C37 7.99 37 8.98 37 10 C33.04 10 29.08 10 25 10 C25 10.99 25 11.98 25 13 C28.96 13 32.92 13 37 13 C37 14.65 37 16.3 37 18 C30.73 18.33 24.46 18.66 18 19 C17.67 18.34 17.34 17.68 17 17 C14.97536745 16.34786708 14.97536745 16.34786708 13 16 C13 16.99 13 17.98 13 19 C11.02 18.67 9.04 18.34 7 18 C7 13.38 7 8.76 7 4 C4.69 4 2.38 4 0 4 C0 2.68 0 1.36 0 0 Z " fill="#3A3A3A" transform="translate(110,129)"/>
<path d="M0 0 C0.66 0 1.32 0 2 0 C2 0.66 2 1.32 2 2 C2.99 2 3.98 2 5 2 C6.28317892 5.84953676 6.06643637 8.94738135 6 13 C3.4609375 11.828125 3.4609375 11.828125 0.921875 10.65625 C-1.29242836 9.78457076 -1.29242836 9.78457076 -5 10 C-5 11.32 -5 12.64 -5 14 C-3.35 14.33 -1.7 14.66 0 15 C0.33 17.97 0.66 20.94 1 24 C2.98 24 4.96 24 7 24 C7.33 27.63 7.66 31.26 8 35 C5 37 5 37 1 37 C1 37.66 1 38.32 1 39 C-0.98 39.495 -0.98 39.495 -3 40 C-3 40.66 -3 41.32 -3 42 C-4.953125 42.45572917 -6.90625 42.91145833 -8.859375 43.3671875 C-11.06961277 44.02057896 -12.97226779 44.91306247 -15 46 C-14.85892253 44.54119891 -14.71197585 43.08296449 -14.5625 41.625 C-14.48128906 40.81289062 -14.40007812 40.00078125 -14.31640625 39.1640625 C-14 37 -14 37 -13 35 C-12.505 35.165 -12.01 35.33 -11.5 35.5 C-5.53991488 36.69201702 -0.61395035 36.24558014 5 34 C5 31.69 5 29.38 5 27 C4.30132812 27.28875 3.60265625 27.5775 2.8828125 27.875 C1.97273438 28.24625 1.06265625 28.6175 0.125 29 C-0.77992187 29.37125 -1.68484375 29.7425 -2.6171875 30.125 C-5 31 -5 31 -7 31 C-7 29.35 -7 27.7 -7 26 C-5.02 25.34 -3.04 24.68 -1 24 C-1 23.34 -1 22.68 -1 22 C-3.65228812 20.92474806 -6.28368454 19.90543849 -9 19 C-8.798422 17.05943567 -8.56268261 15.12239852 -8.3125 13.1875 C-8.18488281 12.10855469 -8.05726562 11.02960938 -7.92578125 9.91796875 C-7 7 -7 7 -4.5 5.25 C-3.675 4.8375 -2.85 4.425 -2 4 C-0.67206394 1.93299345 -0.67206394 1.93299345 0 0 Z " fill="#15433F" transform="translate(91,131)"/>
<path d="M0 0 C1.32 0 2.64 0 4 0 C4 7.26 4 14.52 4 22 C0.57625 22.061875 -2.8475 22.12375 -6.375 22.1875 C-7.45313965 22.21481201 -8.5312793 22.24212402 -9.64208984 22.27026367 C-10.91366943 22.28150269 -10.91366943 22.28150269 -12.2109375 22.29296875 C-13.08024902 22.3086792 -13.94956055 22.32438965 -14.84521484 22.34057617 C-15.55629395 22.22818604 -16.26737305 22.1157959 -17 22 C-19.49118953 18.2632157 -19.2065226 16.25548181 -19.125 11.8125 C-19.10695312 10.54019531 -19.08890625 9.26789063 -19.0703125 7.95703125 C-19.04710937 6.98121094 -19.02390625 6.00539062 -19 5 C-18.01 5.33 -17.02 5.66 -16 6 C-15.03929566 8.88211302 -14.89418117 10.69850044 -14.9375 13.6875 C-14.94652344 14.49574219 -14.95554688 15.30398437 -14.96484375 16.13671875 C-14.97644531 16.75160156 -14.98804688 17.36648437 -15 18 C-12.36 18 -9.72 18 -7 18 C-7 13.05 -7 8.1 -7 3 C-5.02 3 -3.04 3 -1 3 C-0.67 2.01 -0.34 1.02 0 0 Z " fill="#51101B" transform="translate(177,149)"/>
<path d="M0 0 C10.56 0 21.12 0 32 0 C32 0.66 32 1.32 32 2 C32.99 2.33 33.98 2.66 35 3 C36.97138475 5.59722118 36.99775231 7.05503627 36.86328125 10.34765625 C36.68152344 11.57355469 36.49976563 12.79945313 36.3125 14.0625 C36.14363281 15.29097656 35.97476563 16.51945312 35.80078125 17.78515625 C35.01774436 20.9287629 34.53638335 22.09247203 32 24 C31.4121875 23.2265625 31.4121875 23.2265625 30.8125 22.4375 C30.214375 21.963125 29.61625 21.48875 29 21 C26.34533951 21.23043864 26.34533951 21.23043864 24 22 C23.67 20.68 23.34 19.36 23 18 C22.01 19.98 21.02 21.96 20 24 C18.68 23.67 17.36 23.34 16 23 C16 22.34 16 21.68 16 21 C17.32 21 18.64 21 20 21 C19.97679687 20.08476562 19.95359375 19.16953125 19.9296875 18.2265625 C19.91164062 17.03804687 19.89359375 15.84953125 19.875 14.625 C19.85179687 13.44164062 19.82859375 12.25828125 19.8046875 11.0390625 C20 8 20 8 22 6 C27.33333333 5.66666667 27.33333333 5.66666667 30 7 C30 10.96 30 14.92 30 19 C31.32 19 32.64 19 34 19 C33.67 13.72 33.34 8.44 33 3 C27.39 2.67 21.78 2.34 16 2 C16 6.95 16 11.9 16 17 C15.34 17 14.68 17 14 17 C13.86722656 16.07316406 13.73445312 15.14632812 13.59765625 14.19140625 C13.33275391 12.39509766 13.33275391 12.39509766 13.0625 10.5625 C12.88847656 9.36753906 12.71445313 8.17257813 12.53515625 6.94140625 C12.31014787 4.12044324 12.31014787 4.12044324 11 3 C8.98405418 2.76572222 6.961526 2.58663876 4.9375 2.4375 C3.83277344 2.35371094 2.72804687 2.26992187 1.58984375 2.18359375 C0.73519531 2.12300781 -0.11945313 2.06242188 -1 2 C-0.67 1.34 -0.34 0.68 0 0 Z " fill="#2A1517" transform="translate(214,152)"/>
<path d="M0 0 C0.33 0.66 0.66 1.32 1 2 C0.67 2.99 0.34 3.98 0 5 C1.1446875 5.185625 1.1446875 5.185625 2.3125 5.375 C5 6 5 6 8 8 C8 8.66 8 9.32 8 10 C6.02 10.66 4.04 11.32 2 12 C2 13.65 2 15.3 2 17 C2.61488281 16.71125 3.22976562 16.4225 3.86328125 16.125 C4.67152344 15.75375 5.47976562 15.3825 6.3125 15 C7.11300781 14.62875 7.91351563 14.2575 8.73828125 13.875 C11 13 11 13 14 13 C14 15.31 14 17.62 14 20 C8.97067506 23.01759496 5.71276096 23.46070653 0 23 C-2.5 22 -2.5 22 -4 21 C-4.33 21.66 -4.66 22.32 -5 23 C-3.33333333 3.33333333 -3.33333333 3.33333333 0 0 Z " fill="#148475" transform="translate(82,145)"/>
<path d="M0 0 C0 0.66 0 1.32 0 2 C2.97 2.495 2.97 2.495 6 3 C2.25 4.125 2.25 4.125 0 3 C0 3.66 0 4.32 0 5 C1.65 5.33 3.3 5.66 5 6 C3.71034824 7.37562854 2.37310707 8.70766393 1 10 C0.34 10 -0.32 10 -1 10 C-0.90460938 10.61488281 -0.80921875 11.22976562 -0.7109375 11.86328125 C-0.60007812 12.67152344 -0.48921875 13.47976562 -0.375 14.3125 C-0.25898437 15.11300781 -0.14296875 15.91351563 -0.0234375 16.73828125 C0 19 0 19 -2 22 C-2.39387788 24.32387947 -2.73486085 26.65793749 -3 29 C-4.85776765 25.86501708 -5.20140476 23.62528568 -5 20 C-5.66 20 -6.32 20 -7 20 C-7.28875 18.948125 -7.5775 17.89625 -7.875 16.8125 C-8.85466334 13.149628 -8.85466334 13.149628 -10.1875 10.4375 C-11.27475683 7.1757295 -11.06260783 5.25866401 -10 2 C-6.5113485 -1.00411657 -4.35447859 -1.36855042 0 0 Z " fill="#098478" transform="translate(78,124)"/>
<path d="M0 0 C5.28 0 10.56 0 16 0 C16 1.32 16 2.64 16 4 C12.04 4 8.08 4 4 4 C4 4.99 4 5.98 4 7 C7.96 7 11.92 7 16 7 C16 7.99 16 8.98 16 10 C12.04 10 8.08 10 4 10 C4 10.99 4 11.98 4 13 C7.96 13 11.92 13 16 13 C16 14.32 16 15.64 16 17 C10.72 17 5.44 17 0 17 C0 11.39 0 5.78 0 0 Z " fill="#F0F0F1" transform="translate(131,129)"/>
<path d="M0 0 C1.32 0 2.64 0 4 0 C4 1.98 4 3.96 4 6 C6.97 6 9.94 6 13 6 C13 4.02 13 2.04 13 0 C14.65 0 16.3 0 18 0 C18 5.61 18 11.22 18 17 C16.35 17 14.7 17 13 17 C13 15.02 13 13.04 13 11 C10.03 11 7.06 11 4 11 C4 12.98 4 14.96 4 17 C2.68 17 1.36 17 0 17 C0 11.39 0 5.78 0 0 Z " fill="#E9EAEA" transform="translate(171,129)"/>
<path d="M0 0 C1.30496945 2.6099389 1.36866282 5.15392788 1.62109375 8.02734375 C1.92764721 10.31157854 1.92764721 10.31157854 4 13 C4.125 15.6875 4.125 15.6875 4 18 C4.66 18 5.32 18 6 18 C7.38529821 23.45461169 8.2396943 28.36718401 8 34 C7.67 34 7.34 34 7 34 C7 32.35 7 30.7 7 29 C6.34 29 5.68 29 5 29 C5.08378906 29.77085937 5.16757813 30.54171875 5.25390625 31.3359375 C5.35574219 32.33882812 5.45757812 33.34171875 5.5625 34.375 C5.66691406 35.37273437 5.77132812 36.37046875 5.87890625 37.3984375 C6 40 6 40 5 42 C3.02 42 1.04 42 -1 42 C-1 36.72 -1 31.44 -1 26 C0.65 26 2.3 26 4 26 C2.82304918 19.76216065 0.53920011 14.99129603 -2.66015625 9.515625 C-3.84582393 7.28947343 -4.53427724 5.46085604 -5 3 C-3.35 2.01 -1.7 1.02 0 0 Z " fill="#18574F" transform="translate(67,126)"/>
<path d="M0 0 C3.62544051 -0.08063171 7.24910455 -0.14032292 10.875 -0.1875 C12.42380859 -0.22520508 12.42380859 -0.22520508 14.00390625 -0.26367188 C14.99003906 -0.27333984 15.97617188 -0.28300781 16.9921875 -0.29296875 C17.90339355 -0.3086792 18.81459961 -0.32438965 19.75341797 -0.34057617 C20.49479004 -0.22818604 21.23616211 -0.1157959 22 0 C24.49118953 3.7367843 24.2065226 5.74451819 24.125 10.1875 C24.10695312 11.45980469 24.08890625 12.73210937 24.0703125 14.04296875 C24.04710937 15.01878906 24.02390625 15.99460938 24 17 C23.01 17 22.02 17 21 17 C20.505 10.565 20.505 10.565 20 4 C18.02 4 16.04 4 14 4 C13.67 8.29 13.34 12.58 13 17 C12.01 17 11.02 17 10 17 C10 12.38 10 7.76 10 3 C7.36 3 4.72 3 2 3 C2 7.29 2 11.58 2 16 C1.34 16 0.68 16 0 16 C0 10.72 0 5.44 0 0 Z " fill="#932B3F" transform="translate(130,154)"/>
<path d="M0 0 C1.32 0 2.64 0 4 0 C4.10787818 2.77186988 4.18723327 5.53955537 4.25 8.3125 C4.30027344 9.49102539 4.30027344 9.49102539 4.3515625 10.69335938 C4.45001593 16.47749828 4.45001593 16.47749828 2.25390625 19.02734375 C-0.1611868 20.06955895 -1.69582677 20.34295464 -4.3125 20.25 C-5.48039063 20.21132812 -5.48039063 20.21132812 -6.671875 20.171875 C-9.82124833 19.93937093 -12.8868022 19.52990601 -16 19 C-16 18.34 -16 17.68 -16 17 C-10.72 16.67 -5.44 16.34 0 16 C0 13.36 0 10.72 0 8 C-4.29 7.67 -8.58 7.34 -13 7 C-12.67 5.68 -12.34 4.36 -12 3 C-8.04 3 -4.08 3 0 3 C0 2.01 0 1.02 0 0 Z " fill="#381317" transform="translate(200,154)"/>
<path d="M0 0 C1.27617187 0.02320313 2.55234375 0.04640625 3.8671875 0.0703125 C5.78917969 0.09738281 5.78917969 0.09738281 7.75 0.125 C9.23113281 0.15980469 9.23113281 0.15980469 10.7421875 0.1953125 C10.7421875 1.1853125 10.7421875 2.1753125 10.7421875 3.1953125 C4.8021875 3.6903125 4.8021875 3.6903125 -1.2578125 4.1953125 C-1.5878125 5.1853125 -1.9178125 6.1753125 -2.2578125 7.1953125 C-1.49855469 7.16050781 -0.73929688 7.12570313 0.04296875 7.08984375 C1.53376953 7.04923828 1.53376953 7.04923828 3.0546875 7.0078125 C4.04082031 6.97300781 5.02695313 6.93820313 6.04296875 6.90234375 C8.7421875 7.1953125 8.7421875 7.1953125 10.609375 8.51171875 C11.7421875 10.1953125 11.7421875 10.1953125 11.5546875 13.3203125 C11.2865625 14.2690625 11.0184375 15.2178125 10.7421875 16.1953125 C7.73905002 17.69688124 4.95151228 17.28812454 1.6171875 17.2578125 C0.33585938 17.24878906 -0.94546875 17.23976562 -2.265625 17.23046875 C-3.74675781 17.21306641 -3.74675781 17.21306641 -5.2578125 17.1953125 C-5.2578125 16.2053125 -5.2578125 15.2153125 -5.2578125 14.1953125 C-0.9678125 14.1953125 3.3221875 14.1953125 7.7421875 14.1953125 C7.7421875 12.8753125 7.7421875 11.5553125 7.7421875 10.1953125 C4.1121875 10.1953125 0.4821875 10.1953125 -3.2578125 10.1953125 C-3.2578125 9.5353125 -3.2578125 8.8753125 -3.2578125 8.1953125 C-3.9178125 8.1953125 -4.5778125 8.1953125 -5.2578125 8.1953125 C-5.3828125 5.3203125 -5.3828125 5.3203125 -5.2578125 2.1953125 C-3.2578125 0.1953125 -3.2578125 0.1953125 0 0 Z " fill="#942E42" transform="translate(189.2578125,153.8046875)"/>
<path d="M0 0 C0.886875 -0.00257813 1.77375 -0.00515625 2.6875 -0.0078125 C5 0.125 5 0.125 7 1.125 C6.67 2.445 6.34 3.765 6 5.125 C5.30132812 5.11339844 4.60265625 5.10179687 3.8828125 5.08984375 C2.97273437 5.08082031 2.06265625 5.07179687 1.125 5.0625 C0.22007812 5.05089844 -0.68484375 5.03929687 -1.6171875 5.02734375 C-4.0168585 4.96250743 -4.0168585 4.96250743 -6 6.125 C-6 7.775 -6 9.425 -6 11.125 C-2.09971775 13.72518816 1.47434569 13.27585514 6 13.125 C6.33 14.115 6.66 15.105 7 16.125 C3.04913603 18.10043199 -1.69309533 17.5532081 -6 17.125 C-9.1875 15.625 -9.1875 15.625 -11 13.125 C-11.63203936 10.32104358 -11.63892594 7.92821563 -11 5.125 C-7.72475982 0.86718777 -5.21738811 -0.01516683 0 0 Z " fill="#F0F0F1" transform="translate(161,128.875)"/>
<path d="M0 0 C4.95 0 9.9 0 15 0 C15 0.99 15 1.98 15 3 C11.04 3 7.08 3 3 3 C3 4.98 3 6.96 3 9 C6.3 9 9.6 9 13 9 C13 9.66 13 10.32 13 11 C9.7 11 6.4 11 3 11 C3 12.98 3 14.96 3 17 C7.29 17.33 11.58 17.66 16 18 C16 18.66 16 19.32 16 20 C10.72 20 5.44 20 0 20 C0 13.4 0 6.8 0 0 Z " fill="#9C3046" transform="translate(110,151)"/>
<path d="M0 0 C0.33 0 0.66 0 1 0 C1 1.98 1 3.96 1 6 C1.66 6 2.32 6 3 6 C3 5.34 3 4.68 3 4 C8.28 4 13.56 4 19 4 C19 4.33 19 4.66 19 5 C14.38 5.33 9.76 5.66 5 6 C4.34 8.31 3.68 10.62 3 13 C3.66 13 4.32 13 5 13 C5 13.66 5 14.32 5 15 C8.63 15 12.26 15 16 15 C16 16.32 16 17.64 16 19 C11.71 19 7.42 19 3 19 C3 19.99 3 20.98 3 22 C2.01 22 1.02 22 0 22 C0 14.74 0 7.48 0 0 Z " fill="#480E14" transform="translate(181,149)"/>
<path d="M0 0 C3.3 0 6.6 0 10 0 C11.71466036 3.42932071 11.05404056 7.21716065 11 11 C7.04 11 3.08 11 -1 11 C-1.125 2.25 -1.125 2.25 0 0 Z " fill="#2B1716" transform="translate(214,157)"/>
<path d="M0 0 C6.27 0 12.54 0 19 0 C19 1.32 19 2.64 19 4 C16.36 4 13.72 4 11 4 C11 8.29 11 12.58 11 17 C9.68 17 8.36 17 7 17 C7 12.71 7 8.42 7 4 C4.69 4 2.38 4 0 4 C0 2.68 0 1.36 0 0 Z " fill="#EEEDED" transform="translate(110,129)"/>
<path d="M0 0 C0.99 0.33 1.98 0.66 3 1 C3 5.29 3 9.58 3 14 C6.3 14 9.6 14 13 14 C13 9.71 13 5.42 13 1 C13.99 0.67 14.98 0.34 16 0 C16 5.61 16 11.22 16 17 C13.73125 17.061875 11.4625 17.12375 9.125 17.1875 C7.21074219 17.23970703 7.21074219 17.23970703 5.2578125 17.29296875 C4.18273437 17.19628906 3.10765625 17.09960938 2 17 C-0.49118953 13.2632157 -0.2065226 11.25548181 -0.125 6.8125 C-0.10695312 5.54019531 -0.08890625 4.26789063 -0.0703125 2.95703125 C-0.04710937 1.98121094 -0.02390625 1.00539062 0 0 Z " fill="#9C2D43" transform="translate(158,154)"/>
<path d="M0 0 C0.99 0 1.98 0 3 0 C3 0.66 3 1.32 3 2 C2.34 2 1.68 2 1 2 C1.01160156 2.78246094 1.02320313 3.56492188 1.03515625 4.37109375 C1.04417969 5.38300781 1.05320313 6.39492187 1.0625 7.4375 C1.07410156 8.44683594 1.08570313 9.45617187 1.09765625 10.49609375 C1 13 1 13 0 14 C-2.01964199 14.07244053 -4.04167124 14.08377188 -6.0625 14.0625 C-7.16722656 14.05347656 -8.27195312 14.04445312 -9.41015625 14.03515625 C-10.69212891 14.01775391 -10.69212891 14.01775391 -12 14 C-12 12.68 -12 11.36 -12 10 C-9.36 9.67 -6.72 9.34 -4 9 C-3.67 8.01 -3.34 7.02 -3 6 C-5.97 5.67 -8.94 5.34 -12 5 C-11.67 4.01 -11.34 3.02 -11 2 C-10.28972656 1.93941406 -9.57945313 1.87882813 -8.84765625 1.81640625 C-7.46900391 1.69072266 -7.46900391 1.69072266 -6.0625 1.5625 C-5.14597656 1.48128906 -4.22945313 1.40007812 -3.28515625 1.31640625 C-1.03840268 1.23955024 -1.03840268 1.23955024 0 0 Z " fill="#33191E" transform="translate(127,153)"/>
<path d="M0 0 C0.33 0.99 0.66 1.98 1 3 C1.99 2.34 2.98 1.68 4 1 C4.99 1.33 5.98 1.66 7 2 C6.01 2.33 5.02 2.66 4 3 C4 6.63 4 10.26 4 14 C3.34 14 2.68 14 2 14 C1.01 15.485 1.01 15.485 0 17 C0 15.68 0 14.36 0 13 C-3.96 13 -7.92 13 -12 13 C-12 12.01 -12 11.02 -12 10 C-8.04 10 -4.08 10 0 10 C0 9.01 0 8.02 0 7 C-3.96 7 -7.92 7 -12 7 C-12 6.01 -12 5.02 -12 4 C-8.04 4 -4.08 4 0 4 C0 2.68 0 1.36 0 0 Z " fill="#434344" transform="translate(147,129)"/>
<path d="M0 0 C1.39456452 0.00667256 2.78911118 0.01863093 4.18359375 0.03515625 C4.89451172 0.03966797 5.60542969 0.04417969 6.33789062 0.04882812 C8.09899388 0.06064761 9.86005411 0.07858362 11.62109375 0.09765625 C13.12266249 3.10079373 12.71390579 5.88833147 12.68359375 9.22265625 C12.67457031 10.50398437 12.66554687 11.7853125 12.65625 13.10546875 C12.64464844 14.09289062 12.63304687 15.0803125 12.62109375 16.09765625 C11.30109375 16.09765625 9.98109375 16.09765625 8.62109375 16.09765625 C8.62109375 11.47765625 8.62109375 6.85765625 8.62109375 2.09765625 C5.32109375 2.42765625 2.02109375 2.75765625 -1.37890625 3.09765625 C-1.70890625 7.38765625 -2.03890625 11.67765625 -2.37890625 16.09765625 C-3.03890625 15.76765625 -3.69890625 15.43765625 -4.37890625 15.09765625 C-4.40576037 12.78521833 -4.42523466 10.47269355 -4.44140625 8.16015625 C-4.45300781 6.87238281 -4.46460938 5.58460938 -4.4765625 4.2578125 C-4.34887021 0.12568989 -4.34887021 0.12568989 0 0 Z " fill="#84293B" transform="translate(235.37890625,154.90234375)"/>
<path d="M0 0 C0.66 0 1.32 0 2 0 C2 4.95 2 9.9 2 15 C2.66 15 3.32 15 4 15 C4 10.71 4 6.42 4 2 C4.99 2.33 5.98 2.66 7 3 C6.34 3 5.68 3 5 3 C5 7.62 5 12.24 5 17 C2.69 16.67 0.38 16.34 -2 16 C-2 15.34 -2 14.68 -2 14 C-6.62 14 -11.24 14 -16 14 C-15.67 11.69 -15.34 9.38 -15 7 C-11.7 7 -8.4 7 -5 7 C-5 7.33 -5 7.66 -5 8 C-7.64 8 -10.28 8 -13 8 C-13 9.32 -13 10.64 -13 12 C-7.06 11.505 -7.06 11.505 -1 11 C-0.67 7.37 -0.34 3.74 0 0 Z " fill="#611827" transform="translate(128,155)"/>
<path d="M0 0 C9.17286652 1.33041575 9.17286652 1.33041575 12.625 4.125 C13.07875 4.74375 13.5325 5.3625 14 6 C11.6875 8.5 11.6875 8.5 9 11 C8.01 11 7.02 11 6 11 C6.061875 12.423125 6.061875 12.423125 6.125 13.875 C6 17 6 17 4 19 C3.28072705 21.31765729 2.6090107 23.65095874 2 26 C1.67 26 1.34 26 1 26 C0.80705592 21.17639811 1.24252386 17.50353262 3 13 C3.66 13 4.32 13 5 13 C4.34 11.02 3.68 9.04 3 7 C3.66 7 4.32 7 5 7 C5 5.68 5 4.36 5 3 C3.35 2.67 1.7 2.34 0 2 C0 1.34 0 0.68 0 0 Z " fill="#248983" transform="translate(78,127)"/>
<path d="M0 0 C1.32 0 2.64 0 4 0 C4 1.98 4 3.96 4 6 C6.97 6 9.94 6 13 6 C13 6.33 13 6.66 13 7 C10.94921875 7.22786458 8.8984375 7.45572917 6.84765625 7.68359375 C4.98859771 7.81886614 4.98859771 7.81886614 4 9 C6.97 9.33 9.94 9.66 13 10 C13 10.33 13 10.66 13 11 C10.03 11 7.06 11 4 11 C4 12.98 4 14.96 4 17 C2.68 17 1.36 17 0 17 C0 11.39 0 5.78 0 0 Z " fill="#DCDCDD" transform="translate(171,129)"/>
<path d="M0 0 C0.33 0.99 0.66 1.98 1 3 C1.99 3.33 2.98 3.66 4 4 C4 4.66 4 5.32 4 6 C0.58978257 5.21302675 -2.68885166 4.12880057 -6 3 C-6 2.34 -6 1.68 -6 1 C-10.04500947 0.71362765 -12.24580226 1.39641564 -15.6875 3.5 C-19.81944444 6 -19.81944444 6 -22 6 C-22 6.66 -22 7.32 -22 8 C-22.99 7.67 -23.98 7.34 -25 7 C-21.25 4 -21.25 4 -19 4 C-19.33 3.01 -19.66 2.02 -20 1 C-12.78224731 -2.46452129 -7.72813263 -2.87910824 0 0 Z " fill="#12302E" transform="translate(84,123)"/>
<path d="M0 0 C10.02355489 -0.20272358 19.99847189 0.41960044 30 1 C30 1.33 30 1.66 30 2 C25.38 2 20.76 2 16 2 C16 6.95 16 11.9 16 17 C15.34 17 14.68 17 14 17 C13.86722656 16.07316406 13.73445312 15.14632812 13.59765625 14.19140625 C13.33275391 12.39509766 13.33275391 12.39509766 13.0625 10.5625 C12.88847656 9.36753906 12.71445313 8.17257813 12.53515625 6.94140625 C12.31014787 4.12044324 12.31014787 4.12044324 11 3 C8.98405418 2.76572222 6.961526 2.58663876 4.9375 2.4375 C3.83277344 2.35371094 2.72804687 2.26992187 1.58984375 2.18359375 C0.73519531 2.12300781 -0.11945313 2.06242188 -1 2 C-0.67 1.34 -0.34 0.68 0 0 Z " fill="#3A1119" transform="translate(214,152)"/>
<path d="M0 0 C0.66 0 1.32 0 2 0 C2 0.66 2 1.32 2 2 C2.99 2 3.98 2 5 2 C6.28317892 5.84953676 6.06643637 8.94738135 6 13 C2.04 11.35 -1.92 9.7 -6 8 C-5.195625 7.236875 -4.39125 6.47375 -3.5625 5.6875 C-0.83200976 3.20569102 -0.83200976 3.20569102 0 0 Z " fill="#165B4F" transform="translate(91,131)"/>
<path d="M0 0 C0.33 0 0.66 0 1 0 C1 3.63 1 7.26 1 11 C4.93754535 11.02690805 8.87490782 11.0467945 12.8125 11.0625 C13.93205078 11.07087891 15.05160156 11.07925781 16.20507812 11.08789062 C17.27822266 11.09111328 18.35136719 11.09433594 19.45703125 11.09765625 C20.44678955 11.10289307 21.43654785 11.10812988 22.45629883 11.11352539 C25.12392734 11.11069959 25.12392734 11.11069959 28 10 C30.6875 10.4375 30.6875 10.4375 33 11 C33 11.66 33 12.32 33 13 C31.39602723 13.16852247 29.7918131 13.33474886 28.1875 13.5 C27.29417969 13.5928125 26.40085938 13.685625 25.48046875 13.78125 C23 14 23 14 20 14 C18.06640625 14.03480469 18.06640625 14.03480469 16.09375 14.0703125 C14.56250418 14.08888914 13.03125395 14.10710555 11.5 14.125 C10.72785156 14.14175781 9.95570313 14.15851563 9.16015625 14.17578125 C5.23984116 14.20975278 3.33717439 14.22478293 0 12 C-0.29296875 9.1796875 -0.29296875 9.1796875 -0.1875 5.875 C-0.16042969 4.77929688 -0.13335937 3.68359375 -0.10546875 2.5546875 C-0.07066406 1.71164063 -0.03585938 0.86859375 0 0 Z " fill="#31171D" transform="translate(149,160)"/>
<path d="M0 0 C0.66 0.33 1.32 0.66 2 1 C2 1.66 2 2.32 2 3 C-0.25919734 5.25919734 -2.35251798 7.19489862 -5 9 C-5.93972656 8.95617188 -6.87945312 8.91234375 -7.84765625 8.8671875 C-11.89627236 9.03776117 -13.20362785 10.33533278 -16.1875 13 C-20.70833333 17 -20.70833333 17 -24 17 C-18.81788088 11.84596825 -13.29562673 7.70725322 -7.0625 3.9375 C-6.39984131 3.53152588 -5.73718262 3.12555176 -5.05444336 2.70727539 C-3.40824604 1.73619083 -1.70738034 0.85896638 0 0 Z " fill="#383338" transform="translate(88,36)"/>
<path d="M0 0 C1.99954746 -0.04254356 4.00041636 -0.04080783 6 0 C7 1 7 1 7.125 3.5 C7 6 7 6 6 7 C3.41977858 7.28221172 0.83969815 7.44820197 -1.75 7.62109375 C-2.86375 7.80865234 -2.86375 7.80865234 -4 8 C-4.33 8.66 -4.66 9.32 -5 10 C-3.329375 9.9690625 -3.329375 9.9690625 -1.625 9.9375 C2 10 2 10 4 11 C3.67 11.99 3.34 12.98 3 14 C3 13.34 3 12.68 3 12 C-0.3 12 -3.6 12 -7 12 C-7 10.02 -7 8.04 -7 6 C-3.04 6 0.92 6 5 6 C5 5.01 5 4.02 5 3 C0.05 3 -4.9 3 -10 3 C-10 2.67 -10 2.34 -10 2 C-6.7 1.67 -3.4 1.34 0 1 C0 0.67 0 0.34 0 0 Z " fill="#5F1622" transform="translate(120,148)"/>
<path d="M0 0 C1.32 0.66 2.64 1.32 4 2 C3.01 2.495 3.01 2.495 2 3 C2 4.32 2 5.64 2 7 C3.65 7.33 5.3 7.66 7 8 C7.33 10.64 7.66 13.28 8 16 C7.34 16.33 6.68 16.66 6 17 C6 16.34 6 15.68 6 15 C3.34771188 13.92474806 0.71631546 12.90543849 -2 12 C-1.34 8.04 -0.68 4.08 0 0 Z " fill="#1E3938" transform="translate(84,138)"/>
<path d="M0 0 C0 2.31 0 4.62 0 7 C-5.02932494 10.01759496 -8.28723904 10.46070653 -14 10 C-16.5 9 -16.5 9 -18 8 C-18.33 8.66 -18.66 9.32 -19 10 C-19 8.35 -19 6.7 -19 5 C-18.38125 5.33 -17.7625 5.66 -17.125 6 C-12.73788488 7.40387684 -8.56848573 7.15967523 -4 7 C-4.66 5.02 -5.32 3.04 -6 1 C-3 0 -3 0 0 0 Z " fill="#126F62" transform="translate(96,158)"/>
<path d="M0 0 C0.66 0 1.32 0 2 0 C3.83935859 3.10391762 4.55472439 5.39429145 4 9 C2.21302449 11.15926208 0.82775588 11.87841815 -1.94140625 12.28515625 C-5.15162797 12.42113249 -7.37927478 12.46554391 -10 10.5 C-10.33 10.005 -10.66 9.51 -11 9 C-10.67 8.01 -10.34 7.02 -10 6 C-6.44219804 6.60990891 -3.3171411 7.5783681 0 9 C0 6.03 0 3.06 0 0 Z " fill="#152E2C" transform="translate(96,134)"/>
<path d="M0 0 C1.65 0.66 3.3 1.32 5 2 C5 3.65 5 5.3 5 7 C6.32 7.33 7.64 7.66 9 8 C7.35 8.33 5.7 8.66 4 9 C3.67 7.35 3.34 5.7 3 4 C2.01 3.67 1.02 3.34 0 3 C0 4.65 0 6.3 0 8 C-6.6 7.67 -13.2 7.34 -20 7 C-20 7.66 -20 8.32 -20 9 C-20.66 9 -21.32 9 -22 9 C-22 7.02 -22 5.04 -22 3 C-21.67 3.66 -21.34 4.32 -21 5 C-14.73 5.33 -8.46 5.66 -2 6 C-2 4.68 -2 3.36 -2 2 C-1.34 2 -0.68 2 0 2 C0 1.34 0 0.68 0 0 Z " fill="#2C181A" transform="translate(204,146)"/>
<path d="M0 0 C0.99 0 1.98 0 3 0 C3 7.26 3 14.52 3 22 C2.01 22 1.02 22 0 22 C0 14.74 0 7.48 0 0 Z " fill="#922E42" transform="translate(178,149)"/>
<path d="M0 0 C2.31243792 -0.02685412 4.6249627 -0.04632841 6.9375 -0.0625 C8.22527344 -0.07410156 9.51304687 -0.08570313 10.83984375 -0.09765625 C14 0 14 0 15 1 C15.0989294 3.16480797 15.129711 5.33293785 15.125 7.5 C15.12757813 8.6859375 15.13015625 9.871875 15.1328125 11.09375 C15 14 15 14 14 15 C11.32941149 15.14115161 8.67567762 15.04247107 6 15 C6 14.67 6 14.34 6 14 C7.98 13.67 9.96 13.34 12 13 C12 9.37 12 5.74 12 2 C6.06 2.495 6.06 2.495 0 3 C0 2.01 0 1.02 0 0 Z " fill="#A13348" transform="translate(212,155)"/>
<path d="M0 0 C0.55171875 0.31710938 1.1034375 0.63421875 1.671875 0.9609375 C4.28477989 2.12709975 6.40579002 2.40045711 9.25 2.625 C10.14203125 2.69976562 11.0340625 2.77453125 11.953125 2.8515625 C12.96632812 2.92503906 12.96632812 2.92503906 14 3 C11.99489938 4.01301535 10.00615686 4.997388 7.9375 5.875 C5.61381682 7.22423539 4.4780359 8.78294615 3 11 C-1.76132597 6.69944751 -1.76132597 6.69944751 -2 3 C-1.34 2.01 -0.68 1.02 0 0 Z " fill="#2E2F2F" transform="translate(151,143)"/>
<path d="M0 0 C2.125 0.9375 2.125 0.9375 4 2 C4 4.31 4 6.62 4 9 C2.02 9.99 0.04 10.98 -2 12 C-2 8.37 -2 4.74 -2 1 C-1.34 0.67 -0.68 0.34 0 0 Z " fill="#1E5D53" transform="translate(55,132)"/>
<path d="M0 0 C0 3.66666667 0 7.33333333 0 11 C0.66 11 1.32 11 2 11 C5.03901852 16.82478551 5.3540919 21.48208608 5 28 C3.25434889 24.78360346 2.795563 22.67986596 3 19 C2.34 19 1.68 19 1 19 C0.71125 17.948125 0.4225 16.89625 0.125 15.8125 C-0.85466334 12.149628 -0.85466334 12.149628 -2.1875 9.4375 C-3.24097633 6.27707102 -2.86815346 4.18322937 -2 1 C-1.34 0.67 -0.68 0.34 0 0 Z " fill="#0E6F66" transform="translate(70,125)"/>
<path d="M0 0 C3 1 3 1 4.16796875 3.109375 C4.50441406 3.98078125 4.84085937 4.8521875 5.1875 5.75 C5.53167969 6.61109375 5.87585938 7.4721875 6.23046875 8.359375 C7.01419245 11.04870098 7.14520761 13.21601956 7 16 C5.02 16 3.04 16 1 16 C1.66 14.02 2.32 12.04 3 10 C2.01 10.495 2.01 10.495 1 11 C0.67 7.37 0.34 3.74 0 0 Z " fill="#1C171B" transform="translate(264,93)"/>
<path d="M0 0 C0.66 0 1.32 0 2 0 C1.855625 1.216875 1.71125 2.43375 1.5625 3.6875 C0.9633466 8.90512751 0.66412293 14.13186782 0.37890625 19.375 C0.25386719 20.24125 0.12882812 21.1075 0 22 C-0.66 22.33 -1.32 22.66 -2 23 C-2 16.07 -2 9.14 -2 2 C-1.34 2 -0.68 2 0 2 C0 1.34 0 0.68 0 0 Z " fill="#4B9388" transform="translate(77,154)"/>
<path d="M0 0 C1.79244141 0.01740234 1.79244141 0.01740234 3.62109375 0.03515625 C5.41740234 0.04869141 5.41740234 0.04869141 7.25 0.0625 C8.17683594 0.07410156 9.10367188 0.08570313 10.05859375 0.09765625 C10.05859375 0.75765625 10.05859375 1.41765625 10.05859375 2.09765625 C6.42859375 2.42765625 2.79859375 2.75765625 -0.94140625 3.09765625 C-1.27140625 7.38765625 -1.60140625 11.67765625 -1.94140625 16.09765625 C-2.60140625 15.76765625 -3.26140625 15.43765625 -3.94140625 15.09765625 C-3.96826037 12.78521833 -3.98773466 10.47269355 -4.00390625 8.16015625 C-4.01550781 6.87238281 -4.02710938 5.58460938 -4.0390625 4.2578125 C-3.91149919 0.12986385 -3.91149919 0.12986385 0 0 Z " fill="#A13449" transform="translate(234.94140625,154.90234375)"/>
<path d="M0 0 C3.3 0 6.6 0 10 0 C11.71466036 3.42932071 11.05404056 7.21716065 11 11 C7.04 11 3.08 11 -1 11 C-1.125 2.25 -1.125 2.25 0 0 Z M0 2 C-0.16666667 5.5 -0.16666667 5.5 0 9 C0.98267859 10.20561184 0.98267859 10.20561184 2.84765625 10.09765625 C4.8984375 10.06510417 6.94921875 10.03255208 9 10 C9.16677282 6.58343976 9.16677282 6.58343976 9 3 C7.10892859 0.66721267 7.10892859 0.66721267 3.9375 0.8125 C1.11166864 0.66812207 1.11166864 0.66812207 0 2 Z " fill="#610F1C" transform="translate(214,157)"/>
<path d="M0 0 C0.99 0 1.98 0 3 0 C3 5.61 3 11.22 3 17 C2.01 17 1.02 17 0 17 C0 11.39 0 5.78 0 0 Z " fill="#9A3043" transform="translate(204,154)"/>
<path d="M0 0 C0 0.66 0 1.32 0 2 C-5.57166351 5.71444234 -12.6419797 4.08221622 -19 3 C-19 2.34 -19 1.68 -19 1 C-16.77100213 0.83109082 -14.54179338 0.66496313 -12.3125 0.5 C-10.45044922 0.36078125 -10.45044922 0.36078125 -8.55078125 0.21875 C-5.68500671 0.04220063 -2.86900043 -0.04388528 0 0 Z " fill="#3C1519" transform="translate(203,170)"/>
<path d="M0 0 C3 0.125 3 0.125 4 1.125 C4.07258946 3.31139453 4.08373783 5.50000389 4.0625 7.6875 C4.05347656 8.88503906 4.04445312 10.08257812 4.03515625 11.31640625 C4.02355469 12.24324219 4.01195312 13.17007813 4 14.125 C3.67 14.125 3.34 14.125 3 14.125 C2.67 10.495 2.34 6.865 2 3.125 C0.68 2.795 -0.64 2.465 -2 2.125 C-1.97679687 2.82367188 -1.95359375 3.52234375 -1.9296875 4.2421875 C-1.91164062 5.15226563 -1.89359375 6.06234375 -1.875 7 C-1.85179687 7.90492188 -1.82859375 8.80984375 -1.8046875 9.7421875 C-2 12.125 -2 12.125 -4 14.125 C-4.02685938 11.97923363 -4.04633088 9.83337355 -4.0625 7.6875 C-4.07410156 6.49253906 -4.08570313 5.29757813 -4.09765625 4.06640625 C-3.96813875 0.16533911 -3.96813875 0.16533911 0 0 Z " fill="#58131F" transform="translate(147,156.875)"/>
<path d="M0 0 C3.3 0 6.6 0 10 0 C10 0.66 10 1.32 10 2 C7.36 2 4.72 2 2 2 C2 6.29 2 10.58 2 15 C1.34 15 0.68 15 0 15 C0 10.05 0 5.1 0 0 Z " fill="#A3334B" transform="translate(130,155)"/>
<path d="M0 0 C0.66 0 1.32 0 2 0 C4.09350689 3.4019487 4.17942163 6.05272412 4 10 C2.35 10 0.7 10 -1 10 C-1.02689216 8.52093108 -1.04634621 7.04172517 -1.0625 5.5625 C-1.07410156 4.73878906 -1.08570312 3.91507813 -1.09765625 3.06640625 C-1 1 -1 1 0 0 Z " fill="#156F5D" transform="translate(68,154)"/>
<path d="M0 0 C0 2.64 0 5.28 0 8 C-2.64 7.01 -5.28 6.02 -8 5 C-8 3.68 -8 2.36 -8 1 C-1.125 0 -1.125 0 0 0 Z " fill="#050C0B" transform="translate(74,169)"/>
<path d="M0 0 C0.66 0 1.32 0 2 0 C2 0.66 2 1.32 2 2 C2.66 2 3.32 2 4 2 C4 5.3 4 8.6 4 12 C5.65 12 7.3 12 9 12 C9 8.7 9 5.4 9 2 C9.33 2 9.66 2 10 2 C10 5.63 10 9.26 10 13 C7.36 13 4.72 13 2 13 C1.34 8.71 0.68 4.42 0 0 Z " fill="#361819" transform="translate(160,154)"/>
<path d="M0 0 C0.33 0 0.66 0 1 0 C1 5.61 1 11.22 1 17 C2.32 17.33 3.64 17.66 5 18 C2.69 18.33 0.38 18.66 -2 19 C-2.66 18.01 -3.32 17.02 -4 16 C-3.34 16 -2.68 16 -2 16 C-2.99 14.68 -3.98 13.36 -5 12 C-3.68 12 -2.36 12 -1 12 C-0.67 8.04 -0.34 4.08 0 0 Z " fill="#5D5E5F" transform="translate(170,129)"/>
<path d="M0 0 C0.33 0.99 0.66 1.98 1 3 C-6.92 2.67 -14.84 2.34 -23 2 C-23 1.67 -23 1.34 -23 1 C-15.31068715 -0.06059488 -7.75493514 -0.09928082 0 0 Z " fill="#3F141C" transform="translate(153,152)"/>
<path d="M0 0 C0.33 0.66 0.66 1.32 1 2 C0.67 2.99 0.34 3.98 0 5 C1.1446875 5.185625 1.1446875 5.185625 2.3125 5.375 C5 6 5 6 8 8 C8 8.66 8 9.32 8 10 C7.01 10.33 6.02 10.66 5 11 C5 10.34 5 9.68 5 9 C2.69 9 0.38 9 -2 9 C-1.125 1.125 -1.125 1.125 0 0 Z " fill="#136D62" transform="translate(82,145)"/>
<path d="M0 0 C0.33 1.65 0.66 3.3 1 5 C-5.75 6 -5.75 6 -8 6 C-8 4.68 -8 3.36 -8 2 C-5.09399739 0.74335022 -3.20395416 0 0 0 Z " fill="#199380" transform="translate(91,160)"/>
<path d="M0 0 C0.33 0.66 0.66 1.32 1 2 C-0.32 2.33 -1.64 2.66 -3 3 C-3 3.66 -3 4.32 -3 5 C-4.2375 5.28875 -5.475 5.5775 -6.75 5.875 C-9.72448742 6.61334794 -12.333856 7.44474933 -15 9 C-14.01 7.02 -13.02 5.04 -12 3 C-11.01 3 -10.02 3 -9 3 C-7.42443294 2.54284064 -5.86199478 2.03895471 -4.3125 1.5 C-3.50425781 1.2215625 -2.69601563 0.943125 -1.86328125 0.65625 C-1.24839844 0.4396875 -0.63351563 0.223125 0 0 Z " fill="#193D37" transform="translate(91,168)"/>
<path d="M0 0 C0 0.33 0 0.66 0 1 C-10.56 0.67 -21.12 0.34 -32 0 C-32 -0.33 -32 -0.66 -32 -1 C-27.98000955 -1.22740248 -23.95910993 -1.42849713 -19.9375 -1.625 C-18.80376953 -1.68945312 -17.67003906 -1.75390625 -16.50195312 -1.8203125 C-10.52995818 -2.09888952 -5.61710305 -2.13596662 0 0 Z " fill="#120D0F" transform="translate(170,23)"/>
<path d="M0 0 C0.33 0.99 0.66 1.98 1 3 C1.66 3 2.32 3 3 3 C3 3.66 3 4.32 3 5 C3.66 5.33 4.32 5.66 5 6 C4.34 8.97 3.68 11.94 3 15 C0.48760618 11.23140928 -0.12663199 8.73760751 -0.0625 4.3125 C-0.05347656 3.50425781 -0.04445313 2.69601563 -0.03515625 1.86328125 C-0.02355469 1.24839844 -0.01195313 0.63351563 0 0 Z " fill="#292427" transform="translate(25,177)"/>
<path d="M0 0 C1.65 0.33 3.3 0.66 5 1 C5 4 5 4 3.75 5.6875 C2 7 2 7 -2 7 C-1.125 2.25 -1.125 2.25 0 0 Z " fill="#49A999" transform="translate(86,130)"/>
<path d="M0 0 C1.57619796 3.15239592 0.68832865 5.61571748 0 9 C-1.3125 11.875 -1.3125 11.875 -3 14 C-5.1875 14.8125 -5.1875 14.8125 -7 15 C-5.45454854 9.52067211 -2.84456788 4.88570819 0 0 Z " fill="#342D31" transform="translate(39,83)"/>
<path d="M0 0 C0.33 0 0.66 0 1 0 C1.31563182 5.26053037 0.66590937 8.44573816 -2 13 C-4.475 12.01 -4.475 12.01 -7 11 C-7 10.34 -7 9.68 -7 9 C-6.401875 8.814375 -5.80375 8.62875 -5.1875 8.4375 C-1.90018201 6.27726247 -1.35145313 3.64892345 0 0 Z " fill="#1A171B" transform="translate(272,184)"/>
<path d="M0 0 C4.3340686 2.88937907 6.31702141 7.01616731 7.4765625 12.08203125 C7.70924183 13.71411058 7.86309272 15.3571126 8 17 C6.02 16.67 4.04 16.34 2 16 C2.33 15.34 2.66 14.68 3 14 C3.99 14 4.98 14 6 14 C4.88145414 10.27385847 4.88145414 10.27385847 2 8 C1.3671875 6.15234375 1.3671875 6.15234375 0.875 3.9375 C0.70742187 3.20402344 0.53984375 2.47054687 0.3671875 1.71484375 C0.24601562 1.14894531 0.12484375 0.58304688 0 0 Z " fill="#113836" transform="translate(64,136)"/>
<path d="M0 0 C1.32 0 2.64 0 4 0 C4 4.62 4 9.24 4 14 C3.34 14 2.68 14 2 14 C1.34 9.38 0.68 4.76 0 0 Z " fill="#4E0A17" transform="translate(226,155)"/>
<path d="M0 0 C1.99954746 -0.04254356 4.00041636 -0.04080783 6 0 C7 1 7 1 7.0625 3.5625 C7.041875 4.366875 7.02125 5.17125 7 6 C6.01 6 5.02 6 4 6 C4.33 5.01 4.66 4.02 5 3 C0.05 3 -4.9 3 -10 3 C-10 2.67 -10 2.34 -10 2 C-6.7 1.67 -3.4 1.34 0 1 C0 0.67 0 0.34 0 0 Z " fill="#4C1A27" transform="translate(120,148)"/>
<path d="M0 0 C0.66 0 1.32 0 2 0 C3.60725635 3.21451269 3.05748185 6.43612536 3 10 C0.525 9.01 0.525 9.01 -2 8 C-2 6.68 -2 5.36 -2 4 C-1.34 4 -0.68 4 0 4 C0 2.68 0 1.36 0 0 Z " fill="#2D756D" transform="translate(94,134)"/>
<path d="M0 0 C0.66 0 1.32 0 2 0 C0.65515286 4.04161955 -1.0505162 6.38678154 -4.125 9.3125 C-4.84945312 10.00988281 -5.57390625 10.70726562 -6.3203125 11.42578125 C-6.87460938 11.94527344 -7.42890625 12.46476563 -8 13 C-8.33 12.34 -8.66 11.68 -9 11 C-8.67 10.01 -8.34 9.02 -8 8 C-7.34 8 -6.68 8 -6 8 C-6 7.34 -6 6.68 -6 6 C-5.01 6 -4.02 6 -3 6 C-3 5.01 -3 4.02 -3 3 C-2.01 3 -1.02 3 0 3 C0 2.01 0 1.02 0 0 Z " fill="#2B2229" transform="translate(246,232)"/>
<path d="M0 0 C0.33 0 0.66 0 1 0 C1 5.61 1 11.22 1 17 C-0.32 16.67 -1.64 16.34 -3 16 C-2.67 13.69 -2.34 11.38 -2 9 C-1.34 9 -0.68 9 0 9 C0 6.03 0 3.06 0 0 Z " fill="#4F0C17" transform="translate(203,154)"/>
<path d="M0 0 C0.33 0 0.66 0 1 0 C1.22745015 3.37399376 1.42851745 6.74907252 1.625 10.125 C1.68945312 11.07632813 1.75390625 12.02765625 1.8203125 13.0078125 C2.10594477 18.14919328 2.12666217 22.17848347 0 27 C-0.33 27 -0.66 27 -1 27 C-1.38063221 24.6739143 -1.71269945 22.33944736 -2 20 C-1.67 19.67 -1.34 19.34 -1 19 C-0.84379445 17.58672053 -0.74943827 16.1664541 -0.68359375 14.74609375 C-0.64169922 13.89208984 -0.59980469 13.03808594 -0.55664062 12.15820312 C-0.51732422 11.26037109 -0.47800781 10.36253906 -0.4375 9.4375 C-0.39431641 8.53580078 -0.35113281 7.63410156 -0.30664062 6.70507812 C-0.20021858 4.47021515 -0.09820012 2.23523692 0 0 Z " fill="#120C0F" transform="translate(277,142)"/>
<path d="M0 0 C0.33 0.99 0.66 1.98 1 3 C2.65 3 4.3 3 6 3 C6.33 4.98 6.66 6.96 7 9 C6.236875 8.690625 5.47375 8.38125 4.6875 8.0625 C2.81210323 7.32106407 0.91315348 6.63771783 -1 6 C-0.67 4.02 -0.34 2.04 0 0 Z " fill="#0E5148" transform="translate(83,144)"/>
<path d="M0 0 C4.42436025 0.51446049 7.26511061 1.61382067 11 4 C11.66 4 12.32 4 13 4 C12.67 4.99 12.34 5.98 12 7 C7.39104317 5.68315519 3.85859765 3.84801255 0 1 C0 0.67 0 0.34 0 0 Z " fill="#292426" transform="translate(79,257)"/>
<path d="M0 0 C0.33 0.66 0.66 1.32 1 2 C1.99 2 2.98 2 4 2 C4 2.66 4 3.32 4 4 C3.01 4.66 2.02 5.32 1 6 C1 6.99 1 7.98 1 9 C-0.98 6.36 -2.96 3.72 -5 1 C-3.35 0.67 -1.7 0.34 0 0 Z " fill="#2D2A2E" transform="translate(51,226)"/>
<path d="M0 0 C-2 2 -2 2 -3.875 2.875 C-6.1592965 3.95098569 -6.1592965 3.95098569 -8.125 6.125 C-8.74375 6.74375 -9.3625 7.3625 -10 8 C-10.66 8 -11.32 8 -12 8 C-12 6.68 -12 5.36 -12 4 C-4.71428571 -0.57142857 -4.71428571 -0.57142857 0 0 Z " fill="#1C2B2A" transform="translate(87,173)"/>
<path d="M0 0 C0.66 0.33 1.32 0.66 2 1 C1.67 2.98 1.34 4.96 1 7 C1.66 7 2.32 7 3 7 C4.5625 9.8125 4.5625 9.8125 6 13 C5.67 13.99 5.34 14.98 5 16 C4.01515892 14.25318707 3.03733813 12.5024149 2.0625 10.75 C1.51722656 9.77546875 0.97195312 8.8009375 0.41015625 7.796875 C-0.76610835 5.46389591 -1.52101691 3.54649238 -2 1 C-1.34 0.67 -0.68 0.34 0 0 Z " fill="#194E47" transform="translate(64,128)"/>
<path d="M0 0 C1.65 0.33 3.3 0.66 5 1 C4.49396008 3.16874252 4.00016187 4.99967627 3 7 C-0.16115776 5.63016497 -0.9927092 5.0109362 -3 2 C-2.01 2 -1.02 2 0 2 C0 1.34 0 0.68 0 0 Z " fill="#2A2528" transform="translate(63,240)"/>
<path d="M0 0 C0.33 0 0.66 0 1 0 C1.02687279 1.81242052 1.04633715 3.62495233 1.0625 5.4375 C1.07410156 6.44683594 1.08570313 7.45617187 1.09765625 8.49609375 C1 11 1 11 0 12 C-2.53049402 12.07313567 -5.03304837 12.09247527 -7.5625 12.0625 C-8.62887695 12.05573242 -8.62887695 12.05573242 -9.71679688 12.04882812 C-11.47790013 12.03700864 -13.23896036 12.01907263 -15 12 C-15 11.67 -15 11.34 -15 11 C-14.15695313 10.93941406 -13.31390625 10.87882813 -12.4453125 10.81640625 C-11.34960938 10.73261719 -10.25390625 10.64882812 -9.125 10.5625 C-8.03445312 10.48128906 -6.94390625 10.40007812 -5.8203125 10.31640625 C-3.05271029 10.16998297 -3.05271029 10.16998297 -1 9 C-0.53348793 6.87423218 -0.53348793 6.87423218 -0.375 4.4375 C-0.30023438 3.61121094 -0.22546875 2.78492188 -0.1484375 1.93359375 C-0.09945312 1.29550781 -0.05046875 0.65742188 0 0 Z " fill="#58101D" transform="translate(227,160)"/>
<path d="M0 0 C2.97 0.495 2.97 0.495 6 1 C5.67 1.99 5.34 2.98 5 4 C4.01 4 3.02 4 2 4 C2 4.99 2 5.98 2 7 C1.01 7 0.02 7 -1 7 C-0.67 4.69 -0.34 2.38 0 0 Z " fill="#3C1616" transform="translate(182,164)"/>
<path d="M0 0 C1.62490954 -0.02698189 3.24994633 -0.04638757 4.875 -0.0625 C5.77992188 -0.07410156 6.68484375 -0.08570313 7.6171875 -0.09765625 C10 0 10 0 12 1 C11.67 2.32 11.34 3.64 11 5 C8.03 4.67 5.06 4.34 2 4 C2 3.67 2 3.34 2 3 C3.65 2.67 5.3 2.34 7 2 C4.69 1.67 2.38 1.34 0 1 C0 0.67 0 0.34 0 0 Z " fill="#D0D0D2" transform="translate(156,129)"/>
<path d="M0 0 C1.37478516 0.01740234 1.37478516 0.01740234 2.77734375 0.03515625 C3.69644531 0.04417969 4.61554688 0.05320313 5.5625 0.0625 C6.27277344 0.07410156 6.98304688 0.08570313 7.71484375 0.09765625 C7.71484375 0.75765625 7.71484375 1.41765625 7.71484375 2.09765625 C6.41546875 2.07703125 5.11609375 2.05640625 3.77734375 2.03515625 C2.42318742 2.01366171 1.06728292 2.02617426 -0.28515625 2.09765625 C-2.02472283 3.83722283 -1.65706011 6.29131845 -1.84765625 8.66015625 C-1.93144531 9.67207031 -2.01523438 10.68398437 -2.1015625 11.7265625 C-2.16214844 12.50902344 -2.22273437 13.29148438 -2.28515625 14.09765625 C-2.61515625 14.09765625 -2.94515625 14.09765625 -3.28515625 14.09765625 C-3.31201563 11.95188988 -3.33148713 9.8060298 -3.34765625 7.66015625 C-3.35925781 6.46519531 -3.37085938 5.27023438 -3.3828125 4.0390625 C-3.25332939 0.13903117 -3.25332939 0.13903117 0 0 Z " fill="#681321" transform="translate(236.28515625,156.90234375)"/>
<path d="M0 0 C1.98 0.99 1.98 0.99 4 2 C3.67 4.31 3.34 6.62 3 9 C2.01 9.33 1.02 9.66 0 10 C0 6.7 0 3.4 0 0 Z " fill="#257364" transform="translate(53,134)"/>
<path d="M0 0 C0.33 0.66 0.66 1.32 1 2 C1.66 2 2.32 2 3 2 C4.17571451 5.67410785 4.07366746 9.16929183 4 13 C3.67 13 3.34 13 3 13 C3 11.35 3 9.7 3 8 C2.34 8 1.68 8 1 8 C0.67 8.99 0.34 9.98 0 11 C0 7.37 0 3.74 0 0 Z " fill="#094A46" transform="translate(71,147)"/>
<path d="M0 0 C0 0.66 0 1.32 0 2 C-2.95664519 3.4783226 -5.74229737 3.06032783 -9 3 C-8.67 2.01 -8.34 1.02 -8 0 C-5.04215769 -1.22393475 -3.00272755 -0.96516243 0 0 Z " fill="#F2F2F4" transform="translate(168,143)"/>
<path d="M0 0 C0.33 1.32 0.66 2.64 1 4 C-2.63 4 -6.26 4 -10 4 C-10 3.34 -10 2.68 -10 2 C-6.7 1.34 -3.4 0.68 0 0 Z " fill="#281F1F" transform="translate(126,162)"/>
<path d="M0 0 C0.66 0 1.32 0 2 0 C2.09765625 6.15234375 2.09765625 6.15234375 2 8 C1 9 1 9 -2.0625 9.0625 C-3.031875 9.041875 -4.00125 9.02125 -5 9 C-4.0409375 8.443125 -4.0409375 8.443125 -3.0625 7.875 C-0.36141928 5.41947207 -0.31592995 3.55421195 0 0 Z " fill="#133A37" transform="translate(59,135)"/>
<path d="M0 0 C1.9375 0.3125 1.9375 0.3125 4 1 C4.33 1.99 4.66 2.98 5 4 C4.34 4 3.68 4 3 4 C3 4.66 3 5.32 3 6 C0.03 5.505 0.03 5.505 -3 5 C-2.01 3.35 -1.02 1.7 0 0 Z " fill="#292428" transform="translate(107,266)"/>
<path d="M0 0 C0 1.65 0 3.3 0 5 C-0.33 4.01 -0.66 3.02 -1 2 C-2.32 2.33 -3.64 2.66 -5 3 C-5.33 5.64 -5.66 8.28 -6 11 C-6.33 11 -6.66 11 -7 11 C-7 7.7 -7 4.4 -7 1 C-4.53721199 -0.231394 -2.7204945 -0.07159196 0 0 Z " fill="#4C0C17" transform="translate(140,157)"/>
<path d="M0 0 C2.125 0.9375 2.125 0.9375 4 2 C4 2.66 4 3.32 4 4 C2.02 4.66 0.04 5.32 -2 6 C-2 4.35 -2 2.7 -2 1 C-1.34 0.67 -0.68 0.34 0 0 Z " fill="#043C3D" transform="translate(86,156)"/>
<path d="M0 0 C0.66 0 1.32 0 2 0 C2.46192125 4.92715996 0.8275283 8.50732625 -1 13 C-1.33 13 -1.66 13 -2 13 C-2.19294408 8.17639811 -1.75747614 4.50353262 0 0 Z " fill="#2D9A8F" transform="translate(81,140)"/>
<path d="M0 0 C1.67542976 0.28604898 3.34385343 0.61781233 5 1 C5 1.66 5 2.32 5 3 C7.97 3.495 7.97 3.495 11 4 C7.92677456 4.91058531 5.19902639 5.08886184 2 5 C2 4.01 2 3.02 2 2 C1.01 1.67 0.02 1.34 -1 1 C-0.67 0.67 -0.34 0.34 0 0 Z " fill="#1D6E62" transform="translate(73,123)"/>
<path d="M0 0 C2.97 0 5.94 0 9 0 C9.33 1.32 9.66 2.64 10 4 C7.03 3.67 4.06 3.34 1 3 C0.67 2.01 0.34 1.02 0 0 Z " fill="#A22F48" transform="translate(143,155)"/>
<path d="M0 0 C3.3 0 6.6 0 10 0 C10 3.3 10 6.6 10 10 C9.67 10 9.34 10 9 10 C8.855625 8.865625 8.71125 7.73125 8.5625 6.5625 C8.38828522 3.19222799 8.38828522 3.19222799 7 2 C4.66702567 1.95907063 2.33294775 1.95758277 0 2 C0 1.34 0 0.68 0 0 Z " fill="#540A15" transform="translate(214,157)"/>
<path d="M0 0 C3.96 0 7.92 0 12 0 C12 0.33 12 0.66 12 1 C8.7 1 5.4 1 2 1 C2 1.66 2 2.32 2 3 C2.66 3.33 3.32 3.66 4 4 C2.35 4 0.7 4 -1 4 C-0.67 2.68 -0.34 1.36 0 0 Z " fill="#5E0F1B" transform="translate(188,157)"/>
<path d="M0 0 C2.97 0.495 2.97 0.495 6 1 C6 2.32 6 3.64 6 5 C3.03 4.505 3.03 4.505 0 4 C0 2.68 0 1.36 0 0 Z " fill="#1C1D1B" transform="translate(123,144)"/>
<path d="M0 0 C2.4375 1.125 2.4375 1.125 5 3 C5.8125 6.1875 5.8125 6.1875 6 9 C5.01 8.34 4.02 7.68 3 7 C3 6.34 3 5.68 3 5 C2.34 5 1.68 5 1 5 C0.67 3.35 0.34 1.7 0 0 Z " fill="#1B151D" transform="translate(251,72)"/>
<path d="M0 0 C0.66 0.33 1.32 0.66 2 1 C2 1.66 2 2.32 2 3 C-0.31 3.33 -2.62 3.66 -5 4 C-3.36587557 2.29159719 -2.13093906 1.06546953 0 0 Z M-2 4 C-1.34 4.66 -0.68 5.32 0 6 C-1.65 6.66 -3.3 7.32 -5 8 C-4.01 6.68 -3.02 5.36 -2 4 Z " fill="#312E32" transform="translate(88,36)"/>
<path d="M0 0 C-1.4036827 2.80736541 -3.10783413 2.96708362 -6 4 C-6.99 4.33 -7.98 4.66 -9 5 C-9.33 3.68 -9.66 2.36 -10 1 C-6.61981469 -0.04005702 -3.5219721 -0.08004482 0 0 Z " fill="#2B242B" transform="translate(129,23)"/>
<path d="M0 0 C0.33 0 0.66 0 1 0 C0.75 3.375 0.75 3.375 0 7 C-2.0625 8.4375 -2.0625 8.4375 -4 9 C-2.94124926 5.59687262 -1.99097846 2.98646769 0 0 Z " fill="#171314" transform="translate(265,203)"/>
<path d="M0 0 C0 0.66 0 1.32 0 2 C-0.66 2 -1.32 2 -2 2 C-2.33 3.65 -2.66 5.3 -3 7 C-5.1385485 4.8614515 -5.42655063 3.86724686 -6 1 C-3 0 -3 0 0 0 Z " fill="#207B6B" transform="translate(96,158)"/>
<path d="M0 0 C0.66 0 1.32 0 2 0 C1.84660156 0.55171875 1.69320312 1.1034375 1.53515625 1.671875 C0.95329729 4.20317383 0.67564555 6.66441972 0.4375 9.25 C0.35371094 10.14203125 0.26992187 11.0340625 0.18359375 11.953125 C0.12300781 12.62859375 0.06242188 13.3040625 0 14 C-0.33 14 -0.66 14 -1 14 C-1.02685938 11.85423363 -1.04633088 9.70837355 -1.0625 7.5625 C-1.07410156 6.36753906 -1.08570313 5.17257813 -1.09765625 3.94140625 C-1 1 -1 1 0 0 Z " fill="#852B3D" transform="translate(172,154)"/>
<path d="M0 0 C1.62463842 -0.05395478 3.24978541 -0.09277195 4.875 -0.125 C5.77992188 -0.14820313 6.68484375 -0.17140625 7.6171875 -0.1953125 C10 0 10 0 12 2 C11.34 3.65 10.68 5.3 10 7 C8 3.125 8 3.125 8 2 C5.36 1.67 2.72 1.34 0 1 C0 0.67 0 0.34 0 0 Z " fill="#832234" transform="translate(188,161)"/>
<path d="M0 0 C1.98 0.99 1.98 0.99 4 2 C3.01 2.495 3.01 2.495 2 3 C2.33 5.31 2.66 7.62 3 10 C2.01 9.67 1.02 9.34 0 9 C0 6.03 0 3.06 0 0 Z " fill="#0B3739" transform="translate(84,138)"/>
<path d="M0 0 C0.66 0 1.32 0 2 0 C2.33 2.31 2.66 4.62 3 7 C2.01 7.66 1.02 8.32 0 9 C0.20625 8.401875 0.4125 7.80375 0.625 7.1875 C1.30671915 4.71549154 1.30671915 4.71549154 -1 2 C-0.67 1.34 -0.34 0.68 0 0 Z " fill="#1A1A1A" transform="translate(273,161)"/>
<path d="M0 0 C2.64 0 5.28 0 8 0 C5.64031256 2.09749995 4.45383006 2.96905704 1.25 3.1875 C0.13625 3.0946875 0.13625 3.0946875 -1 3 C-0.67 2.01 -0.34 1.02 0 0 Z " fill="#371516" transform="translate(116,155)"/>
<path d="M0 0 C1.32 0.33 2.64 0.66 4 1 C4 2.32 4 3.64 4 5 C2.68 5 1.36 5 0 5 C0 3.35 0 1.7 0 0 Z " fill="#5D202D" transform="translate(204,149)"/>
<path d="M0 0 C0.99 0 1.98 0 3 0 C3 1.98 3 3.96 3 6 C2.01 6 1.02 6 0 6 C0 4.02 0 2.04 0 0 Z " fill="#108167" transform="translate(68,156)"/>
<path d="M0 0 C2.4375 0.8125 2.4375 0.8125 5 2 C5.33 2.99 5.66 3.98 6 5 C5.01 5 4.02 5 3 5 C3 4.34 3 3.68 3 3 C1.35 2.67 -0.3 2.34 -2 2 C-1.34 1.34 -0.68 0.68 0 0 Z " fill="#183533" transform="translate(90,128)"/>
<path d="M0 0 C1.9375 0.75 1.9375 0.75 4 2 C4.75 4.125 4.75 4.125 5 6 C2.5 4.6875 2.5 4.6875 0 3 C0 2.01 0 1.02 0 0 Z " fill="#1C181C" transform="translate(240,59)"/>
<path d="M0 0 C0.99 0.33 1.98 0.66 3 1 C3.33 1.99 3.66 2.98 4 4 C2.125 4.625 2.125 4.625 0 5 C-0.66 4.34 -1.32 3.68 -2 3 C-1.34 3 -0.68 3 0 3 C0 2.01 0 1.02 0 0 Z " fill="#2B2529" transform="translate(99,264)"/>
<path d="M0 0 C0.33 0 0.66 0 1 0 C1 1.65 1 3.3 1 5 C1.66 5 2.32 5 3 5 C3 5.66 3 6.32 3 7 C1.68 7 0.36 7 -1 7 C-1.04254356 5.00045254 -1.04080783 2.99958364 -1 1 C-0.67 0.67 -0.34 0.34 0 0 Z " fill="#4D1216" transform="translate(183,157)"/>
<path d="M0 0 C0.66 0 1.32 0 2 0 C1.67 2.97 1.34 5.94 1 9 C0.34 8.34 -0.32 7.68 -1 7 C-0.625 3.375 -0.625 3.375 0 0 Z " fill="#2E9D90" transform="translate(77,154)"/>
<path d="M0 0 C0.99 0.33 1.98 0.66 3 1 C3 2.32 3 3.64 3 5 C1.68 5 0.36 5 -1 5 C-0.67 3.35 -0.34 1.7 0 0 Z " fill="#3BAC9E" transform="translate(85,132)"/>
</svg>
